%TF.GenerationSoftware,KiCad,Pcbnew,9.0.7-9.0.7~ubuntu24.04.1*%
%TF.CreationDate,2026-01-19T19:18:33+05:30*%
%TF.ProjectId,controller,636f6e74-726f-46c6-9c65-722e6b696361,rev?*%
%TF.SameCoordinates,Original*%
%TF.FileFunction,Soldermask,Top*%
%TF.FilePolarity,Negative*%
%FSLAX46Y46*%
G04 Gerber Fmt 4.6, Leading zero omitted, Abs format (unit mm)*
G04 Created by KiCad (PCBNEW 9.0.7-9.0.7~ubuntu24.04.1) date 2026-01-19 19:18:33*
%MOMM*%
%LPD*%
G01*
G04 APERTURE LIST*
G04 Aperture macros list*
%AMRoundRect*
0 Rectangle with rounded corners*
0 $1 Rounding radius*
0 $2 $3 $4 $5 $6 $7 $8 $9 X,Y pos of 4 corners*
0 Add a 4 corners polygon primitive as box body*
4,1,4,$2,$3,$4,$5,$6,$7,$8,$9,$2,$3,0*
0 Add four circle primitives for the rounded corners*
1,1,$1+$1,$2,$3*
1,1,$1+$1,$4,$5*
1,1,$1+$1,$6,$7*
1,1,$1+$1,$8,$9*
0 Add four rect primitives between the rounded corners*
20,1,$1+$1,$2,$3,$4,$5,0*
20,1,$1+$1,$4,$5,$6,$7,0*
20,1,$1+$1,$6,$7,$8,$9,0*
20,1,$1+$1,$8,$9,$2,$3,0*%
G04 Aperture macros list end*
%ADD10C,0.010000*%
%ADD11R,1.700000X1.700000*%
%ADD12C,1.700000*%
%ADD13RoundRect,0.102000X-0.765000X-0.765000X0.765000X-0.765000X0.765000X0.765000X-0.765000X0.765000X0*%
%ADD14C,1.734000*%
%ADD15RoundRect,0.200000X-0.275000X0.200000X-0.275000X-0.200000X0.275000X-0.200000X0.275000X0.200000X0*%
%ADD16R,1.230000X1.360000*%
%ADD17RoundRect,0.218750X-0.218750X-0.256250X0.218750X-0.256250X0.218750X0.256250X-0.218750X0.256250X0*%
%ADD18RoundRect,0.225000X-0.250000X0.225000X-0.250000X-0.225000X0.250000X-0.225000X0.250000X0.225000X0*%
%ADD19C,0.600000*%
%ADD20O,2.200000X1.100000*%
%ADD21O,1.900000X1.100000*%
%ADD22RoundRect,0.375000X-0.375000X0.625000X-0.375000X-0.625000X0.375000X-0.625000X0.375000X0.625000X0*%
%ADD23RoundRect,0.500000X-1.400000X0.500000X-1.400000X-0.500000X1.400000X-0.500000X1.400000X0.500000X0*%
%ADD24RoundRect,0.225000X0.225000X0.250000X-0.225000X0.250000X-0.225000X-0.250000X0.225000X-0.250000X0*%
%ADD25RoundRect,0.200000X0.200000X0.275000X-0.200000X0.275000X-0.200000X-0.275000X0.200000X-0.275000X0*%
%ADD26R,1.500000X0.900000*%
%ADD27R,0.900000X1.500000*%
%ADD28R,0.900000X0.900000*%
%ADD29RoundRect,0.225000X0.250000X-0.225000X0.250000X0.225000X-0.250000X0.225000X-0.250000X-0.225000X0*%
G04 APERTURE END LIST*
D10*
%TO.C,J1*%
X123052457Y-81995298D02*
X121812457Y-81995298D01*
X121812457Y-81295298D01*
X123052457Y-81295298D01*
X123052457Y-81995298D01*
G36*
X123052457Y-81995298D02*
G01*
X121812457Y-81995298D01*
X121812457Y-81295298D01*
X123052457Y-81295298D01*
X123052457Y-81995298D01*
G37*
X123052457Y-82795298D02*
X121812457Y-82795298D01*
X121812457Y-82095298D01*
X123052457Y-82095298D01*
X123052457Y-82795298D01*
G36*
X123052457Y-82795298D02*
G01*
X121812457Y-82795298D01*
X121812457Y-82095298D01*
X123052457Y-82095298D01*
X123052457Y-82795298D01*
G37*
X123052457Y-83295298D02*
X121812457Y-83295298D01*
X121812457Y-82895298D01*
X123052457Y-82895298D01*
X123052457Y-83295298D01*
G36*
X123052457Y-83295298D02*
G01*
X121812457Y-83295298D01*
X121812457Y-82895298D01*
X123052457Y-82895298D01*
X123052457Y-83295298D01*
G37*
X123052457Y-83795298D02*
X121812457Y-83795298D01*
X121812457Y-83395298D01*
X123052457Y-83395298D01*
X123052457Y-83795298D01*
G36*
X123052457Y-83795298D02*
G01*
X121812457Y-83795298D01*
X121812457Y-83395298D01*
X123052457Y-83395298D01*
X123052457Y-83795298D01*
G37*
X123052457Y-84295298D02*
X121812457Y-84295298D01*
X121812457Y-83895298D01*
X123052457Y-83895298D01*
X123052457Y-84295298D01*
G36*
X123052457Y-84295298D02*
G01*
X121812457Y-84295298D01*
X121812457Y-83895298D01*
X123052457Y-83895298D01*
X123052457Y-84295298D01*
G37*
X123052457Y-84795298D02*
X121812457Y-84795298D01*
X121812457Y-84395298D01*
X123052457Y-84395298D01*
X123052457Y-84795298D01*
G36*
X123052457Y-84795298D02*
G01*
X121812457Y-84795298D01*
X121812457Y-84395298D01*
X123052457Y-84395298D01*
X123052457Y-84795298D01*
G37*
X123052457Y-85295298D02*
X121812457Y-85295298D01*
X121812457Y-84895298D01*
X123052457Y-84895298D01*
X123052457Y-85295298D01*
G36*
X123052457Y-85295298D02*
G01*
X121812457Y-85295298D01*
X121812457Y-84895298D01*
X123052457Y-84895298D01*
X123052457Y-85295298D01*
G37*
X123052457Y-85795298D02*
X121812457Y-85795298D01*
X121812457Y-85395298D01*
X123052457Y-85395298D01*
X123052457Y-85795298D01*
G36*
X123052457Y-85795298D02*
G01*
X121812457Y-85795298D01*
X121812457Y-85395298D01*
X123052457Y-85395298D01*
X123052457Y-85795298D01*
G37*
X123052457Y-86295298D02*
X121812457Y-86295298D01*
X121812457Y-85895298D01*
X123052457Y-85895298D01*
X123052457Y-86295298D01*
G36*
X123052457Y-86295298D02*
G01*
X121812457Y-86295298D01*
X121812457Y-85895298D01*
X123052457Y-85895298D01*
X123052457Y-86295298D01*
G37*
X123052457Y-86795298D02*
X121812457Y-86795298D01*
X121812457Y-86395298D01*
X123052457Y-86395298D01*
X123052457Y-86795298D01*
G36*
X123052457Y-86795298D02*
G01*
X121812457Y-86795298D01*
X121812457Y-86395298D01*
X123052457Y-86395298D01*
X123052457Y-86795298D01*
G37*
X123052457Y-87595298D02*
X121812457Y-87595298D01*
X121812457Y-86895298D01*
X123052457Y-86895298D01*
X123052457Y-87595298D01*
G36*
X123052457Y-87595298D02*
G01*
X121812457Y-87595298D01*
X121812457Y-86895298D01*
X123052457Y-86895298D01*
X123052457Y-87595298D01*
G37*
X123052457Y-88395298D02*
X121812457Y-88395298D01*
X121812457Y-87695298D01*
X123052457Y-87695298D01*
X123052457Y-88395298D01*
G36*
X123052457Y-88395298D02*
G01*
X121812457Y-88395298D01*
X121812457Y-87695298D01*
X123052457Y-87695298D01*
X123052457Y-88395298D01*
G37*
%TD*%
D11*
%TO.C,J7*%
X150318457Y-98084298D03*
D12*
X147778457Y-98084298D03*
X145238457Y-98084298D03*
X142698457Y-98084298D03*
%TD*%
D11*
%TO.C,J6*%
X165939457Y-101894298D03*
D12*
X168479457Y-101894298D03*
%TD*%
D11*
%TO.C,J5*%
X162129457Y-98084298D03*
D12*
X159589457Y-98084298D03*
X157049457Y-98084298D03*
X154509457Y-98084298D03*
%TD*%
D11*
%TO.C,J4*%
X154509457Y-103037298D03*
D12*
X151969457Y-103037298D03*
X149429457Y-103037298D03*
X146889457Y-103037298D03*
%TD*%
D11*
%TO.C,J3*%
X187529457Y-97195298D03*
D12*
X190069457Y-97195298D03*
X192609457Y-97195298D03*
X195149457Y-97195298D03*
%TD*%
D11*
%TO.C,J2*%
X179655457Y-97449298D03*
D12*
X177115457Y-97449298D03*
X174575457Y-97449298D03*
X172035457Y-97449298D03*
%TD*%
D13*
%TO.C,U4*%
X180163457Y-75097298D03*
D14*
X180163457Y-77637298D03*
X180163457Y-80177298D03*
X180163457Y-82717298D03*
X180163457Y-85257298D03*
X180163457Y-87797298D03*
X180163457Y-90337298D03*
X180163457Y-92877298D03*
X192863457Y-92877298D03*
X192863457Y-90337298D03*
X192863457Y-87797298D03*
X192863457Y-85257298D03*
X192863457Y-82717298D03*
X192863457Y-80177298D03*
X192863457Y-77637298D03*
X192863457Y-75097298D03*
%TD*%
D13*
%TO.C,U1*%
X157715457Y-75732298D03*
D14*
X157715457Y-78272298D03*
X157715457Y-80812298D03*
X157715457Y-83352298D03*
X157715457Y-85892298D03*
X157715457Y-88432298D03*
X157715457Y-90972298D03*
X157715457Y-93512298D03*
X170415457Y-93512298D03*
X170415457Y-90972298D03*
X170415457Y-88432298D03*
X170415457Y-85892298D03*
X170415457Y-83352298D03*
X170415457Y-80812298D03*
X170415457Y-78272298D03*
X170415457Y-75732298D03*
%TD*%
D15*
%TO.C,R1*%
X120854457Y-92497298D03*
X120854457Y-94147298D03*
%TD*%
D16*
%TO.C,SW2*%
X131014457Y-99227298D03*
X126654457Y-99227298D03*
%TD*%
D17*
%TO.C,D3*%
X125506457Y-77031298D03*
X127081457Y-77031298D03*
%TD*%
D18*
%TO.C,C3*%
X134318457Y-96153298D03*
X134318457Y-97703298D03*
%TD*%
D19*
%TO.C,J1*%
X121362457Y-81955298D03*
X121362457Y-87735298D03*
D20*
X121852457Y-80520298D03*
X121852457Y-89170298D03*
D21*
X117682457Y-80520298D03*
X117682457Y-89170298D03*
%TD*%
D17*
%TO.C,D2*%
X125493957Y-78731298D03*
X127068957Y-78731298D03*
%TD*%
D22*
%TO.C,U3*%
X130534457Y-88559298D03*
X128234457Y-88559298D03*
D23*
X128234457Y-94859298D03*
D22*
X125934457Y-88559298D03*
%TD*%
D24*
%TO.C,C5*%
X127056457Y-75431298D03*
X125506457Y-75431298D03*
%TD*%
D18*
%TO.C,C2*%
X135918457Y-96153298D03*
X135918457Y-97703298D03*
%TD*%
D25*
%TO.C,R5*%
X130506457Y-78731298D03*
X128856457Y-78731298D03*
%TD*%
%TO.C,R6*%
X130518957Y-77031298D03*
X128868957Y-77031298D03*
%TD*%
D16*
%TO.C,SW1*%
X117806457Y-77510298D03*
X122166457Y-77510298D03*
%TD*%
D26*
%TO.C,U2*%
X134062457Y-74335298D03*
X134062457Y-75605298D03*
X134062457Y-76875298D03*
X134062457Y-78145298D03*
X134062457Y-79415298D03*
X134062457Y-80685298D03*
X134062457Y-81955298D03*
X134062457Y-83225298D03*
X134062457Y-84495298D03*
X134062457Y-85765298D03*
X134062457Y-87035298D03*
X134062457Y-88305298D03*
X134062457Y-89575298D03*
X134062457Y-90845298D03*
D27*
X135827457Y-92095298D03*
X137097457Y-92095298D03*
X138367457Y-92095298D03*
X139637457Y-92095298D03*
X140907457Y-92095298D03*
X142177457Y-92095298D03*
X143447457Y-92095298D03*
X144717457Y-92095298D03*
X145987457Y-92095298D03*
X147257457Y-92095298D03*
X148527457Y-92095298D03*
X149797457Y-92095298D03*
D26*
X151562457Y-90845298D03*
X151562457Y-89575298D03*
X151562457Y-88305298D03*
X151562457Y-87035298D03*
X151562457Y-85765298D03*
X151562457Y-84495298D03*
X151562457Y-83225298D03*
X151562457Y-81955298D03*
X151562457Y-80685298D03*
X151562457Y-79415298D03*
X151562457Y-78145298D03*
X151562457Y-76875298D03*
X151562457Y-75605298D03*
X151562457Y-74335298D03*
D28*
X139912457Y-80655298D03*
X139912457Y-82055298D03*
X139912457Y-83455298D03*
X139912457Y-83455298D03*
X141312457Y-80655298D03*
X141312457Y-80655298D03*
X141312457Y-82055298D03*
X141312457Y-83455298D03*
X142712457Y-80655298D03*
X142712457Y-82055298D03*
X142712457Y-83455298D03*
%TD*%
D25*
%TO.C,R4*%
X130506457Y-80431298D03*
X128856457Y-80431298D03*
%TD*%
D18*
%TO.C,C1*%
X137618457Y-96153298D03*
X137618457Y-97703298D03*
%TD*%
D25*
%TO.C,R3*%
X130506457Y-75431298D03*
X128856457Y-75431298D03*
%TD*%
D17*
%TO.C,D1*%
X125481457Y-80431298D03*
X127056457Y-80431298D03*
%TD*%
D15*
%TO.C,R2*%
X131014457Y-83353298D03*
X131014457Y-85003298D03*
%TD*%
D29*
%TO.C,C4*%
X118546457Y-93624298D03*
X118546457Y-92074298D03*
%TD*%
M02*
