%TF.GenerationSoftware,KiCad,Pcbnew,9.0.7-9.0.7~ubuntu24.04.1*%
%TF.CreationDate,2026-01-19T19:18:32+05:30*%
%TF.ProjectId,controller,636f6e74-726f-46c6-9c65-722e6b696361,rev?*%
%TF.SameCoordinates,Original*%
%TF.FileFunction,Copper,L1,Top*%
%TF.FilePolarity,Positive*%
%FSLAX46Y46*%
G04 Gerber Fmt 4.6, Leading zero omitted, Abs format (unit mm)*
G04 Created by KiCad (PCBNEW 9.0.7-9.0.7~ubuntu24.04.1) date 2026-01-19 19:18:32*
%MOMM*%
%LPD*%
G01*
G04 APERTURE LIST*
G04 Aperture macros list*
%AMRoundRect*
0 Rectangle with rounded corners*
0 $1 Rounding radius*
0 $2 $3 $4 $5 $6 $7 $8 $9 X,Y pos of 4 corners*
0 Add a 4 corners polygon primitive as box body*
4,1,4,$2,$3,$4,$5,$6,$7,$8,$9,$2,$3,0*
0 Add four circle primitives for the rounded corners*
1,1,$1+$1,$2,$3*
1,1,$1+$1,$4,$5*
1,1,$1+$1,$6,$7*
1,1,$1+$1,$8,$9*
0 Add four rect primitives between the rounded corners*
20,1,$1+$1,$2,$3,$4,$5,0*
20,1,$1+$1,$4,$5,$6,$7,0*
20,1,$1+$1,$6,$7,$8,$9,0*
20,1,$1+$1,$8,$9,$2,$3,0*%
G04 Aperture macros list end*
%TA.AperFunction,ComponentPad*%
%ADD10R,1.700000X1.700000*%
%TD*%
%TA.AperFunction,ComponentPad*%
%ADD11C,1.700000*%
%TD*%
%TA.AperFunction,ComponentPad*%
%ADD12R,1.530000X1.530000*%
%TD*%
%TA.AperFunction,ComponentPad*%
%ADD13C,1.530000*%
%TD*%
%TA.AperFunction,SMDPad,CuDef*%
%ADD14RoundRect,0.200000X-0.275000X0.200000X-0.275000X-0.200000X0.275000X-0.200000X0.275000X0.200000X0*%
%TD*%
%TA.AperFunction,SMDPad,CuDef*%
%ADD15R,1.230000X1.360000*%
%TD*%
%TA.AperFunction,SMDPad,CuDef*%
%ADD16RoundRect,0.218750X-0.218750X-0.256250X0.218750X-0.256250X0.218750X0.256250X-0.218750X0.256250X0*%
%TD*%
%TA.AperFunction,SMDPad,CuDef*%
%ADD17RoundRect,0.225000X-0.250000X0.225000X-0.250000X-0.225000X0.250000X-0.225000X0.250000X0.225000X0*%
%TD*%
%TA.AperFunction,SMDPad,CuDef*%
%ADD18R,1.140000X0.600000*%
%TD*%
%TA.AperFunction,SMDPad,CuDef*%
%ADD19R,1.140000X0.300000*%
%TD*%
%TA.AperFunction,ComponentPad*%
%ADD20O,2.200000X1.100000*%
%TD*%
%TA.AperFunction,ComponentPad*%
%ADD21O,1.900000X1.100000*%
%TD*%
%TA.AperFunction,SMDPad,CuDef*%
%ADD22RoundRect,0.375000X-0.375000X0.625000X-0.375000X-0.625000X0.375000X-0.625000X0.375000X0.625000X0*%
%TD*%
%TA.AperFunction,SMDPad,CuDef*%
%ADD23RoundRect,0.500000X-1.400000X0.500000X-1.400000X-0.500000X1.400000X-0.500000X1.400000X0.500000X0*%
%TD*%
%TA.AperFunction,SMDPad,CuDef*%
%ADD24RoundRect,0.225000X0.225000X0.250000X-0.225000X0.250000X-0.225000X-0.250000X0.225000X-0.250000X0*%
%TD*%
%TA.AperFunction,SMDPad,CuDef*%
%ADD25RoundRect,0.200000X0.200000X0.275000X-0.200000X0.275000X-0.200000X-0.275000X0.200000X-0.275000X0*%
%TD*%
%TA.AperFunction,SMDPad,CuDef*%
%ADD26R,1.500000X0.900000*%
%TD*%
%TA.AperFunction,SMDPad,CuDef*%
%ADD27R,0.900000X1.500000*%
%TD*%
%TA.AperFunction,SMDPad,CuDef*%
%ADD28R,0.900000X0.900000*%
%TD*%
%TA.AperFunction,SMDPad,CuDef*%
%ADD29RoundRect,0.225000X0.250000X-0.225000X0.250000X0.225000X-0.250000X0.225000X-0.250000X-0.225000X0*%
%TD*%
%TA.AperFunction,ViaPad*%
%ADD30C,0.600000*%
%TD*%
%TA.AperFunction,Conductor*%
%ADD31C,0.200000*%
%TD*%
%TA.AperFunction,Conductor*%
%ADD32C,0.400000*%
%TD*%
G04 APERTURE END LIST*
D10*
%TO.P,J7,1,Pin_1*%
%TO.N,GND*%
X150318457Y-98084298D03*
D11*
%TO.P,J7,2,Pin_2*%
%TO.N,+5V*%
X147778457Y-98084298D03*
%TO.P,J7,3,Pin_3*%
%TO.N,GPIO13*%
X145238457Y-98084298D03*
%TO.P,J7,4,Pin_4*%
%TO.N,GPIO12*%
X142698457Y-98084298D03*
%TD*%
D10*
%TO.P,J6,1,Pin_1*%
%TO.N,GND*%
X165939457Y-101894298D03*
D11*
%TO.P,J6,2,Pin_2*%
%TO.N,Net-(J6-Pin_2)*%
X168479457Y-101894298D03*
%TD*%
D10*
%TO.P,J5,1,Pin_1*%
%TO.N,GPIO42*%
X162129457Y-98084298D03*
D11*
%TO.P,J5,2,Pin_2*%
%TO.N,GPIO41*%
X159589457Y-98084298D03*
%TO.P,J5,3,Pin_3*%
%TO.N,GPIO48*%
X157049457Y-98084298D03*
%TO.P,J5,4,Pin_4*%
%TO.N,GPIO37*%
X154509457Y-98084298D03*
%TD*%
D10*
%TO.P,J4,1,Pin_1*%
%TO.N,GPIO38*%
X154509457Y-103037298D03*
D11*
%TO.P,J4,2,Pin_2*%
%TO.N,GPIO45*%
X151969457Y-103037298D03*
%TO.P,J4,3,Pin_3*%
%TO.N,GPIO46*%
X149429457Y-103037298D03*
%TO.P,J4,4,Pin_4*%
%TO.N,GPIO47*%
X146889457Y-103037298D03*
%TD*%
D10*
%TO.P,J3,1,Pin_1*%
%TO.N,Net-(J3-Pin_1)*%
X187529457Y-97195298D03*
D11*
%TO.P,J3,2,Pin_2*%
%TO.N,Net-(J3-Pin_2)*%
X190069457Y-97195298D03*
%TO.P,J3,3,Pin_3*%
%TO.N,Net-(J3-Pin_3)*%
X192609457Y-97195298D03*
%TO.P,J3,4,Pin_4*%
%TO.N,Net-(J3-Pin_4)*%
X195149457Y-97195298D03*
%TD*%
D10*
%TO.P,J2,1,Pin_1*%
%TO.N,Net-(J2-Pin_1)*%
X179655457Y-97449298D03*
D11*
%TO.P,J2,2,Pin_2*%
%TO.N,Net-(J2-Pin_2)*%
X177115457Y-97449298D03*
%TO.P,J2,3,Pin_3*%
%TO.N,Net-(J2-Pin_3)*%
X174575457Y-97449298D03*
%TO.P,J2,4,Pin_4*%
%TO.N,Net-(J2-Pin_4)*%
X172035457Y-97449298D03*
%TD*%
D12*
%TO.P,U4,1,~{ENABLE}*%
%TO.N,unconnected-(U4-~{ENABLE}-Pad1)*%
X180163457Y-75097298D03*
D13*
%TO.P,U4,2,MS1*%
%TO.N,unconnected-(U4-MS1-Pad2)*%
X180163457Y-77637298D03*
%TO.P,U4,3,MS2*%
%TO.N,unconnected-(U4-MS2-Pad3)*%
X180163457Y-80177298D03*
%TO.P,U4,4,MS3*%
%TO.N,unconnected-(U4-MS3-Pad4)*%
X180163457Y-82717298D03*
%TO.P,U4,5,~{RESET}*%
%TO.N,Net-(U4-~{RESET})*%
X180163457Y-85257298D03*
%TO.P,U4,6,~{SLEEP}*%
X180163457Y-87797298D03*
%TO.P,U4,7,STEP*%
%TO.N,GPIO17*%
X180163457Y-90337298D03*
%TO.P,U4,8,DIR*%
%TO.N,GPIO18*%
X180163457Y-92877298D03*
%TO.P,U4,9,GND*%
%TO.N,GND*%
X192863457Y-92877298D03*
%TO.P,U4,10,VDD*%
%TO.N,Net-(U1-VDD)*%
X192863457Y-90337298D03*
%TO.P,U4,11,1B*%
%TO.N,Net-(J3-Pin_3)*%
X192863457Y-87797298D03*
%TO.P,U4,12,1A*%
%TO.N,Net-(J3-Pin_4)*%
X192863457Y-85257298D03*
%TO.P,U4,13,2A*%
%TO.N,Net-(J3-Pin_2)*%
X192863457Y-82717298D03*
%TO.P,U4,14,2B*%
%TO.N,Net-(J3-Pin_1)*%
X192863457Y-80177298D03*
%TO.P,U4,15,GND*%
%TO.N,GND*%
X192863457Y-77637298D03*
%TO.P,U4,16,VMOT*%
%TO.N,Net-(J6-Pin_2)*%
X192863457Y-75097298D03*
%TD*%
D12*
%TO.P,U1,1,~{ENABLE}*%
%TO.N,unconnected-(U1-~{ENABLE}-Pad1)*%
X157715457Y-75732298D03*
D13*
%TO.P,U1,2,MS1*%
%TO.N,unconnected-(U1-MS1-Pad2)*%
X157715457Y-78272298D03*
%TO.P,U1,3,MS2*%
%TO.N,unconnected-(U1-MS2-Pad3)*%
X157715457Y-80812298D03*
%TO.P,U1,4,MS3*%
%TO.N,unconnected-(U1-MS3-Pad4)*%
X157715457Y-83352298D03*
%TO.P,U1,5,~{RESET}*%
%TO.N,Net-(U1-~{RESET})*%
X157715457Y-85892298D03*
%TO.P,U1,6,~{SLEEP}*%
X157715457Y-88432298D03*
%TO.P,U1,7,STEP*%
%TO.N,GPIO14*%
X157715457Y-90972298D03*
%TO.P,U1,8,DIR*%
%TO.N,GPIO15*%
X157715457Y-93512298D03*
%TO.P,U1,9,GND*%
%TO.N,GND*%
X170415457Y-93512298D03*
%TO.P,U1,10,VDD*%
%TO.N,Net-(U1-VDD)*%
X170415457Y-90972298D03*
%TO.P,U1,11,1B*%
%TO.N,Net-(J2-Pin_3)*%
X170415457Y-88432298D03*
%TO.P,U1,12,1A*%
%TO.N,Net-(J2-Pin_4)*%
X170415457Y-85892298D03*
%TO.P,U1,13,2A*%
%TO.N,Net-(J2-Pin_2)*%
X170415457Y-83352298D03*
%TO.P,U1,14,2B*%
%TO.N,Net-(J2-Pin_1)*%
X170415457Y-80812298D03*
%TO.P,U1,15,GND*%
%TO.N,GND*%
X170415457Y-78272298D03*
%TO.P,U1,16,VMOT*%
%TO.N,Net-(J6-Pin_2)*%
X170415457Y-75732298D03*
%TD*%
D14*
%TO.P,R1,1*%
%TO.N,Net-(J1-CC2)*%
X120854457Y-92497298D03*
%TO.P,R1,2*%
%TO.N,GND*%
X120854457Y-94147298D03*
%TD*%
D15*
%TO.P,SW2,2,2*%
%TO.N,GPIO0*%
X131014457Y-99227298D03*
%TO.P,SW2,1,1*%
%TO.N,GND*%
X126654457Y-99227298D03*
%TD*%
D16*
%TO.P,D3,1,K*%
%TO.N,GND*%
X125506457Y-77031298D03*
%TO.P,D3,2,A*%
%TO.N,Net-(D3-A)*%
X127081457Y-77031298D03*
%TD*%
D17*
%TO.P,C3,1*%
%TO.N,+3V3*%
X134318457Y-96153298D03*
%TO.P,C3,2*%
%TO.N,GND*%
X134318457Y-97703298D03*
%TD*%
D18*
%TO.P,J1,A1_B12,GND*%
%TO.N,GND*%
X122432457Y-81645298D03*
%TO.P,J1,A4_B9,VBUS*%
%TO.N,+5V*%
X122432457Y-82445298D03*
D19*
%TO.P,J1,A5,CC1*%
%TO.N,Net-(J1-CC1)*%
X122432457Y-83595298D03*
%TO.P,J1,A6,DP1*%
%TO.N,D+*%
X122432457Y-84595298D03*
%TO.P,J1,A7,DN1*%
%TO.N,D-*%
X122432457Y-85095298D03*
%TO.P,J1,A8,SBU1*%
%TO.N,unconnected-(J1-SBU1-PadA8)*%
X122432457Y-86095298D03*
D18*
%TO.P,J1,B1_A12,GND*%
%TO.N,GND*%
X122432457Y-88045298D03*
%TO.P,J1,B4_A9,VBUS*%
%TO.N,+5V*%
X122432457Y-87245298D03*
D19*
%TO.P,J1,B5,CC2*%
%TO.N,Net-(J1-CC2)*%
X122432457Y-86595298D03*
%TO.P,J1,B6,DP2*%
%TO.N,D+*%
X122432457Y-85595298D03*
%TO.P,J1,B7,DN2*%
%TO.N,D-*%
X122432457Y-84095298D03*
%TO.P,J1,B8,SBU2*%
%TO.N,unconnected-(J1-SBU2-PadB8)*%
X122432457Y-83095298D03*
D20*
%TO.P,J1,S1,SHIELD*%
%TO.N,GND*%
X121852457Y-80520298D03*
%TO.P,J1,S2,SHIELD*%
X121852457Y-89170298D03*
D21*
%TO.P,J1,S3,SHIELD*%
X117682457Y-80520298D03*
%TO.P,J1,S4,SHIELD*%
X117682457Y-89170298D03*
%TD*%
D16*
%TO.P,D2,1,K*%
%TO.N,GND*%
X125493957Y-78731298D03*
%TO.P,D2,2,A*%
%TO.N,Net-(D2-A)*%
X127068957Y-78731298D03*
%TD*%
D22*
%TO.P,U3,1,GND*%
%TO.N,GND*%
X130534457Y-88559298D03*
%TO.P,U3,2,VO*%
%TO.N,+3V3*%
X128234457Y-88559298D03*
D23*
X128234457Y-94859298D03*
D22*
%TO.P,U3,3,VI*%
%TO.N,+5V*%
X125934457Y-88559298D03*
%TD*%
D24*
%TO.P,C5,1*%
%TO.N,EN*%
X127056457Y-75431298D03*
%TO.P,C5,2*%
%TO.N,GND*%
X125506457Y-75431298D03*
%TD*%
D17*
%TO.P,C2,1*%
%TO.N,+3V3*%
X135918457Y-96153298D03*
%TO.P,C2,2*%
%TO.N,GND*%
X135918457Y-97703298D03*
%TD*%
D25*
%TO.P,R5,1*%
%TO.N,+3V3*%
X130506457Y-78731298D03*
%TO.P,R5,2*%
%TO.N,Net-(D2-A)*%
X128856457Y-78731298D03*
%TD*%
%TO.P,R6,1*%
%TO.N,GPIO21*%
X130518957Y-77031298D03*
%TO.P,R6,2*%
%TO.N,Net-(D3-A)*%
X128868957Y-77031298D03*
%TD*%
D15*
%TO.P,SW1,1,1*%
%TO.N,GND*%
X117806457Y-77510298D03*
%TO.P,SW1,2,2*%
%TO.N,EN*%
X122166457Y-77510298D03*
%TD*%
D26*
%TO.P,U2,1,GND*%
%TO.N,GND*%
X134062457Y-74335298D03*
%TO.P,U2,2,3V3*%
%TO.N,+3V3*%
X134062457Y-75605298D03*
%TO.P,U2,3,EN*%
%TO.N,EN*%
X134062457Y-76875298D03*
%TO.P,U2,4,GPIO4/TOUCH4/ADC1_CH3*%
%TO.N,GPIO4*%
X134062457Y-78145298D03*
%TO.P,U2,5,GPIO5/TOUCH5/ADC1_CH4*%
%TO.N,GPIO5*%
X134062457Y-79415298D03*
%TO.P,U2,6,GPIO6/TOUCH6/ADC1_CH5*%
%TO.N,GPIO6*%
X134062457Y-80685298D03*
%TO.P,U2,7,GPIO7/TOUCH7/ADC1_CH6*%
%TO.N,GPIO7*%
X134062457Y-81955298D03*
%TO.P,U2,8,GPIO15/U0RTS/ADC2_CH4/XTAL_32K_P*%
%TO.N,GPIO15*%
X134062457Y-83225298D03*
%TO.P,U2,9,GPIO16/U0CTS/ADC2_CH5/XTAL_32K_N*%
%TO.N,GPIO16*%
X134062457Y-84495298D03*
%TO.P,U2,10,GPIO17/U1TXD/ADC2_CH6*%
%TO.N,GPIO17*%
X134062457Y-85765298D03*
%TO.P,U2,11,GPIO18/U1RXD/ADC2_CH7/CLK_OUT3*%
%TO.N,GPIO18*%
X134062457Y-87035298D03*
%TO.P,U2,12,GPIO8/TOUCH8/ADC1_CH7/SUBSPICS1*%
%TO.N,GPIO8*%
X134062457Y-88305298D03*
%TO.P,U2,13,GPIO19/U1RTS/ADC2_CH8/CLK_OUT2/USB_D-*%
%TO.N,D-*%
X134062457Y-89575298D03*
%TO.P,U2,14,GPIO20/U1CTS/ADC2_CH9/CLK_OUT1/USB_D+*%
%TO.N,D+*%
X134062457Y-90845298D03*
D27*
%TO.P,U2,15,GPIO3/TOUCH3/ADC1_CH2*%
%TO.N,GPIO3*%
X135827457Y-92095298D03*
%TO.P,U2,16,GPIO46*%
%TO.N,GPIO46*%
X137097457Y-92095298D03*
%TO.P,U2,17,GPIO9/TOUCH9/ADC1_CH8/FSPIHD/SUBSPIHD*%
%TO.N,GPIO9*%
X138367457Y-92095298D03*
%TO.P,U2,18,GPIO10/TOUCH10/ADC1_CH9/FSPICS0/FSPIIO4/SUBSPICS0*%
%TO.N,GPIO10*%
X139637457Y-92095298D03*
%TO.P,U2,19,GPIO11/TOUCH11/ADC2_CH0/FSPID/FSPIIO5/SUBSPID*%
%TO.N,GPIO11*%
X140907457Y-92095298D03*
%TO.P,U2,20,GPIO12/TOUCH12/ADC2_CH1/FSPICLK/FSPIIO6/SUBSPICLK*%
%TO.N,GPIO12*%
X142177457Y-92095298D03*
%TO.P,U2,21,GPIO13/TOUCH13/ADC2_CH2/FSPIQ/FSPIIO7/SUBSPIQ*%
%TO.N,GPIO13*%
X143447457Y-92095298D03*
%TO.P,U2,22,GPIO14/TOUCH14/ADC2_CH3/FSPIWP/FSPIDQS/SUBSPIWP*%
%TO.N,GPIO14*%
X144717457Y-92095298D03*
%TO.P,U2,23,GPIO21*%
%TO.N,GPIO21*%
X145987457Y-92095298D03*
%TO.P,U2,24,GPIO47/SPICLK_P/SUBSPICLK_P_DIFF*%
%TO.N,GPIO47*%
X147257457Y-92095298D03*
%TO.P,U2,25,GPIO48/SPICLK_N/SUBSPICLK_N_DIFF*%
%TO.N,GPIO48*%
X148527457Y-92095298D03*
%TO.P,U2,26,GPIO45*%
%TO.N,GPIO45*%
X149797457Y-92095298D03*
D26*
%TO.P,U2,27,GPIO0/BOOT*%
%TO.N,GPIO0*%
X151562457Y-90845298D03*
%TO.P,U2,28,SPIIO6/GPIO35/FSPID/SUBSPID*%
%TO.N,GPIO35*%
X151562457Y-89575298D03*
%TO.P,U2,29,SPIIO7/GPIO36/FSPICLK/SUBSPICLK*%
%TO.N,GPIO36*%
X151562457Y-88305298D03*
%TO.P,U2,30,SPIDQS/GPIO37/FSPIQ/SUBSPIQ*%
%TO.N,GPIO37*%
X151562457Y-87035298D03*
%TO.P,U2,31,GPIO38/FSPIWP/SUBSPIWP*%
%TO.N,GPIO38*%
X151562457Y-85765298D03*
%TO.P,U2,32,MTCK/GPIO39/CLK_OUT3/SUBSPICS1*%
%TO.N,GPIO39*%
X151562457Y-84495298D03*
%TO.P,U2,33,MTDO/GPIO40/CLK_OUT2*%
%TO.N,GPIO40*%
X151562457Y-83225298D03*
%TO.P,U2,34,MTDI/GPIO41/CLK_OUT1*%
%TO.N,GPIO41*%
X151562457Y-81955298D03*
%TO.P,U2,35,MTMS/GPIO42*%
%TO.N,GPIO42*%
X151562457Y-80685298D03*
%TO.P,U2,36,U0RXD/GPIO44/CLK_OUT2*%
%TO.N,GPIO44*%
X151562457Y-79415298D03*
%TO.P,U2,37,U0TXD/GPIO43/CLK_OUT1*%
%TO.N,GPIO43*%
X151562457Y-78145298D03*
%TO.P,U2,38,GPIO2/TOUCH2/ADC1_CH1*%
%TO.N,GPIO2*%
X151562457Y-76875298D03*
%TO.P,U2,39,GPIO1/TOUCH1/ADC1_CH0*%
%TO.N,GPIO1*%
X151562457Y-75605298D03*
%TO.P,U2,40,GND*%
%TO.N,GND*%
X151562457Y-74335298D03*
D28*
%TO.P,U2,41,GND*%
X139912457Y-80655298D03*
X139912457Y-82055298D03*
X139912457Y-83455298D03*
X139912457Y-83455298D03*
X141312457Y-80655298D03*
X141312457Y-80655298D03*
X141312457Y-82055298D03*
X141312457Y-83455298D03*
X142712457Y-80655298D03*
X142712457Y-82055298D03*
X142712457Y-83455298D03*
%TD*%
D25*
%TO.P,R4,1*%
%TO.N,+5V*%
X130506457Y-80431298D03*
%TO.P,R4,2*%
%TO.N,Net-(D1-A)*%
X128856457Y-80431298D03*
%TD*%
D17*
%TO.P,C1,1*%
%TO.N,+3V3*%
X137618457Y-96153298D03*
%TO.P,C1,2*%
%TO.N,GND*%
X137618457Y-97703298D03*
%TD*%
D25*
%TO.P,R3,1*%
%TO.N,+3V3*%
X130506457Y-75431298D03*
%TO.P,R3,2*%
%TO.N,EN*%
X128856457Y-75431298D03*
%TD*%
D16*
%TO.P,D1,1,K*%
%TO.N,GND*%
X125481457Y-80431298D03*
%TO.P,D1,2,A*%
%TO.N,Net-(D1-A)*%
X127056457Y-80431298D03*
%TD*%
D14*
%TO.P,R2,1*%
%TO.N,Net-(J1-CC1)*%
X131014457Y-83353298D03*
%TO.P,R2,2*%
%TO.N,GND*%
X131014457Y-85003298D03*
%TD*%
D29*
%TO.P,C4,1*%
%TO.N,+5V*%
X118546457Y-93624298D03*
%TO.P,C4,2*%
%TO.N,GND*%
X118546457Y-92074298D03*
%TD*%
D30*
%TO.N,GND*%
X153366457Y-100497298D03*
%TO.N,GPIO48*%
X148413457Y-88898298D03*
X153366457Y-88178298D03*
X153874457Y-90506298D03*
X152942192Y-91396563D03*
X148527457Y-92095298D03*
%TO.N,GND*%
X126654457Y-99227298D03*
X130534457Y-88559298D03*
X132538457Y-85892298D03*
X195022457Y-77637298D03*
%TO.N,GPIO12*%
X142177457Y-92095298D03*
%TO.N,GPIO13*%
X143447457Y-92095298D03*
%TO.N,+5V*%
X140793457Y-95163298D03*
X125934457Y-88559298D03*
%TO.N,GPIO47*%
X155017457Y-94274298D03*
X147297222Y-92055533D03*
X152688192Y-94571563D03*
X153577192Y-92031563D03*
%TO.N,GPIO46*%
X139523457Y-96052298D03*
X137097457Y-92095298D03*
%TO.N,GPIO45*%
X153386692Y-95270063D03*
X149797457Y-92095298D03*
%TO.N,GPIO38*%
X159208457Y-95925298D03*
%TO.N,GPIO14*%
X144730457Y-90337298D03*
%TO.N,GPIO17*%
X140285457Y-86908298D03*
%TO.N,GPIO15*%
X137491457Y-85130298D03*
%TO.N,GPIO18*%
X134062457Y-87035298D03*
X155144457Y-74335298D03*
%TO.N,GPIO21*%
X136221457Y-80939298D03*
X131903457Y-78653298D03*
%TO.N,GND*%
X151562457Y-74335298D03*
X134062457Y-74335298D03*
X141312457Y-82055298D03*
X139912457Y-83455298D03*
X142712457Y-80655298D03*
X142712457Y-83455298D03*
X139912457Y-80655298D03*
%TO.N,Net-(J1-CC2)*%
X123902457Y-86645298D03*
X124029457Y-87845298D03*
%TO.N,+3V3*%
X133935457Y-75605298D03*
X130506457Y-75431298D03*
X129109457Y-86195298D03*
X130506457Y-78731298D03*
%TO.N,EN*%
X134062457Y-76875298D03*
%TO.N,+5V*%
X130506457Y-80431298D03*
%TO.N,D+*%
X123521457Y-84495298D03*
X123775457Y-85695298D03*
%TO.N,GND*%
X126481457Y-81631298D03*
%TO.N,EN*%
X126281457Y-74431298D03*
%TD*%
D31*
%TO.N,EN*%
X123086457Y-74431298D02*
X123648457Y-74431298D01*
X122166457Y-77510298D02*
X122166457Y-75913298D01*
X122166457Y-75913298D02*
X123648457Y-74431298D01*
%TO.N,Net-(U4-~{RESET})*%
X176861457Y-84495298D02*
X176861457Y-83860298D01*
X180163457Y-87797298D02*
X176861457Y-84495298D01*
X176861457Y-83860298D02*
X178766457Y-83860298D01*
X178766457Y-83860298D02*
X180163457Y-85257298D01*
%TO.N,Net-(U1-~{RESET})*%
X154636457Y-85892298D02*
X154636457Y-87162298D01*
X154636457Y-87162298D02*
X155906457Y-88432298D01*
X155906457Y-88432298D02*
X157715457Y-88432298D01*
X154636457Y-85892298D02*
X154509457Y-85765298D01*
X157715457Y-85892298D02*
X154636457Y-85892298D01*
%TO.N,GPIO48*%
X153874457Y-90506298D02*
X153366457Y-89998298D01*
X153366457Y-89998298D02*
X153366457Y-88178298D01*
X148413457Y-88898298D02*
X148527457Y-89012298D01*
X148527457Y-89012298D02*
X148527457Y-92095298D01*
X151969457Y-93547298D02*
X148527457Y-93547298D01*
X151969457Y-93547298D02*
X151969457Y-92369298D01*
X151969457Y-92369298D02*
X152942192Y-91396563D01*
%TO.N,GND*%
X122432457Y-88045298D02*
X122432457Y-88590298D01*
X122432457Y-88590298D02*
X121852457Y-89170298D01*
X168376181Y-88964022D02*
X169973905Y-87366298D01*
X154543457Y-74086355D02*
X154895564Y-73734248D01*
X168376181Y-88964022D02*
X168376181Y-86393022D01*
X168376181Y-86393022D02*
X158781457Y-76798298D01*
X158781457Y-76798298D02*
X156757514Y-76798298D01*
X156757514Y-76798298D02*
X154543457Y-74584241D01*
X154543457Y-74584241D02*
X154543457Y-74086355D01*
X154895564Y-73734248D02*
X165877407Y-73734248D01*
X165877407Y-73734248D02*
X170415457Y-78272298D01*
X165939457Y-101894298D02*
X165939457Y-91400746D01*
X165939457Y-91400746D02*
X168376181Y-88964022D01*
X169973905Y-87366298D02*
X170857009Y-87366298D01*
X170857009Y-87366298D02*
X171481457Y-87990746D01*
X171481457Y-87990746D02*
X171481457Y-92446298D01*
X171481457Y-92446298D02*
X170415457Y-93512298D01*
X192863457Y-92877298D02*
X192863457Y-95583538D01*
X192863457Y-95583538D02*
X193760457Y-96480538D01*
X193760457Y-96480538D02*
X193760457Y-97672058D01*
X193760457Y-97672058D02*
X190689217Y-100743298D01*
X167090457Y-100743298D02*
X165939457Y-101894298D01*
X190689217Y-100743298D02*
X167090457Y-100743298D01*
X195022457Y-77637298D02*
X192863457Y-77637298D01*
%TO.N,+5V*%
X144857457Y-95163298D02*
X140793457Y-95163298D01*
X147778457Y-98084298D02*
X144857457Y-95163298D01*
%TO.N,GPIO47*%
X149906217Y-104188298D02*
X150580457Y-103514058D01*
X150580457Y-103514058D02*
X150580457Y-100648298D01*
X146889457Y-103037298D02*
X148040457Y-104188298D01*
X155017457Y-94274298D02*
X153577192Y-92834033D01*
X149048457Y-96615298D02*
X151092192Y-94571563D01*
X153577192Y-92834033D02*
X153577192Y-92031563D01*
X151092192Y-94571563D02*
X152688192Y-94571563D01*
X149048457Y-99116298D02*
X149048457Y-96615298D01*
X150580457Y-100648298D02*
X149048457Y-99116298D01*
X148040457Y-104188298D02*
X149906217Y-104188298D01*
%TO.N,GPIO46*%
X143849457Y-97607538D02*
X142294217Y-96052298D01*
X143849457Y-98323058D02*
X143849457Y-97607538D01*
X142294217Y-96052298D02*
X139523457Y-96052298D01*
X148563697Y-103037298D02*
X143849457Y-98323058D01*
X149429457Y-103037298D02*
X148563697Y-103037298D01*
%TO.N,GPIO45*%
X151969457Y-96687298D02*
X153386692Y-95270063D01*
X151969457Y-103037298D02*
X151969457Y-96687298D01*
%TO.N,GPIO38*%
X158157009Y-92446298D02*
X159208457Y-93497746D01*
X157634457Y-92446298D02*
X158157009Y-92446298D01*
X156649457Y-91461298D02*
X157634457Y-92446298D01*
X159208457Y-93497746D02*
X159208457Y-95925298D01*
X156649457Y-89902298D02*
X156649457Y-91461298D01*
X152512457Y-85765298D02*
X156649457Y-89902298D01*
X151562457Y-85765298D02*
X152512457Y-85765298D01*
%TO.N,GPIO37*%
X154509457Y-98084298D02*
X155660457Y-99235298D01*
X155660457Y-99235298D02*
X157526217Y-99235298D01*
X157526217Y-99235298D02*
X158200457Y-98561058D01*
X158200457Y-98561058D02*
X158200457Y-95806298D01*
X158200457Y-95806298D02*
X152613457Y-90219298D01*
X152094457Y-87035298D02*
X151562457Y-87035298D01*
X152613457Y-90219298D02*
X152613457Y-87554298D01*
X152613457Y-87554298D02*
X152094457Y-87035298D01*
%TO.N,GPIO48*%
X157049457Y-98084298D02*
X152512457Y-93547298D01*
X152512457Y-93547298D02*
X151969457Y-93547298D01*
%TO.N,GPIO41*%
X160351457Y-97322298D02*
X160351457Y-85257298D01*
X159589457Y-98084298D02*
X160351457Y-97322298D01*
X160351457Y-85257298D02*
X159716457Y-84622298D01*
X152094457Y-81955298D02*
X151562457Y-81955298D01*
X159716457Y-84622298D02*
X154761457Y-84622298D01*
X154761457Y-84622298D02*
X152094457Y-81955298D01*
%TO.N,GPIO42*%
X162129457Y-98084298D02*
X162129457Y-86258746D01*
X162129457Y-86258746D02*
X157749009Y-81878298D01*
X157749009Y-81878298D02*
X153705457Y-81878298D01*
X153705457Y-81878298D02*
X152512457Y-80685298D01*
X152512457Y-80685298D02*
X151562457Y-80685298D01*
%TO.N,GPIO14*%
X144717457Y-92095298D02*
X144717457Y-90350298D01*
X144717457Y-90350298D02*
X144730457Y-90337298D01*
%TO.N,GPIO17*%
X139142457Y-85765298D02*
X140285457Y-86908298D01*
X134062457Y-85765298D02*
X139142457Y-85765298D01*
%TO.N,GPIO15*%
X135586457Y-83225298D02*
X137491457Y-85130298D01*
X134062457Y-83225298D02*
X135586457Y-83225298D01*
%TO.N,*%
X142317457Y-75732298D02*
X142317457Y-75859298D01*
X142063457Y-76113298D02*
X142317457Y-75859298D01*
%TO.N,GPIO21*%
X136221457Y-80939298D02*
X139161457Y-83879298D01*
X139161457Y-83879298D02*
X139161457Y-84206298D01*
X139161457Y-84206298D02*
X139488457Y-84206298D01*
X139488457Y-84206298D02*
X145746457Y-90464298D01*
X145746457Y-90464298D02*
X145746457Y-91854298D01*
X145746457Y-91854298D02*
X145987457Y-92095298D01*
%TO.N,GPIO18*%
X181229457Y-89895746D02*
X180605009Y-89271298D01*
X171481457Y-81253850D02*
X171481457Y-80370746D01*
X158450457Y-74335298D02*
X155144457Y-74335298D01*
X171481457Y-80370746D02*
X170857009Y-79746298D01*
X170857009Y-79746298D02*
X163861457Y-79746298D01*
X163861457Y-79746298D02*
X158450457Y-74335298D01*
X180163457Y-92877298D02*
X181229457Y-91811298D01*
X180605009Y-89271298D02*
X179498905Y-89271298D01*
X179498905Y-89271298D02*
X171481457Y-81253850D01*
X181229457Y-91811298D02*
X181229457Y-89895746D01*
%TO.N,Net-(J3-Pin_3)*%
X192863457Y-87797298D02*
X191797457Y-88863298D01*
X191797457Y-88863298D02*
X191797457Y-96383298D01*
X191797457Y-96383298D02*
X192609457Y-97195298D01*
%TO.N,Net-(J3-Pin_4)*%
X192863457Y-85257298D02*
X193929457Y-86323298D01*
X193929457Y-86323298D02*
X193929457Y-95975298D01*
X193929457Y-95975298D02*
X195149457Y-97195298D01*
%TO.N,Net-(J3-Pin_2)*%
X192863457Y-82717298D02*
X188680457Y-86900298D01*
X188680457Y-86900298D02*
X188680457Y-95806298D01*
X188680457Y-95806298D02*
X190069457Y-97195298D01*
%TO.N,Net-(J3-Pin_1)*%
X192863457Y-80177298D02*
X187529457Y-85511298D01*
X187529457Y-85511298D02*
X187529457Y-97195298D01*
%TO.N,Net-(J2-Pin_3)*%
X170415457Y-88432298D02*
X169349457Y-89498298D01*
X169349457Y-89498298D02*
X169349457Y-96391058D01*
X169349457Y-96391058D02*
X171558697Y-98600298D01*
X171558697Y-98600298D02*
X173424457Y-98600298D01*
X173424457Y-98600298D02*
X174575457Y-97449298D01*
%TO.N,Net-(J2-Pin_4)*%
X170415457Y-85892298D02*
X172035457Y-87512298D01*
X172035457Y-87512298D02*
X172035457Y-97449298D01*
%TO.N,Net-(J2-Pin_2)*%
X170415457Y-83352298D02*
X177115457Y-90052298D01*
X177115457Y-90052298D02*
X177115457Y-97449298D01*
%TO.N,Net-(J2-Pin_1)*%
X170415457Y-80812298D02*
X179097457Y-89494298D01*
X179097457Y-89494298D02*
X179097457Y-96891298D01*
X179097457Y-96891298D02*
X179655457Y-97449298D01*
%TO.N,Net-(J6-Pin_2)*%
X192863457Y-75097298D02*
X191797457Y-74031298D01*
X191797457Y-74031298D02*
X170942457Y-74031298D01*
X170942457Y-74031298D02*
X170415457Y-74558298D01*
X170415457Y-74558298D02*
X170415457Y-75732298D01*
%TO.N,GPIO0*%
X138394457Y-96602408D02*
X138394457Y-96292298D01*
X138092567Y-96904298D02*
X138394457Y-96602408D01*
X137782457Y-96904298D02*
X138092567Y-96904298D01*
X137734457Y-96952298D02*
X137782457Y-96904298D01*
X138394457Y-97254188D02*
X138092567Y-96952298D01*
X150500457Y-91044298D02*
X150699457Y-90845298D01*
X138092567Y-96952298D02*
X137734457Y-96952298D01*
X138394457Y-98152408D02*
X138394457Y-97254188D01*
X141540457Y-93146298D02*
X150548457Y-93146298D01*
X138104012Y-98442853D02*
X138394457Y-98152408D01*
X138888457Y-99227298D02*
X138104012Y-98442853D01*
X150548457Y-93146298D02*
X150548457Y-91044298D01*
X138394457Y-96292298D02*
X141540457Y-93146298D01*
X131014457Y-99227298D02*
X138888457Y-99227298D01*
X150548457Y-91044298D02*
X150500457Y-91044298D01*
X150699457Y-90845298D02*
X151562457Y-90845298D01*
%TO.N,GND*%
X122432457Y-81645298D02*
X122432457Y-81100298D01*
X122432457Y-81100298D02*
X121852457Y-80520298D01*
X122432457Y-81645298D02*
X124267457Y-81645298D01*
X124267457Y-81645298D02*
X125481457Y-80431298D01*
%TO.N,GPIO21*%
X131699457Y-78211798D02*
X131699457Y-78449298D01*
X131699457Y-78449298D02*
X131903457Y-78653298D01*
%TO.N,+5V*%
X118546457Y-93624298D02*
X119322457Y-92848298D01*
X119322457Y-92848298D02*
X119322457Y-88854645D01*
X119322457Y-88854645D02*
X121092804Y-87084298D01*
X121092804Y-87084298D02*
X122271457Y-87084298D01*
X122271457Y-87084298D02*
X122432457Y-87245298D01*
%TO.N,Net-(J1-CC2)*%
X123902457Y-86645298D02*
X122482457Y-86645298D01*
X122482457Y-86645298D02*
X122432457Y-86595298D01*
X120854457Y-92497298D02*
X124029457Y-89322298D01*
X124029457Y-89322298D02*
X124029457Y-87845298D01*
%TO.N,+3V3*%
X134062457Y-75605298D02*
X133935457Y-75605298D01*
X128234457Y-94859298D02*
X131472457Y-94859298D01*
X131472457Y-94859298D02*
X132766457Y-96153298D01*
X132766457Y-96153298D02*
X137618457Y-96153298D01*
X128234457Y-94859298D02*
X128234457Y-88559298D01*
X128234457Y-87070298D02*
X129109457Y-86195298D01*
X128234457Y-88559298D02*
X128234457Y-87070298D01*
%TO.N,EN*%
X128856457Y-75431298D02*
X130606457Y-73681298D01*
X130606457Y-73681298D02*
X131373557Y-73681298D01*
X131373557Y-73681298D02*
X133011457Y-75319198D01*
X133011457Y-75319198D02*
X133011457Y-76774298D01*
X133011457Y-76774298D02*
X133112457Y-76875298D01*
X133112457Y-76875298D02*
X134062457Y-76875298D01*
X122166457Y-75351298D02*
X123086457Y-74431298D01*
X123648457Y-74431298D02*
X126281457Y-74431298D01*
%TO.N,+5V*%
X122432457Y-82445298D02*
X128967457Y-82445298D01*
X128967457Y-82445298D02*
X130506457Y-80906298D01*
X130506457Y-80906298D02*
X130506457Y-80431298D01*
X122432457Y-82445298D02*
X121888457Y-82445298D01*
X121888457Y-82445298D02*
X121160457Y-83173298D01*
X121160457Y-83173298D02*
X121160457Y-86607298D01*
X121160457Y-86607298D02*
X121798457Y-87245298D01*
X121798457Y-87245298D02*
X122432457Y-87245298D01*
X122432457Y-87245298D02*
X124964449Y-87245298D01*
X124964449Y-87245298D02*
X125934457Y-88215306D01*
X125934457Y-88215306D02*
X125934457Y-88559298D01*
%TO.N,D+*%
X123421457Y-84595298D02*
X123521457Y-84495298D01*
X122432457Y-84595298D02*
X123421457Y-84595298D01*
X122432457Y-85595298D02*
X129526465Y-85595298D01*
X132264457Y-89579298D02*
X133530457Y-90845298D01*
X129526465Y-85595298D02*
X132264457Y-88333290D01*
X132264457Y-88333290D02*
X132264457Y-89579298D01*
X133530457Y-90845298D02*
X134062457Y-90845298D01*
%TO.N,D-*%
X122432457Y-85095298D02*
X121610457Y-85095298D01*
X121610457Y-85095298D02*
X121561457Y-85046298D01*
X121561457Y-85046298D02*
X121561457Y-84144298D01*
X121610457Y-84095298D02*
X122432457Y-84095298D01*
X121561457Y-84144298D02*
X121610457Y-84095298D01*
X132665457Y-88734290D02*
X132665457Y-87416298D01*
X133506465Y-89575298D02*
X132665457Y-88734290D01*
X132665457Y-87416298D02*
X132238393Y-87416298D01*
X134062457Y-89575298D02*
X133506465Y-89575298D01*
X132238393Y-87416298D02*
X129917393Y-85095298D01*
X129917393Y-85095298D02*
X122432457Y-85095298D01*
%TO.N,Net-(J1-CC1)*%
X122432457Y-83595298D02*
X130772457Y-83595298D01*
X130772457Y-83595298D02*
X131014457Y-83353298D01*
%TO.N,GND*%
X125506457Y-75431298D02*
X125506457Y-80406298D01*
X125481457Y-80631298D02*
X126481457Y-81631298D01*
X125506457Y-80406298D02*
X125481457Y-80431298D01*
X125481457Y-80431298D02*
X125481457Y-80631298D01*
D32*
%TO.N,+3V3*%
X129705457Y-80960782D02*
X129705457Y-79532298D01*
X129681457Y-76256298D02*
X129681457Y-77906298D01*
X129681457Y-77906298D02*
X130506457Y-78731298D01*
X130506457Y-75431298D02*
X129681457Y-76256298D01*
X129705457Y-79532298D02*
X130506457Y-78731298D01*
D31*
%TO.N,EN*%
X127056457Y-75431298D02*
X128856457Y-75431298D01*
X127056457Y-75431298D02*
X127056457Y-75206298D01*
X127056457Y-75206298D02*
X126281457Y-74431298D01*
%TO.N,GPIO21*%
X130518957Y-77031298D02*
X131207457Y-76342798D01*
X130518957Y-77031298D02*
X131699457Y-78211798D01*
X131207457Y-76342798D02*
X131207457Y-74082298D01*
D32*
%TO.N,Net-(D1-A)*%
X128856457Y-80431298D02*
X128856457Y-80556298D01*
D31*
X127056457Y-80431298D02*
X128856457Y-80431298D01*
%TO.N,Net-(D2-A)*%
X127068957Y-78731298D02*
X128856457Y-78731298D01*
%TO.N,Net-(D3-A)*%
X127081457Y-77031298D02*
X128868957Y-77031298D01*
%TD*%
%TA.AperFunction,Conductor*%
%TO.N,GND*%
G36*
X171469874Y-94213161D02*
G01*
X171469875Y-94213161D01*
X171497383Y-94175301D01*
X171497383Y-94175300D01*
X171500472Y-94169239D01*
X171548446Y-94118443D01*
X171616266Y-94101647D01*
X171682402Y-94124184D01*
X171725854Y-94178898D01*
X171734957Y-94225533D01*
X171734957Y-96353861D01*
X171715272Y-96420900D01*
X171662468Y-96466655D01*
X171658410Y-96468422D01*
X171537861Y-96518355D01*
X171365799Y-96633322D01*
X171219481Y-96779640D01*
X171104515Y-96951701D01*
X171025327Y-97142877D01*
X171025325Y-97142883D01*
X170987782Y-97331625D01*
X170955397Y-97393536D01*
X170894681Y-97428110D01*
X170824912Y-97424370D01*
X170778484Y-97395114D01*
X169686276Y-96302906D01*
X169652791Y-96241583D01*
X169649957Y-96215225D01*
X169649957Y-94744349D01*
X169669642Y-94677310D01*
X169722446Y-94631555D01*
X169791604Y-94621611D01*
X169830252Y-94633865D01*
X169929856Y-94684616D01*
X169929858Y-94684617D01*
X170119234Y-94746150D01*
X170315894Y-94777298D01*
X170515020Y-94777298D01*
X170711679Y-94746150D01*
X170901051Y-94684618D01*
X171078462Y-94594222D01*
X171116320Y-94566716D01*
X171116320Y-94566715D01*
X170553031Y-94003426D01*
X170612310Y-93987543D01*
X170728604Y-93920400D01*
X170823559Y-93825445D01*
X170890702Y-93709151D01*
X170906585Y-93649872D01*
X171469874Y-94213161D01*
G37*
%TD.AperFunction*%
%TA.AperFunction,Conductor*%
G36*
X130318663Y-73331483D02*
G01*
X130364418Y-73384287D01*
X130374362Y-73453445D01*
X130345337Y-73517001D01*
X130339305Y-73523479D01*
X129143303Y-74719479D01*
X129081980Y-74752964D01*
X129055622Y-74755798D01*
X128624939Y-74755798D01*
X128543976Y-74768621D01*
X128531153Y-74770652D01*
X128418115Y-74828248D01*
X128418114Y-74828249D01*
X128418109Y-74828252D01*
X128328411Y-74917950D01*
X128328408Y-74917955D01*
X128270809Y-75030996D01*
X128267794Y-75040278D01*
X128265282Y-75039461D01*
X128241637Y-75089335D01*
X128182323Y-75126264D01*
X128149097Y-75130798D01*
X127808114Y-75130798D01*
X127741075Y-75111113D01*
X127695320Y-75058309D01*
X127692011Y-75049811D01*
X127687154Y-75040278D01*
X127629985Y-74928078D01*
X127629981Y-74928074D01*
X127629980Y-74928072D01*
X127534682Y-74832774D01*
X127534678Y-74832771D01*
X127534677Y-74832770D01*
X127414583Y-74771579D01*
X127414581Y-74771578D01*
X127414578Y-74771577D01*
X127314950Y-74755798D01*
X127314945Y-74755798D01*
X127082290Y-74755798D01*
X127052849Y-74747153D01*
X127022863Y-74740630D01*
X127017847Y-74736875D01*
X127015251Y-74736113D01*
X126994609Y-74719479D01*
X126818276Y-74543146D01*
X126784791Y-74481823D01*
X126781957Y-74455465D01*
X126781957Y-74365408D01*
X126781957Y-74365406D01*
X126747849Y-74238112D01*
X126681957Y-74123984D01*
X126588771Y-74030798D01*
X126511056Y-73985929D01*
X126474644Y-73964906D01*
X126389958Y-73942215D01*
X126347349Y-73930798D01*
X126215565Y-73930798D01*
X126088269Y-73964906D01*
X125974143Y-74030798D01*
X125974140Y-74030800D01*
X125910462Y-74094479D01*
X125849139Y-74127964D01*
X125822781Y-74130798D01*
X123688019Y-74130798D01*
X123046895Y-74130798D01*
X123016324Y-74138989D01*
X122970465Y-74151277D01*
X122970464Y-74151278D01*
X122919488Y-74180710D01*
X122919487Y-74180711D01*
X122901947Y-74190837D01*
X122901944Y-74190839D01*
X121925996Y-75166787D01*
X121886436Y-75235309D01*
X121886436Y-75235310D01*
X121865957Y-75311736D01*
X121865957Y-75390860D01*
X121882415Y-75452280D01*
X121886436Y-75467285D01*
X121886436Y-75467286D01*
X121925996Y-75535808D01*
X121925999Y-75535811D01*
X121934807Y-75544620D01*
X121968290Y-75605944D01*
X121963303Y-75675636D01*
X121934807Y-75719976D01*
X121925999Y-75728784D01*
X121925992Y-75728793D01*
X121886439Y-75797302D01*
X121886436Y-75797307D01*
X121865957Y-75873737D01*
X121865957Y-76505798D01*
X121846272Y-76572837D01*
X121793468Y-76618592D01*
X121741957Y-76629798D01*
X121531704Y-76629798D01*
X121473227Y-76641429D01*
X121473226Y-76641430D01*
X121406904Y-76685745D01*
X121362589Y-76752067D01*
X121362588Y-76752068D01*
X121350957Y-76810545D01*
X121350957Y-78210050D01*
X121362588Y-78268527D01*
X121362589Y-78268528D01*
X121406904Y-78334850D01*
X121473226Y-78379165D01*
X121473227Y-78379166D01*
X121531704Y-78390797D01*
X121531707Y-78390798D01*
X121531709Y-78390798D01*
X122801207Y-78390798D01*
X122801208Y-78390797D01*
X122819052Y-78387248D01*
X122859686Y-78379166D01*
X122859686Y-78379165D01*
X122859688Y-78379165D01*
X122926009Y-78334850D01*
X122970324Y-78268529D01*
X122970324Y-78268527D01*
X122970325Y-78268527D01*
X122981956Y-78210050D01*
X122981957Y-78210048D01*
X122981957Y-76810547D01*
X122981956Y-76810545D01*
X122970325Y-76752068D01*
X122970324Y-76752067D01*
X122926009Y-76685745D01*
X122859687Y-76641430D01*
X122859686Y-76641429D01*
X122801209Y-76629798D01*
X122801205Y-76629798D01*
X122590957Y-76629798D01*
X122523918Y-76610113D01*
X122478163Y-76557309D01*
X122466957Y-76505798D01*
X122466957Y-76089131D01*
X122486642Y-76022092D01*
X122503276Y-76001450D01*
X122775106Y-75729620D01*
X124556458Y-75729620D01*
X124566601Y-75828905D01*
X124619909Y-75989779D01*
X124619914Y-75989790D01*
X124708881Y-76134026D01*
X124708884Y-76134030D01*
X124722890Y-76148036D01*
X124756375Y-76209359D01*
X124751391Y-76279051D01*
X124722896Y-76323393D01*
X124720070Y-76326218D01*
X124631865Y-76469220D01*
X124631863Y-76469225D01*
X124579014Y-76628714D01*
X124568957Y-76727147D01*
X124568957Y-76781298D01*
X125256457Y-76781298D01*
X125256457Y-75681298D01*
X124556458Y-75681298D01*
X124556458Y-75729620D01*
X122775106Y-75729620D01*
X123736609Y-74768117D01*
X123797932Y-74734632D01*
X123824290Y-74731798D01*
X124494918Y-74731798D01*
X124561957Y-74751483D01*
X124607712Y-74804287D01*
X124617656Y-74873445D01*
X124612624Y-74894802D01*
X124566601Y-75033690D01*
X124556457Y-75132975D01*
X124556457Y-75181298D01*
X125382457Y-75181298D01*
X125449496Y-75200983D01*
X125495251Y-75253787D01*
X125506457Y-75305298D01*
X125506457Y-75431298D01*
X125632457Y-75431298D01*
X125699496Y-75450983D01*
X125745251Y-75503787D01*
X125756457Y-75555298D01*
X125756457Y-78072436D01*
X125743957Y-78115005D01*
X125743957Y-79772436D01*
X125731457Y-79815005D01*
X125731457Y-81406297D01*
X125748093Y-81406297D01*
X125748109Y-81406296D01*
X125846540Y-81396241D01*
X126006029Y-81343391D01*
X126006034Y-81343389D01*
X126149037Y-81255183D01*
X126267844Y-81136376D01*
X126347949Y-81006505D01*
X126399897Y-80959780D01*
X126468859Y-80948557D01*
X126532941Y-80976400D01*
X126541169Y-80983920D01*
X126588200Y-81030951D01*
X126588202Y-81030952D01*
X126588206Y-81030956D01*
X126706537Y-81091249D01*
X126706538Y-81091249D01*
X126706540Y-81091250D01*
X126706539Y-81091250D01*
X126804706Y-81106798D01*
X126804711Y-81106798D01*
X127308208Y-81106798D01*
X127406374Y-81091250D01*
X127406375Y-81091249D01*
X127406377Y-81091249D01*
X127524708Y-81030956D01*
X127618615Y-80937049D01*
X127678908Y-80818718D01*
X127678909Y-80818709D01*
X127679309Y-80817481D01*
X127680207Y-80816167D01*
X127683338Y-80810023D01*
X127684131Y-80810427D01*
X127718746Y-80759805D01*
X127783104Y-80732606D01*
X127797241Y-80731798D01*
X128149097Y-80731798D01*
X128216136Y-80751483D01*
X128261891Y-80804287D01*
X128267368Y-80822455D01*
X128267794Y-80822317D01*
X128270809Y-80831598D01*
X128270810Y-80831601D01*
X128270811Y-80831602D01*
X128328407Y-80944640D01*
X128328409Y-80944642D01*
X128328411Y-80944645D01*
X128418109Y-81034343D01*
X128418111Y-81034344D01*
X128418115Y-81034348D01*
X128525236Y-81088929D01*
X128531155Y-81091945D01*
X128624932Y-81106797D01*
X128624938Y-81106798D01*
X129087975Y-81106797D01*
X129181761Y-81091944D01*
X129182744Y-81091442D01*
X129184067Y-81091194D01*
X129191039Y-81088929D01*
X129191331Y-81089829D01*
X129251413Y-81078545D01*
X129316154Y-81104820D01*
X129346426Y-81139922D01*
X129384977Y-81206695D01*
X129459544Y-81281262D01*
X129476172Y-81290862D01*
X129524387Y-81341426D01*
X129537611Y-81410033D01*
X129511644Y-81474898D01*
X129501853Y-81485929D01*
X128879305Y-82108479D01*
X128817982Y-82141964D01*
X128791624Y-82144798D01*
X123624197Y-82144798D01*
X123557158Y-82125113D01*
X123511403Y-82072309D01*
X123500907Y-82007543D01*
X123502456Y-81993126D01*
X123502457Y-81993125D01*
X123502457Y-81895298D01*
X122556457Y-81895298D01*
X122489418Y-81875613D01*
X122443663Y-81822809D01*
X122432457Y-81771298D01*
X122432457Y-81519298D01*
X122452142Y-81452259D01*
X122504946Y-81406504D01*
X122556457Y-81395298D01*
X123502457Y-81395298D01*
X123502457Y-81297470D01*
X123502456Y-81297453D01*
X123496055Y-81237925D01*
X123496053Y-81237918D01*
X123445811Y-81103211D01*
X123445809Y-81103208D01*
X123392659Y-81032209D01*
X123368241Y-80966744D01*
X123377365Y-80910442D01*
X123412105Y-80826575D01*
X123412106Y-80826572D01*
X123423300Y-80770298D01*
X122569445Y-80770298D01*
X122586662Y-80760358D01*
X122611570Y-80735450D01*
X124543958Y-80735450D01*
X124554013Y-80833881D01*
X124606863Y-80993370D01*
X124606865Y-80993375D01*
X124695071Y-81136378D01*
X124813876Y-81255183D01*
X124956879Y-81343389D01*
X124956884Y-81343391D01*
X125116373Y-81396240D01*
X125214813Y-81406297D01*
X125231457Y-81406296D01*
X125231457Y-80681298D01*
X124543958Y-80681298D01*
X124543958Y-80735450D01*
X122611570Y-80735450D01*
X122642517Y-80704503D01*
X122682013Y-80636094D01*
X122702457Y-80559794D01*
X122702457Y-80480802D01*
X122682013Y-80404502D01*
X122642517Y-80336093D01*
X122586662Y-80280238D01*
X122569445Y-80270298D01*
X123423300Y-80270298D01*
X123412106Y-80214024D01*
X123394472Y-80171452D01*
X123394471Y-80171450D01*
X123376120Y-80127147D01*
X124543957Y-80127147D01*
X124543957Y-80181298D01*
X125231457Y-80181298D01*
X125231457Y-79390160D01*
X125243957Y-79347590D01*
X125243957Y-78981298D01*
X124556458Y-78981298D01*
X124556458Y-79035450D01*
X124566513Y-79133881D01*
X124619363Y-79293370D01*
X124619365Y-79293375D01*
X124707571Y-79436378D01*
X124758559Y-79487366D01*
X124792044Y-79548689D01*
X124787060Y-79618381D01*
X124758561Y-79662727D01*
X124695069Y-79726219D01*
X124606865Y-79869220D01*
X124606863Y-79869225D01*
X124554014Y-80028714D01*
X124543957Y-80127147D01*
X123376120Y-80127147D01*
X123332956Y-80022938D01*
X123332951Y-80022929D01*
X123218046Y-79850962D01*
X123218043Y-79850958D01*
X123071796Y-79704711D01*
X123071792Y-79704708D01*
X122899825Y-79589803D01*
X122899815Y-79589798D01*
X122708731Y-79510648D01*
X122708723Y-79510646D01*
X122505877Y-79470298D01*
X122102457Y-79470298D01*
X122102457Y-80220298D01*
X121602457Y-80220298D01*
X121602457Y-79470298D01*
X121199036Y-79470298D01*
X120996190Y-79510646D01*
X120996182Y-79510648D01*
X120805098Y-79589798D01*
X120805088Y-79589803D01*
X120633121Y-79704708D01*
X120633117Y-79704711D01*
X120486870Y-79850958D01*
X120486867Y-79850962D01*
X120371962Y-80022929D01*
X120371957Y-80022939D01*
X120292808Y-80214021D01*
X120292807Y-80214023D01*
X120281614Y-80270298D01*
X121135469Y-80270298D01*
X121118252Y-80280238D01*
X121062397Y-80336093D01*
X121022901Y-80404502D01*
X121002457Y-80480802D01*
X121002457Y-80559794D01*
X121022901Y-80636094D01*
X121062397Y-80704503D01*
X121118252Y-80760358D01*
X121135469Y-80770298D01*
X120281614Y-80770298D01*
X120292807Y-80826572D01*
X120292808Y-80826574D01*
X120371957Y-81017656D01*
X120371962Y-81017666D01*
X120486867Y-81189633D01*
X120486870Y-81189637D01*
X120633117Y-81335884D01*
X120633121Y-81335887D01*
X120805088Y-81450792D01*
X120805101Y-81450799D01*
X120846334Y-81467878D01*
X120900738Y-81511718D01*
X120922803Y-81578012D01*
X120906269Y-81644439D01*
X120849474Y-81742809D01*
X120849473Y-81742813D01*
X120811957Y-81882823D01*
X120811957Y-82027773D01*
X120849473Y-82167783D01*
X120849474Y-82167786D01*
X120921945Y-82293309D01*
X120921947Y-82293311D01*
X120921948Y-82293313D01*
X121024442Y-82395807D01*
X121024443Y-82395808D01*
X121024445Y-82395809D01*
X121149968Y-82468280D01*
X121149969Y-82468280D01*
X121149972Y-82468282D01*
X121171651Y-82474091D01*
X121231310Y-82510455D01*
X121261839Y-82573302D01*
X121253544Y-82642678D01*
X121227237Y-82681546D01*
X120975946Y-82932838D01*
X120919998Y-82988785D01*
X120919992Y-82988793D01*
X120880439Y-83057302D01*
X120880436Y-83057307D01*
X120866783Y-83108260D01*
X120859957Y-83133736D01*
X120859957Y-86646860D01*
X120872524Y-86693761D01*
X120880436Y-86723288D01*
X120887183Y-86734974D01*
X120903654Y-86802875D01*
X120880802Y-86868901D01*
X120867476Y-86884654D01*
X119146327Y-88605803D01*
X119085004Y-88639288D01*
X119015312Y-88634304D01*
X118959379Y-88592432D01*
X118955544Y-88587013D01*
X118898046Y-88500962D01*
X118898043Y-88500958D01*
X118751796Y-88354711D01*
X118751792Y-88354708D01*
X118579825Y-88239803D01*
X118579815Y-88239798D01*
X118388731Y-88160648D01*
X118388723Y-88160646D01*
X118185877Y-88120298D01*
X117932457Y-88120298D01*
X117932457Y-88870298D01*
X117432457Y-88870298D01*
X117432457Y-88120298D01*
X117179036Y-88120298D01*
X116976190Y-88160646D01*
X116976182Y-88160648D01*
X116785098Y-88239798D01*
X116785088Y-88239803D01*
X116613121Y-88354708D01*
X116613117Y-88354711D01*
X116466870Y-88500958D01*
X116466867Y-88500962D01*
X116351962Y-88672929D01*
X116351957Y-88672939D01*
X116272808Y-88864021D01*
X116272807Y-88864023D01*
X116261614Y-88920298D01*
X117115469Y-88920298D01*
X117098252Y-88930238D01*
X117042397Y-88986093D01*
X117002901Y-89054502D01*
X116982457Y-89130802D01*
X116982457Y-89209794D01*
X117002901Y-89286094D01*
X117042397Y-89354503D01*
X117098252Y-89410358D01*
X117115469Y-89420298D01*
X116261614Y-89420298D01*
X116272807Y-89476572D01*
X116272808Y-89476574D01*
X116351957Y-89667656D01*
X116351962Y-89667666D01*
X116466867Y-89839633D01*
X116466870Y-89839637D01*
X116613117Y-89985884D01*
X116613121Y-89985887D01*
X116785088Y-90100792D01*
X116785098Y-90100797D01*
X116976182Y-90179947D01*
X116976190Y-90179949D01*
X117179036Y-90220297D01*
X117179040Y-90220298D01*
X117432457Y-90220298D01*
X117432457Y-89470298D01*
X117932457Y-89470298D01*
X117932457Y-90220298D01*
X118185874Y-90220298D01*
X118185877Y-90220297D01*
X118388723Y-90179949D01*
X118388731Y-90179947D01*
X118579815Y-90100797D01*
X118579825Y-90100792D01*
X118751792Y-89985887D01*
X118751796Y-89985884D01*
X118810276Y-89927405D01*
X118871599Y-89893920D01*
X118941291Y-89898904D01*
X118997224Y-89940776D01*
X119021641Y-90006240D01*
X119021957Y-90015086D01*
X119021957Y-91005085D01*
X119002272Y-91072124D01*
X118949468Y-91117879D01*
X118885357Y-91128443D01*
X118844786Y-91124299D01*
X118844767Y-91124298D01*
X118796457Y-91124298D01*
X118796457Y-91824298D01*
X118897957Y-91824298D01*
X118964996Y-91843983D01*
X119010751Y-91896787D01*
X119021957Y-91948298D01*
X119021957Y-92200298D01*
X119002272Y-92267337D01*
X118949468Y-92313092D01*
X118897957Y-92324298D01*
X117571458Y-92324298D01*
X117571458Y-92347620D01*
X117581601Y-92446905D01*
X117634909Y-92607779D01*
X117634914Y-92607790D01*
X117723881Y-92752026D01*
X117723884Y-92752030D01*
X117843723Y-92871869D01*
X117944297Y-92933904D01*
X117991021Y-92985852D01*
X118002244Y-93054815D01*
X117974400Y-93118897D01*
X117966883Y-93127123D01*
X117947930Y-93146076D01*
X117886736Y-93266176D01*
X117870957Y-93365804D01*
X117870957Y-93882791D01*
X117886736Y-93982419D01*
X117886737Y-93982422D01*
X117886738Y-93982424D01*
X117947929Y-94102518D01*
X117947930Y-94102519D01*
X117947933Y-94102523D01*
X118043231Y-94197821D01*
X118043235Y-94197824D01*
X118043237Y-94197826D01*
X118163331Y-94259017D01*
X118163333Y-94259017D01*
X118163335Y-94259018D01*
X118262964Y-94274798D01*
X118262969Y-94274798D01*
X118829950Y-94274798D01*
X118929578Y-94259018D01*
X118929578Y-94259017D01*
X118929583Y-94259017D01*
X119049677Y-94197826D01*
X119144985Y-94102518D01*
X119206176Y-93982424D01*
X119208202Y-93969634D01*
X119221957Y-93882791D01*
X119221957Y-93425131D01*
X119241642Y-93358092D01*
X119258276Y-93337450D01*
X119409866Y-93185860D01*
X119562917Y-93032809D01*
X119602479Y-92964286D01*
X119622957Y-92887860D01*
X119622957Y-92808736D01*
X119622957Y-89030478D01*
X119642642Y-88963439D01*
X119659276Y-88942797D01*
X120145974Y-88456099D01*
X120663764Y-87938308D01*
X120725085Y-87904825D01*
X120794777Y-87909809D01*
X120850710Y-87951681D01*
X120858830Y-87963990D01*
X120906269Y-88046157D01*
X120922742Y-88114055D01*
X120899890Y-88180082D01*
X120846336Y-88222717D01*
X120805095Y-88239800D01*
X120805088Y-88239803D01*
X120633121Y-88354708D01*
X120633117Y-88354711D01*
X120486870Y-88500958D01*
X120486867Y-88500962D01*
X120371962Y-88672929D01*
X120371957Y-88672939D01*
X120292808Y-88864021D01*
X120292807Y-88864023D01*
X120281614Y-88920298D01*
X121135469Y-88920298D01*
X121118252Y-88930238D01*
X121062397Y-88986093D01*
X121022901Y-89054502D01*
X121002457Y-89130802D01*
X121002457Y-89209794D01*
X121022901Y-89286094D01*
X121062397Y-89354503D01*
X121118252Y-89410358D01*
X121135469Y-89420298D01*
X120281614Y-89420298D01*
X120292807Y-89476572D01*
X120292808Y-89476574D01*
X120371957Y-89667656D01*
X120371962Y-89667666D01*
X120486867Y-89839633D01*
X120486870Y-89839637D01*
X120633117Y-89985884D01*
X120633121Y-89985887D01*
X120805088Y-90100792D01*
X120805098Y-90100797D01*
X120996182Y-90179947D01*
X120996190Y-90179949D01*
X121199036Y-90220297D01*
X121199040Y-90220298D01*
X121602457Y-90220298D01*
X121602457Y-89470298D01*
X122102457Y-89470298D01*
X122102457Y-90220298D01*
X122407123Y-90220298D01*
X122474162Y-90239983D01*
X122519917Y-90292787D01*
X122529861Y-90361945D01*
X122500836Y-90425501D01*
X122494804Y-90431979D01*
X121066303Y-91860479D01*
X121004980Y-91893964D01*
X120978622Y-91896798D01*
X120547939Y-91896798D01*
X120468985Y-91909303D01*
X120454153Y-91911652D01*
X120341115Y-91969248D01*
X120341114Y-91969249D01*
X120341109Y-91969252D01*
X120251411Y-92058950D01*
X120251408Y-92058955D01*
X120193809Y-92171996D01*
X120178957Y-92265773D01*
X120178957Y-92728815D01*
X120184268Y-92762345D01*
X120193811Y-92822602D01*
X120251407Y-92935640D01*
X120251409Y-92935642D01*
X120251411Y-92935645D01*
X120341109Y-93025343D01*
X120341111Y-93025344D01*
X120341115Y-93025348D01*
X120390069Y-93050291D01*
X120440865Y-93098266D01*
X120457660Y-93166087D01*
X120435122Y-93232222D01*
X120380407Y-93275673D01*
X120370665Y-93279161D01*
X120290060Y-93304279D01*
X120144579Y-93392225D01*
X120024384Y-93512420D01*
X119936437Y-93657902D01*
X119885866Y-93820191D01*
X119879457Y-93890725D01*
X119879457Y-93897298D01*
X121829456Y-93897298D01*
X121829456Y-93890715D01*
X121823048Y-93820195D01*
X121823047Y-93820190D01*
X121772475Y-93657901D01*
X121684529Y-93512420D01*
X121564334Y-93392225D01*
X121418852Y-93304278D01*
X121418853Y-93304278D01*
X121338248Y-93279161D01*
X121280100Y-93240424D01*
X121252126Y-93176398D01*
X121263208Y-93107413D01*
X121309826Y-93055370D01*
X121318826Y-93050300D01*
X121367799Y-93025348D01*
X121457507Y-92935640D01*
X121515103Y-92822602D01*
X121515103Y-92822600D01*
X121515104Y-92822599D01*
X121529956Y-92728822D01*
X121529957Y-92728817D01*
X121529956Y-92298129D01*
X121549640Y-92231091D01*
X121566270Y-92210454D01*
X124269917Y-89506809D01*
X124284423Y-89481683D01*
X124309478Y-89438287D01*
X124329957Y-89361860D01*
X124329957Y-88303974D01*
X124349642Y-88236935D01*
X124366276Y-88216293D01*
X124429957Y-88152612D01*
X124495849Y-88038484D01*
X124529957Y-87911190D01*
X124529957Y-87779406D01*
X124509187Y-87701890D01*
X124509782Y-87676896D01*
X124506224Y-87652151D01*
X124510599Y-87642570D01*
X124510850Y-87632041D01*
X124524862Y-87611337D01*
X124535249Y-87588595D01*
X124544110Y-87582900D01*
X124550013Y-87574179D01*
X124572993Y-87564337D01*
X124594027Y-87550821D01*
X124609882Y-87548541D01*
X124614241Y-87546675D01*
X124628962Y-87545798D01*
X124788616Y-87545798D01*
X124855655Y-87565483D01*
X124876297Y-87582117D01*
X124964941Y-87670761D01*
X124998426Y-87732084D01*
X124997402Y-87775685D01*
X124999831Y-87776005D01*
X124983957Y-87896570D01*
X124983957Y-89222025D01*
X124998770Y-89334533D01*
X124998770Y-89334534D01*
X125055005Y-89470298D01*
X125056759Y-89474531D01*
X125149006Y-89594749D01*
X125269224Y-89686996D01*
X125409221Y-89744985D01*
X125521737Y-89759798D01*
X125521744Y-89759798D01*
X126347170Y-89759798D01*
X126347177Y-89759798D01*
X126459693Y-89744985D01*
X126599690Y-89686996D01*
X126719908Y-89594749D01*
X126812155Y-89474531D01*
X126870144Y-89334534D01*
X126884957Y-89222018D01*
X126884957Y-87896578D01*
X126870144Y-87784062D01*
X126812155Y-87644065D01*
X126719908Y-87523847D01*
X126599690Y-87431600D01*
X126599686Y-87431598D01*
X126514490Y-87396309D01*
X126459693Y-87373611D01*
X126445628Y-87371759D01*
X126347184Y-87358798D01*
X126347177Y-87358798D01*
X125554282Y-87358798D01*
X125487243Y-87339113D01*
X125466601Y-87322479D01*
X125148961Y-87004839D01*
X125148956Y-87004835D01*
X125118415Y-86987203D01*
X125110392Y-86982571D01*
X125110391Y-86982570D01*
X125080443Y-86965279D01*
X125080440Y-86965277D01*
X125039498Y-86954307D01*
X125004011Y-86944798D01*
X125004009Y-86944798D01*
X124501962Y-86944798D01*
X124434923Y-86925113D01*
X124389168Y-86872309D01*
X124379224Y-86803151D01*
X124382187Y-86788705D01*
X124402957Y-86711190D01*
X124402957Y-86579406D01*
X124368849Y-86452112D01*
X124302957Y-86337984D01*
X124209771Y-86244798D01*
X124208293Y-86243944D01*
X124174742Y-86224573D01*
X124126527Y-86174006D01*
X124113305Y-86105399D01*
X124137265Y-86043159D01*
X124142660Y-86035908D01*
X124175957Y-86002612D01*
X124205437Y-85951550D01*
X124209739Y-85945770D01*
X124232118Y-85928917D01*
X124252397Y-85909582D01*
X124260361Y-85907649D01*
X124265554Y-85903740D01*
X124281310Y-85902567D01*
X124309217Y-85895798D01*
X128509952Y-85895798D01*
X128576991Y-85915483D01*
X128622746Y-85968287D01*
X128632690Y-86037445D01*
X128629727Y-86051889D01*
X128613680Y-86111780D01*
X128608957Y-86129406D01*
X128608957Y-86219464D01*
X128589272Y-86286503D01*
X128572638Y-86307145D01*
X128049946Y-86829838D01*
X127993998Y-86885785D01*
X127993992Y-86885793D01*
X127954439Y-86954302D01*
X127954436Y-86954307D01*
X127933957Y-87030737D01*
X127933957Y-87235304D01*
X127914272Y-87302343D01*
X127861468Y-87348098D01*
X127825613Y-87357137D01*
X127825762Y-87358268D01*
X127709221Y-87373611D01*
X127709220Y-87373611D01*
X127569227Y-87431598D01*
X127569224Y-87431599D01*
X127569224Y-87431600D01*
X127449006Y-87523847D01*
X127362358Y-87636769D01*
X127356757Y-87644068D01*
X127298770Y-87784061D01*
X127298770Y-87784062D01*
X127283957Y-87896570D01*
X127283957Y-89222025D01*
X127298770Y-89334533D01*
X127298770Y-89334534D01*
X127355005Y-89470298D01*
X127356759Y-89474531D01*
X127449006Y-89594749D01*
X127569224Y-89686996D01*
X127709221Y-89744985D01*
X127821737Y-89759798D01*
X127825762Y-89760328D01*
X127825495Y-89762349D01*
X127883422Y-89783397D01*
X127925767Y-89838973D01*
X127933957Y-89883291D01*
X127933957Y-93534798D01*
X127914272Y-93601837D01*
X127861468Y-93647592D01*
X127809957Y-93658798D01*
X126777841Y-93658798D01*
X126758602Y-93660546D01*
X126707264Y-93665211D01*
X126544850Y-93715820D01*
X126399268Y-93803828D01*
X126278987Y-93924109D01*
X126190979Y-94069691D01*
X126140370Y-94232105D01*
X126133957Y-94302684D01*
X126133957Y-95415911D01*
X126140370Y-95486490D01*
X126140370Y-95486492D01*
X126140371Y-95486494D01*
X126190979Y-95648904D01*
X126276749Y-95790785D01*
X126278987Y-95794486D01*
X126399268Y-95914767D01*
X126399270Y-95914768D01*
X126399272Y-95914770D01*
X126544851Y-96002776D01*
X126707261Y-96053384D01*
X126777841Y-96059798D01*
X126777844Y-96059798D01*
X129691070Y-96059798D01*
X129691073Y-96059798D01*
X129761653Y-96053384D01*
X129924063Y-96002776D01*
X130069642Y-95914770D01*
X130189929Y-95794483D01*
X130277935Y-95648904D01*
X130328543Y-95486494D01*
X130334957Y-95415914D01*
X130334957Y-95283798D01*
X130354642Y-95216759D01*
X130407446Y-95171004D01*
X130458957Y-95159798D01*
X131296624Y-95159798D01*
X131363663Y-95179483D01*
X131384305Y-95196117D01*
X132525997Y-96337809D01*
X132581946Y-96393758D01*
X132581948Y-96393759D01*
X132581952Y-96393762D01*
X132637439Y-96425797D01*
X132650468Y-96433319D01*
X132726895Y-96453798D01*
X133553389Y-96453798D01*
X133563474Y-96456759D01*
X133573913Y-96455508D01*
X133596426Y-96466435D01*
X133620428Y-96473483D01*
X133628976Y-96482234D01*
X133636770Y-96486017D01*
X133651464Y-96505255D01*
X133659250Y-96513226D01*
X133661716Y-96517269D01*
X133719929Y-96631518D01*
X133749350Y-96660939D01*
X133757061Y-96673580D01*
X133762433Y-96693603D01*
X133772366Y-96711794D01*
X133771302Y-96726663D01*
X133775166Y-96741063D01*
X133768860Y-96760809D01*
X133767382Y-96781486D01*
X133758447Y-96793420D01*
X133753913Y-96807622D01*
X133737931Y-96820825D01*
X133725510Y-96837419D01*
X133716298Y-96843690D01*
X133615725Y-96905724D01*
X133495884Y-97025565D01*
X133495881Y-97025569D01*
X133406914Y-97169805D01*
X133406909Y-97169816D01*
X133353601Y-97330691D01*
X133343457Y-97429975D01*
X133343457Y-97453298D01*
X137969957Y-97453298D01*
X138036996Y-97472983D01*
X138082751Y-97525787D01*
X138093957Y-97577298D01*
X138093957Y-97829298D01*
X138074272Y-97896337D01*
X138021468Y-97942092D01*
X137969957Y-97953298D01*
X137868457Y-97953298D01*
X137868457Y-98216620D01*
X137851845Y-98278618D01*
X137823993Y-98326860D01*
X137823991Y-98326865D01*
X137803512Y-98403291D01*
X137803512Y-98482415D01*
X137823991Y-98558841D01*
X137863552Y-98627364D01*
X137928961Y-98692773D01*
X137951305Y-98715117D01*
X137984790Y-98776440D01*
X137979806Y-98846132D01*
X137937934Y-98902065D01*
X137872470Y-98926482D01*
X137863624Y-98926798D01*
X131953957Y-98926798D01*
X131886918Y-98907113D01*
X131841163Y-98854309D01*
X131829957Y-98802798D01*
X131829957Y-98527547D01*
X131829956Y-98527545D01*
X131818325Y-98469068D01*
X131818324Y-98469067D01*
X131774009Y-98402745D01*
X131707687Y-98358430D01*
X131707686Y-98358429D01*
X131649209Y-98346798D01*
X131649205Y-98346798D01*
X130379709Y-98346798D01*
X130379704Y-98346798D01*
X130321227Y-98358429D01*
X130321226Y-98358430D01*
X130254904Y-98402745D01*
X130210589Y-98469067D01*
X130210588Y-98469068D01*
X130198957Y-98527545D01*
X130198957Y-99927050D01*
X130210588Y-99985527D01*
X130210589Y-99985528D01*
X130254904Y-100051850D01*
X130321226Y-100096165D01*
X130321227Y-100096166D01*
X130379704Y-100107797D01*
X130379707Y-100107798D01*
X130379709Y-100107798D01*
X131649207Y-100107798D01*
X131649208Y-100107797D01*
X131664025Y-100104850D01*
X131707686Y-100096166D01*
X131707686Y-100096165D01*
X131707688Y-100096165D01*
X131774009Y-100051850D01*
X131818324Y-99985529D01*
X131818324Y-99985527D01*
X131818325Y-99985527D01*
X131829956Y-99927050D01*
X131829957Y-99927048D01*
X131829957Y-99651798D01*
X131849642Y-99584759D01*
X131902446Y-99539004D01*
X131953957Y-99527798D01*
X138928017Y-99527798D01*
X138928019Y-99527798D01*
X139004445Y-99507320D01*
X139072968Y-99467758D01*
X139128917Y-99411809D01*
X139168479Y-99343286D01*
X139188957Y-99266860D01*
X139188957Y-99187736D01*
X139168479Y-99111310D01*
X139128917Y-99042787D01*
X138616664Y-98530534D01*
X138583179Y-98469211D01*
X138588163Y-98399519D01*
X138604646Y-98369123D01*
X138610133Y-98361702D01*
X138634917Y-98336919D01*
X138654378Y-98303211D01*
X138674478Y-98268397D01*
X138694957Y-98191970D01*
X138694957Y-97214626D01*
X138674478Y-97138199D01*
X138674474Y-97138192D01*
X138634921Y-97069683D01*
X138634915Y-97069675D01*
X138581219Y-97015979D01*
X138547734Y-96954656D01*
X138552718Y-96884964D01*
X138581219Y-96840617D01*
X138604554Y-96817282D01*
X138634917Y-96786919D01*
X138645963Y-96767787D01*
X138674478Y-96718397D01*
X138694957Y-96641970D01*
X138694957Y-96468131D01*
X138703602Y-96438688D01*
X138710125Y-96408705D01*
X138713879Y-96403689D01*
X138714642Y-96401092D01*
X138731270Y-96380455D01*
X138872953Y-96238772D01*
X138934272Y-96205290D01*
X139003964Y-96210274D01*
X139059898Y-96252145D01*
X139068017Y-96264454D01*
X139122957Y-96359612D01*
X139216143Y-96452798D01*
X139330271Y-96518690D01*
X139457565Y-96552798D01*
X139457567Y-96552798D01*
X139589347Y-96552798D01*
X139589349Y-96552798D01*
X139716643Y-96518690D01*
X139830771Y-96452798D01*
X139894452Y-96389117D01*
X139955775Y-96355632D01*
X139982133Y-96352798D01*
X142118384Y-96352798D01*
X142185423Y-96372483D01*
X142206065Y-96389117D01*
X142644273Y-96827325D01*
X142677758Y-96888648D01*
X142672774Y-96958340D01*
X142630902Y-97014273D01*
X142580784Y-97036623D01*
X142392042Y-97074166D01*
X142392036Y-97074168D01*
X142200860Y-97153356D01*
X142028799Y-97268322D01*
X141882481Y-97414640D01*
X141767515Y-97586701D01*
X141688327Y-97777877D01*
X141688325Y-97777885D01*
X141647957Y-97980828D01*
X141647957Y-98187767D01*
X141688325Y-98390710D01*
X141688327Y-98390718D01*
X141754396Y-98550223D01*
X141767516Y-98581896D01*
X141787840Y-98612313D01*
X141882481Y-98753955D01*
X142028799Y-98900273D01*
X142028802Y-98900275D01*
X142200859Y-99015239D01*
X142392037Y-99094428D01*
X142536509Y-99123165D01*
X142594987Y-99134797D01*
X142594991Y-99134798D01*
X142594992Y-99134798D01*
X142801923Y-99134798D01*
X142801924Y-99134797D01*
X143004877Y-99094428D01*
X143196055Y-99015239D01*
X143368112Y-98900275D01*
X143514434Y-98753953D01*
X143567055Y-98675199D01*
X143620664Y-98630395D01*
X143689989Y-98621686D01*
X143753017Y-98651840D01*
X143757837Y-98656409D01*
X146876545Y-101775117D01*
X146910030Y-101836440D01*
X146905046Y-101906132D01*
X146863174Y-101962065D01*
X146797710Y-101986482D01*
X146788864Y-101986798D01*
X146785987Y-101986798D01*
X146583044Y-102027166D01*
X146583036Y-102027168D01*
X146391860Y-102106356D01*
X146219799Y-102221322D01*
X146073481Y-102367640D01*
X145958515Y-102539701D01*
X145879327Y-102730877D01*
X145879325Y-102730885D01*
X145838957Y-102933828D01*
X145838957Y-103140767D01*
X145879325Y-103343710D01*
X145879327Y-103343718D01*
X145947752Y-103508911D01*
X145958516Y-103534896D01*
X146015998Y-103620924D01*
X146073481Y-103706955D01*
X146219799Y-103853273D01*
X146219802Y-103853275D01*
X146391859Y-103968239D01*
X146583037Y-104047428D01*
X146727509Y-104076165D01*
X146785987Y-104087797D01*
X146785991Y-104087798D01*
X146785992Y-104087798D01*
X146992923Y-104087798D01*
X146992924Y-104087797D01*
X147195877Y-104047428D01*
X147316431Y-103997492D01*
X147385895Y-103990024D01*
X147448375Y-104021298D01*
X147451561Y-104024373D01*
X147799997Y-104372809D01*
X147855946Y-104428758D01*
X147855948Y-104428759D01*
X147855952Y-104428762D01*
X147924461Y-104468315D01*
X147924468Y-104468319D01*
X148000895Y-104488798D01*
X148000897Y-104488798D01*
X149945777Y-104488798D01*
X149945779Y-104488798D01*
X150022206Y-104468319D01*
X150090728Y-104428758D01*
X150146677Y-104372809D01*
X150820917Y-103698569D01*
X150842697Y-103660845D01*
X150860478Y-103630047D01*
X150860480Y-103630038D01*
X150863587Y-103622540D01*
X150866469Y-103623733D01*
X150895126Y-103576671D01*
X150957959Y-103546113D01*
X151027338Y-103554376D01*
X151081237Y-103598837D01*
X151081617Y-103599402D01*
X151102095Y-103630049D01*
X151153481Y-103706955D01*
X151299799Y-103853273D01*
X151299802Y-103853275D01*
X151471859Y-103968239D01*
X151663037Y-104047428D01*
X151807509Y-104076165D01*
X151865987Y-104087797D01*
X151865991Y-104087798D01*
X151865992Y-104087798D01*
X152072923Y-104087798D01*
X152072924Y-104087797D01*
X152275877Y-104047428D01*
X152467055Y-103968239D01*
X152639112Y-103853275D01*
X152785434Y-103706953D01*
X152900398Y-103534896D01*
X152979587Y-103343718D01*
X153019957Y-103140763D01*
X153019957Y-102933833D01*
X152979587Y-102730878D01*
X152900398Y-102539700D01*
X152785434Y-102367643D01*
X152785433Y-102367642D01*
X152785432Y-102367640D01*
X152639114Y-102221322D01*
X152558630Y-102167545D01*
X153458957Y-102167545D01*
X153458957Y-103907050D01*
X153470588Y-103965527D01*
X153470589Y-103965528D01*
X153514904Y-104031850D01*
X153581226Y-104076165D01*
X153581227Y-104076166D01*
X153639704Y-104087797D01*
X153639707Y-104087798D01*
X153639709Y-104087798D01*
X155379207Y-104087798D01*
X155379208Y-104087797D01*
X155394025Y-104084850D01*
X155437686Y-104076166D01*
X155437686Y-104076165D01*
X155437688Y-104076165D01*
X155504009Y-104031850D01*
X155548324Y-103965529D01*
X155548324Y-103965527D01*
X155548325Y-103965527D01*
X155559956Y-103907050D01*
X155559957Y-103907048D01*
X155559957Y-102167547D01*
X155559956Y-102167545D01*
X155549928Y-102117127D01*
X155548325Y-102109068D01*
X155548324Y-102109067D01*
X155504009Y-102042745D01*
X155437687Y-101998430D01*
X155437686Y-101998429D01*
X155379209Y-101986798D01*
X155379205Y-101986798D01*
X153639709Y-101986798D01*
X153639704Y-101986798D01*
X153581227Y-101998429D01*
X153581226Y-101998430D01*
X153514904Y-102042745D01*
X153470589Y-102109067D01*
X153470588Y-102109068D01*
X153458957Y-102167545D01*
X152558630Y-102167545D01*
X152467052Y-102106355D01*
X152346504Y-102056422D01*
X152292100Y-102012580D01*
X152270036Y-101946286D01*
X152269957Y-101941861D01*
X152269957Y-100996453D01*
X164589457Y-100996453D01*
X164589457Y-101644298D01*
X165506445Y-101644298D01*
X165473532Y-101701305D01*
X165439457Y-101828472D01*
X165439457Y-101960124D01*
X165473532Y-102087291D01*
X165506445Y-102144298D01*
X164589457Y-102144298D01*
X164589457Y-102792142D01*
X164595858Y-102851670D01*
X164595860Y-102851677D01*
X164646102Y-102986384D01*
X164646106Y-102986391D01*
X164732266Y-103101485D01*
X164732269Y-103101488D01*
X164847363Y-103187648D01*
X164847370Y-103187652D01*
X164982077Y-103237894D01*
X164982084Y-103237896D01*
X165041612Y-103244297D01*
X165041629Y-103244298D01*
X165689457Y-103244298D01*
X165689457Y-102327310D01*
X165746464Y-102360223D01*
X165873631Y-102394298D01*
X166005283Y-102394298D01*
X166132450Y-102360223D01*
X166189457Y-102327310D01*
X166189457Y-103244298D01*
X166837285Y-103244298D01*
X166837301Y-103244297D01*
X166896829Y-103237896D01*
X166896836Y-103237894D01*
X167031543Y-103187652D01*
X167031550Y-103187648D01*
X167146644Y-103101488D01*
X167146647Y-103101485D01*
X167232807Y-102986391D01*
X167232811Y-102986384D01*
X167283053Y-102851677D01*
X167283055Y-102851670D01*
X167289456Y-102792142D01*
X167289457Y-102792125D01*
X167289457Y-102389862D01*
X167309142Y-102322823D01*
X167361946Y-102277068D01*
X167431104Y-102267124D01*
X167494660Y-102296149D01*
X167528018Y-102342410D01*
X167538469Y-102367642D01*
X167548516Y-102391896D01*
X167607669Y-102480425D01*
X167663481Y-102563955D01*
X167809799Y-102710273D01*
X167809802Y-102710275D01*
X167981859Y-102825239D01*
X168173037Y-102904428D01*
X168351685Y-102939963D01*
X168375987Y-102944797D01*
X168375991Y-102944798D01*
X168375992Y-102944798D01*
X168582923Y-102944798D01*
X168582924Y-102944797D01*
X168785877Y-102904428D01*
X168977055Y-102825239D01*
X169149112Y-102710275D01*
X169295434Y-102563953D01*
X169410398Y-102391896D01*
X169489587Y-102200718D01*
X169529957Y-101997763D01*
X169529957Y-101790833D01*
X169489587Y-101587878D01*
X169410398Y-101396700D01*
X169295434Y-101224643D01*
X169295432Y-101224640D01*
X169149114Y-101078322D01*
X169026587Y-100996453D01*
X168977055Y-100963357D01*
X168785877Y-100884168D01*
X168785869Y-100884166D01*
X168582926Y-100843798D01*
X168582922Y-100843798D01*
X168375992Y-100843798D01*
X168375987Y-100843798D01*
X168173044Y-100884166D01*
X168173036Y-100884168D01*
X167981860Y-100963356D01*
X167809799Y-101078322D01*
X167663481Y-101224640D01*
X167548515Y-101396701D01*
X167528018Y-101446186D01*
X167484177Y-101500589D01*
X167417883Y-101522654D01*
X167350183Y-101505375D01*
X167302573Y-101454237D01*
X167289457Y-101398733D01*
X167289457Y-100996470D01*
X167289456Y-100996453D01*
X167283055Y-100936925D01*
X167283053Y-100936918D01*
X167232811Y-100802211D01*
X167232807Y-100802204D01*
X167146647Y-100687110D01*
X167146644Y-100687107D01*
X167031550Y-100600947D01*
X167031543Y-100600943D01*
X166896836Y-100550701D01*
X166896829Y-100550699D01*
X166837301Y-100544298D01*
X166189457Y-100544298D01*
X166189457Y-101461286D01*
X166132450Y-101428373D01*
X166005283Y-101394298D01*
X165873631Y-101394298D01*
X165746464Y-101428373D01*
X165689457Y-101461286D01*
X165689457Y-100544298D01*
X165041612Y-100544298D01*
X164982084Y-100550699D01*
X164982077Y-100550701D01*
X164847370Y-100600943D01*
X164847363Y-100600947D01*
X164732269Y-100687107D01*
X164732266Y-100687110D01*
X164646106Y-100802204D01*
X164646102Y-100802211D01*
X164595860Y-100936918D01*
X164595858Y-100936925D01*
X164589457Y-100996453D01*
X152269957Y-100996453D01*
X152269957Y-96863130D01*
X152289642Y-96796091D01*
X152306271Y-96775453D01*
X153274843Y-95806881D01*
X153336166Y-95773397D01*
X153362524Y-95770563D01*
X153452582Y-95770563D01*
X153452584Y-95770563D01*
X153579878Y-95736455D01*
X153694006Y-95670563D01*
X153787192Y-95577377D01*
X153827317Y-95507877D01*
X153877884Y-95459663D01*
X153946491Y-95446439D01*
X154011355Y-95472407D01*
X154022385Y-95482197D01*
X156062381Y-97522193D01*
X156095866Y-97583516D01*
X156090882Y-97653208D01*
X156089261Y-97657327D01*
X156039327Y-97777877D01*
X156039325Y-97777885D01*
X155998957Y-97980828D01*
X155998957Y-98187767D01*
X156039325Y-98390710D01*
X156039327Y-98390718D01*
X156118516Y-98581897D01*
X156118516Y-98581898D01*
X156225431Y-98741908D01*
X156246309Y-98808585D01*
X156227824Y-98875965D01*
X156175845Y-98922655D01*
X156122329Y-98934798D01*
X155836290Y-98934798D01*
X155769251Y-98915113D01*
X155748609Y-98898479D01*
X155496532Y-98646402D01*
X155463047Y-98585079D01*
X155468031Y-98515387D01*
X155469620Y-98511347D01*
X155519587Y-98390718D01*
X155559957Y-98187763D01*
X155559957Y-97980833D01*
X155519587Y-97777878D01*
X155440398Y-97586700D01*
X155325434Y-97414643D01*
X155325433Y-97414642D01*
X155325432Y-97414640D01*
X155179114Y-97268322D01*
X155066023Y-97192758D01*
X155007055Y-97153357D01*
X154981754Y-97142877D01*
X154815877Y-97074168D01*
X154815869Y-97074166D01*
X154612926Y-97033798D01*
X154612922Y-97033798D01*
X154405992Y-97033798D01*
X154405987Y-97033798D01*
X154203044Y-97074166D01*
X154203036Y-97074168D01*
X154011860Y-97153356D01*
X153839799Y-97268322D01*
X153693481Y-97414640D01*
X153578515Y-97586701D01*
X153499327Y-97777877D01*
X153499325Y-97777885D01*
X153458957Y-97980828D01*
X153458957Y-98187767D01*
X153499325Y-98390710D01*
X153499327Y-98390718D01*
X153565396Y-98550223D01*
X153578516Y-98581896D01*
X153598840Y-98612313D01*
X153693481Y-98753955D01*
X153839799Y-98900273D01*
X153839802Y-98900275D01*
X154011859Y-99015239D01*
X154203037Y-99094428D01*
X154347509Y-99123165D01*
X154405987Y-99134797D01*
X154405991Y-99134798D01*
X154405992Y-99134798D01*
X154612923Y-99134798D01*
X154612924Y-99134797D01*
X154815877Y-99094428D01*
X154936431Y-99044492D01*
X155005895Y-99037024D01*
X155068375Y-99068298D01*
X155071561Y-99071373D01*
X155419997Y-99419809D01*
X155475946Y-99475758D01*
X155475948Y-99475759D01*
X155475952Y-99475762D01*
X155530613Y-99507320D01*
X155544468Y-99515319D01*
X155620895Y-99535798D01*
X155620897Y-99535798D01*
X157565777Y-99535798D01*
X157565779Y-99535798D01*
X157642206Y-99515319D01*
X157710728Y-99475758D01*
X157766677Y-99419809D01*
X158440917Y-98745569D01*
X158443127Y-98741740D01*
X158474460Y-98687471D01*
X158474462Y-98687465D01*
X158476860Y-98683313D01*
X158480478Y-98677047D01*
X158481780Y-98672186D01*
X158486742Y-98661827D01*
X158502700Y-98644075D01*
X158515112Y-98623685D01*
X158525632Y-98618566D01*
X158533453Y-98609867D01*
X158556474Y-98603561D01*
X158577940Y-98593118D01*
X158589557Y-98594499D01*
X158600841Y-98591409D01*
X158623619Y-98598551D01*
X158647320Y-98601370D01*
X158656345Y-98608812D01*
X158667510Y-98612313D01*
X158682810Y-98630636D01*
X158701226Y-98645822D01*
X158701680Y-98646497D01*
X158773479Y-98753953D01*
X158919799Y-98900273D01*
X158919802Y-98900275D01*
X159091859Y-99015239D01*
X159283037Y-99094428D01*
X159427509Y-99123165D01*
X159485987Y-99134797D01*
X159485991Y-99134798D01*
X159485992Y-99134798D01*
X159692923Y-99134798D01*
X159692924Y-99134797D01*
X159895877Y-99094428D01*
X160087055Y-99015239D01*
X160259112Y-98900275D01*
X160405434Y-98753953D01*
X160520398Y-98581896D01*
X160599587Y-98390718D01*
X160639957Y-98187763D01*
X160639957Y-97980833D01*
X160599587Y-97777878D01*
X160549653Y-97657327D01*
X160542184Y-97587857D01*
X160573459Y-97525378D01*
X160576535Y-97522191D01*
X160579156Y-97519569D01*
X160591917Y-97506809D01*
X160631479Y-97438286D01*
X160651957Y-97361860D01*
X160651957Y-97282736D01*
X160651957Y-85505579D01*
X160671642Y-85438540D01*
X160724446Y-85392785D01*
X160793604Y-85382841D01*
X160857160Y-85411866D01*
X160863638Y-85417898D01*
X161792638Y-86346898D01*
X161826123Y-86408221D01*
X161828957Y-86434579D01*
X161828957Y-96909798D01*
X161809272Y-96976837D01*
X161756468Y-97022592D01*
X161704957Y-97033798D01*
X161259704Y-97033798D01*
X161201227Y-97045429D01*
X161201226Y-97045430D01*
X161134904Y-97089745D01*
X161090589Y-97156067D01*
X161090588Y-97156068D01*
X161078957Y-97214545D01*
X161078957Y-98954050D01*
X161090588Y-99012527D01*
X161090589Y-99012528D01*
X161134904Y-99078850D01*
X161201226Y-99123165D01*
X161201227Y-99123166D01*
X161259704Y-99134797D01*
X161259707Y-99134798D01*
X161259709Y-99134798D01*
X162999207Y-99134798D01*
X162999208Y-99134797D01*
X163014025Y-99131850D01*
X163057686Y-99123166D01*
X163057686Y-99123165D01*
X163057688Y-99123165D01*
X163124009Y-99078850D01*
X163168324Y-99012529D01*
X163168324Y-99012527D01*
X163168325Y-99012527D01*
X163179956Y-98954050D01*
X163179957Y-98954048D01*
X163179957Y-97214547D01*
X163179956Y-97214545D01*
X163168325Y-97156068D01*
X163168324Y-97156067D01*
X163124009Y-97089745D01*
X163057687Y-97045430D01*
X163057686Y-97045429D01*
X162999209Y-97033798D01*
X162999205Y-97033798D01*
X162553957Y-97033798D01*
X162486918Y-97014113D01*
X162441163Y-96961309D01*
X162429957Y-96909798D01*
X162429957Y-89458736D01*
X169048957Y-89458736D01*
X169048957Y-96430620D01*
X169055422Y-96454746D01*
X169069436Y-96507048D01*
X169069437Y-96507049D01*
X169104516Y-96567809D01*
X169106538Y-96571310D01*
X169108997Y-96575569D01*
X169108999Y-96575572D01*
X170217627Y-97684199D01*
X171318237Y-98784809D01*
X171374186Y-98840758D01*
X171374188Y-98840759D01*
X171374192Y-98840762D01*
X171442701Y-98880315D01*
X171442708Y-98880319D01*
X171519135Y-98900798D01*
X171519137Y-98900798D01*
X173464017Y-98900798D01*
X173464019Y-98900798D01*
X173540446Y-98880319D01*
X173608968Y-98840758D01*
X173664917Y-98784809D01*
X174013353Y-98436371D01*
X174074674Y-98402888D01*
X174144365Y-98407872D01*
X174148464Y-98409484D01*
X174269037Y-98459428D01*
X174429189Y-98491284D01*
X174471987Y-98499797D01*
X174471991Y-98499798D01*
X174471992Y-98499798D01*
X174678923Y-98499798D01*
X174678924Y-98499797D01*
X174881877Y-98459428D01*
X175073055Y-98380239D01*
X175245112Y-98265275D01*
X175391434Y-98118953D01*
X175506398Y-97946896D01*
X175585587Y-97755718D01*
X175625957Y-97552763D01*
X175625957Y-97345833D01*
X175585587Y-97142878D01*
X175506398Y-96951700D01*
X175391434Y-96779643D01*
X175391432Y-96779640D01*
X175245114Y-96633322D01*
X175122045Y-96551091D01*
X175073055Y-96518357D01*
X175073050Y-96518355D01*
X174881877Y-96439168D01*
X174881869Y-96439166D01*
X174678926Y-96398798D01*
X174678922Y-96398798D01*
X174471992Y-96398798D01*
X174471987Y-96398798D01*
X174269044Y-96439166D01*
X174269036Y-96439168D01*
X174077860Y-96518356D01*
X173905799Y-96633322D01*
X173759481Y-96779640D01*
X173644515Y-96951701D01*
X173565327Y-97142877D01*
X173565325Y-97142885D01*
X173524957Y-97345828D01*
X173524957Y-97552767D01*
X173565325Y-97755710D01*
X173565328Y-97755722D01*
X173615260Y-97876269D01*
X173622729Y-97945738D01*
X173591454Y-98008217D01*
X173588381Y-98011402D01*
X173336303Y-98263480D01*
X173274983Y-98296964D01*
X173248624Y-98299798D01*
X172962585Y-98299798D01*
X172895546Y-98280113D01*
X172849791Y-98227309D01*
X172839847Y-98158151D01*
X172859483Y-98106908D01*
X172966397Y-97946898D01*
X172966397Y-97946897D01*
X172966398Y-97946896D01*
X173045587Y-97755718D01*
X173085957Y-97552763D01*
X173085957Y-97345833D01*
X173045587Y-97142878D01*
X172966398Y-96951700D01*
X172851434Y-96779643D01*
X172851432Y-96779640D01*
X172705114Y-96633322D01*
X172533052Y-96518355D01*
X172412504Y-96468422D01*
X172358100Y-96424580D01*
X172336036Y-96358286D01*
X172335957Y-96353861D01*
X172335957Y-87472737D01*
X172326732Y-87438309D01*
X172315478Y-87396309D01*
X172304178Y-87376736D01*
X172275921Y-87327793D01*
X172275915Y-87327785D01*
X171337476Y-86389346D01*
X171303991Y-86328023D01*
X171308975Y-86258331D01*
X171310597Y-86254211D01*
X171343852Y-86173929D01*
X171343852Y-86173928D01*
X171343854Y-86173924D01*
X171380957Y-85987391D01*
X171380957Y-85797205D01*
X171343854Y-85610672D01*
X171271072Y-85434962D01*
X171271070Y-85434959D01*
X171271068Y-85434955D01*
X171165410Y-85276827D01*
X171165407Y-85276823D01*
X171030931Y-85142347D01*
X171030927Y-85142344D01*
X170872799Y-85036686D01*
X170872789Y-85036681D01*
X170697083Y-84963901D01*
X170697075Y-84963899D01*
X170510554Y-84926798D01*
X170510550Y-84926798D01*
X170320364Y-84926798D01*
X170320359Y-84926798D01*
X170133838Y-84963899D01*
X170133830Y-84963901D01*
X169958124Y-85036681D01*
X169958114Y-85036686D01*
X169799986Y-85142344D01*
X169799982Y-85142347D01*
X169665506Y-85276823D01*
X169665503Y-85276827D01*
X169559845Y-85434955D01*
X169559840Y-85434965D01*
X169487060Y-85610671D01*
X169487058Y-85610679D01*
X169449957Y-85797200D01*
X169449957Y-85987395D01*
X169487058Y-86173916D01*
X169487060Y-86173924D01*
X169559840Y-86349630D01*
X169559845Y-86349640D01*
X169665503Y-86507768D01*
X169665506Y-86507772D01*
X169799982Y-86642248D01*
X169799986Y-86642251D01*
X169958114Y-86747909D01*
X169958118Y-86747911D01*
X169958121Y-86747913D01*
X170133831Y-86820695D01*
X170269180Y-86847617D01*
X170320359Y-86857797D01*
X170320363Y-86857798D01*
X170320364Y-86857798D01*
X170510551Y-86857798D01*
X170510552Y-86857797D01*
X170697083Y-86820695D01*
X170712481Y-86814317D01*
X170772670Y-86789385D01*
X170777370Y-86787437D01*
X170846839Y-86779968D01*
X170909319Y-86811242D01*
X170912505Y-86814317D01*
X171698638Y-87600450D01*
X171732123Y-87661773D01*
X171734957Y-87688131D01*
X171734957Y-92799062D01*
X171715272Y-92866101D01*
X171662468Y-92911856D01*
X171593310Y-92921800D01*
X171529754Y-92892775D01*
X171500474Y-92855360D01*
X171497383Y-92849295D01*
X171469874Y-92811433D01*
X171469874Y-92811432D01*
X170906585Y-93374722D01*
X170890702Y-93315445D01*
X170823559Y-93199151D01*
X170728604Y-93104196D01*
X170612310Y-93037053D01*
X170553029Y-93021169D01*
X171116321Y-92457878D01*
X171078465Y-92430375D01*
X170901051Y-92339977D01*
X170711679Y-92278445D01*
X170515020Y-92247298D01*
X170315894Y-92247298D01*
X170119234Y-92278445D01*
X169929862Y-92339977D01*
X169830252Y-92390731D01*
X169761582Y-92403627D01*
X169696842Y-92377350D01*
X169656585Y-92320244D01*
X169649957Y-92280246D01*
X169649957Y-91853992D01*
X169669642Y-91786953D01*
X169722446Y-91741198D01*
X169791604Y-91731254D01*
X169842846Y-91750889D01*
X169868431Y-91767984D01*
X169958114Y-91827909D01*
X169958118Y-91827911D01*
X169958121Y-91827913D01*
X170133831Y-91900695D01*
X170298163Y-91933382D01*
X170320359Y-91937797D01*
X170320363Y-91937798D01*
X170320364Y-91937798D01*
X170510551Y-91937798D01*
X170510552Y-91937797D01*
X170697083Y-91900695D01*
X170872793Y-91827913D01*
X171030928Y-91722251D01*
X171165410Y-91587769D01*
X171271072Y-91429634D01*
X171343854Y-91253924D01*
X171380957Y-91067391D01*
X171380957Y-90877205D01*
X171343854Y-90690672D01*
X171271072Y-90514962D01*
X171271070Y-90514959D01*
X171271068Y-90514955D01*
X171165410Y-90356827D01*
X171165407Y-90356823D01*
X171030931Y-90222347D01*
X171030927Y-90222344D01*
X170872799Y-90116686D01*
X170872789Y-90116681D01*
X170697083Y-90043901D01*
X170697075Y-90043899D01*
X170510554Y-90006798D01*
X170510550Y-90006798D01*
X170320364Y-90006798D01*
X170320359Y-90006798D01*
X170133838Y-90043899D01*
X170133830Y-90043901D01*
X169958124Y-90116681D01*
X169958114Y-90116686D01*
X169842848Y-90193705D01*
X169776170Y-90214583D01*
X169708790Y-90196098D01*
X169662100Y-90144119D01*
X169649957Y-90090603D01*
X169649957Y-89674130D01*
X169669642Y-89607091D01*
X169686272Y-89586453D01*
X169918409Y-89354315D01*
X169979730Y-89320832D01*
X170049421Y-89325816D01*
X170053537Y-89327435D01*
X170133831Y-89360695D01*
X170320359Y-89397797D01*
X170320363Y-89397798D01*
X170320364Y-89397798D01*
X170510551Y-89397798D01*
X170510552Y-89397797D01*
X170697083Y-89360695D01*
X170872793Y-89287913D01*
X171030928Y-89182251D01*
X171165410Y-89047769D01*
X171271072Y-88889634D01*
X171343854Y-88713924D01*
X171380957Y-88527391D01*
X171380957Y-88337205D01*
X171343854Y-88150672D01*
X171271072Y-87974962D01*
X171271070Y-87974959D01*
X171271068Y-87974955D01*
X171165410Y-87816827D01*
X171165407Y-87816823D01*
X171030931Y-87682347D01*
X171030927Y-87682344D01*
X170872799Y-87576686D01*
X170872789Y-87576681D01*
X170697083Y-87503901D01*
X170697075Y-87503899D01*
X170510554Y-87466798D01*
X170510550Y-87466798D01*
X170320364Y-87466798D01*
X170320359Y-87466798D01*
X170133838Y-87503899D01*
X170133830Y-87503901D01*
X169958124Y-87576681D01*
X169958114Y-87576686D01*
X169799986Y-87682344D01*
X169799982Y-87682347D01*
X169665506Y-87816823D01*
X169665503Y-87816827D01*
X169559845Y-87974955D01*
X169559840Y-87974965D01*
X169487060Y-88150671D01*
X169487058Y-88150679D01*
X169449957Y-88337200D01*
X169449957Y-88527395D01*
X169487058Y-88713916D01*
X169487061Y-88713928D01*
X169520316Y-88794213D01*
X169527785Y-88863682D01*
X169496509Y-88926161D01*
X169493437Y-88929346D01*
X169164946Y-89257838D01*
X169108998Y-89313785D01*
X169108992Y-89313793D01*
X169069439Y-89382302D01*
X169069436Y-89382307D01*
X169061920Y-89410358D01*
X169048957Y-89458736D01*
X162429957Y-89458736D01*
X162429957Y-86219185D01*
X162426775Y-86207310D01*
X162409478Y-86142757D01*
X162392248Y-86112913D01*
X162369921Y-86074241D01*
X162369915Y-86074233D01*
X159552882Y-83257200D01*
X169449957Y-83257200D01*
X169449957Y-83447395D01*
X169487058Y-83633916D01*
X169487060Y-83633924D01*
X169559840Y-83809630D01*
X169559845Y-83809640D01*
X169665503Y-83967768D01*
X169665506Y-83967772D01*
X169799982Y-84102248D01*
X169799986Y-84102251D01*
X169958114Y-84207909D01*
X169958118Y-84207911D01*
X169958121Y-84207913D01*
X170133831Y-84280695D01*
X170241494Y-84302110D01*
X170320359Y-84317797D01*
X170320363Y-84317798D01*
X170320364Y-84317798D01*
X170510551Y-84317798D01*
X170510552Y-84317797D01*
X170697083Y-84280695D01*
X170712481Y-84274317D01*
X170741045Y-84262485D01*
X170777370Y-84247437D01*
X170846839Y-84239968D01*
X170909319Y-84271242D01*
X170912505Y-84274317D01*
X176778638Y-90140450D01*
X176812123Y-90201773D01*
X176814957Y-90228131D01*
X176814957Y-96353861D01*
X176795272Y-96420900D01*
X176742468Y-96466655D01*
X176738410Y-96468422D01*
X176617861Y-96518355D01*
X176445799Y-96633322D01*
X176299481Y-96779640D01*
X176184515Y-96951701D01*
X176105327Y-97142877D01*
X176105325Y-97142885D01*
X176064957Y-97345828D01*
X176064957Y-97552767D01*
X176105325Y-97755710D01*
X176105327Y-97755718D01*
X176184516Y-97946896D01*
X176241998Y-98032924D01*
X176299481Y-98118955D01*
X176445799Y-98265273D01*
X176445802Y-98265275D01*
X176617859Y-98380239D01*
X176809037Y-98459428D01*
X176969189Y-98491284D01*
X177011987Y-98499797D01*
X177011991Y-98499798D01*
X177011992Y-98499798D01*
X177218923Y-98499798D01*
X177218924Y-98499797D01*
X177421877Y-98459428D01*
X177613055Y-98380239D01*
X177785112Y-98265275D01*
X177931434Y-98118953D01*
X178046398Y-97946896D01*
X178125587Y-97755718D01*
X178165957Y-97552763D01*
X178165957Y-97345833D01*
X178125587Y-97142878D01*
X178046398Y-96951700D01*
X177931434Y-96779643D01*
X177931432Y-96779640D01*
X177785114Y-96633322D01*
X177613052Y-96518355D01*
X177492504Y-96468422D01*
X177438100Y-96424580D01*
X177416036Y-96358286D01*
X177415957Y-96353861D01*
X177415957Y-90012737D01*
X177415957Y-90012736D01*
X177395478Y-89936309D01*
X177390337Y-89927405D01*
X177355921Y-89867793D01*
X177355915Y-89867785D01*
X171337476Y-83849346D01*
X171303991Y-83788023D01*
X171308975Y-83718331D01*
X171310597Y-83714211D01*
X171343852Y-83633929D01*
X171343852Y-83633928D01*
X171343854Y-83633924D01*
X171380957Y-83447391D01*
X171380957Y-83257205D01*
X171343854Y-83070672D01*
X171271072Y-82894962D01*
X171271070Y-82894959D01*
X171271068Y-82894955D01*
X171165410Y-82736827D01*
X171165407Y-82736823D01*
X171030931Y-82602347D01*
X171030927Y-82602344D01*
X170872799Y-82496686D01*
X170872789Y-82496681D01*
X170697083Y-82423901D01*
X170697075Y-82423899D01*
X170510554Y-82386798D01*
X170510550Y-82386798D01*
X170320364Y-82386798D01*
X170320359Y-82386798D01*
X170133838Y-82423899D01*
X170133830Y-82423901D01*
X169958124Y-82496681D01*
X169958114Y-82496686D01*
X169799986Y-82602344D01*
X169799982Y-82602347D01*
X169665506Y-82736823D01*
X169665503Y-82736827D01*
X169559845Y-82894955D01*
X169559840Y-82894965D01*
X169487060Y-83070671D01*
X169487058Y-83070679D01*
X169449957Y-83257200D01*
X159552882Y-83257200D01*
X158154227Y-81858545D01*
X158120742Y-81797222D01*
X158125726Y-81727530D01*
X158167598Y-81671597D01*
X158172976Y-81667790D01*
X158330928Y-81562251D01*
X158465410Y-81427769D01*
X158571072Y-81269634D01*
X158643854Y-81093924D01*
X158680957Y-80907391D01*
X158680957Y-80717205D01*
X158643854Y-80530672D01*
X158571072Y-80354962D01*
X158571070Y-80354959D01*
X158571068Y-80354955D01*
X158465410Y-80196827D01*
X158465407Y-80196823D01*
X158330931Y-80062347D01*
X158330927Y-80062344D01*
X158172799Y-79956686D01*
X158172789Y-79956681D01*
X157997083Y-79883901D01*
X157997075Y-79883899D01*
X157810554Y-79846798D01*
X157810550Y-79846798D01*
X157620364Y-79846798D01*
X157620359Y-79846798D01*
X157433838Y-79883899D01*
X157433830Y-79883901D01*
X157258124Y-79956681D01*
X157258114Y-79956686D01*
X157099986Y-80062344D01*
X157099982Y-80062347D01*
X156965506Y-80196823D01*
X156965503Y-80196827D01*
X156859845Y-80354955D01*
X156859840Y-80354965D01*
X156787060Y-80530671D01*
X156787058Y-80530679D01*
X156749957Y-80717200D01*
X156749957Y-80907395D01*
X156787058Y-81093916D01*
X156787060Y-81093924D01*
X156859840Y-81269630D01*
X156859845Y-81269640D01*
X156936864Y-81384907D01*
X156957742Y-81451585D01*
X156939257Y-81518965D01*
X156887278Y-81565655D01*
X156833762Y-81577798D01*
X153881290Y-81577798D01*
X153814251Y-81558113D01*
X153793609Y-81541479D01*
X152696972Y-80444841D01*
X152696971Y-80444840D01*
X152696968Y-80444838D01*
X152686506Y-80438798D01*
X152628446Y-80405277D01*
X152594292Y-80396125D01*
X152584377Y-80391483D01*
X152566066Y-80375310D01*
X152545202Y-80362592D01*
X152540343Y-80352589D01*
X152532010Y-80345229D01*
X152525349Y-80321722D01*
X152514674Y-80299745D01*
X152512957Y-80279183D01*
X152512957Y-80215547D01*
X152512956Y-80215545D01*
X152501325Y-80157068D01*
X152501324Y-80157066D01*
X152476015Y-80119190D01*
X152455136Y-80052513D01*
X152473620Y-79985133D01*
X152476015Y-79981406D01*
X152501324Y-79943529D01*
X152501325Y-79943527D01*
X152510843Y-79895672D01*
X152512957Y-79885046D01*
X152512957Y-78945550D01*
X152512957Y-78945547D01*
X152512956Y-78945545D01*
X152501325Y-78887068D01*
X152501324Y-78887066D01*
X152476015Y-78849190D01*
X152455136Y-78782513D01*
X152473620Y-78715133D01*
X152476015Y-78711406D01*
X152501324Y-78673529D01*
X152501325Y-78673527D01*
X152510009Y-78629866D01*
X152512957Y-78615046D01*
X152512957Y-78177200D01*
X156749957Y-78177200D01*
X156749957Y-78367395D01*
X156787058Y-78553916D01*
X156787060Y-78553924D01*
X156859840Y-78729630D01*
X156859845Y-78729640D01*
X156965503Y-78887768D01*
X156965506Y-78887772D01*
X157099982Y-79022248D01*
X157099986Y-79022251D01*
X157258114Y-79127909D01*
X157258118Y-79127911D01*
X157258121Y-79127913D01*
X157433831Y-79200695D01*
X157616624Y-79237054D01*
X157620359Y-79237797D01*
X157620363Y-79237798D01*
X157620364Y-79237798D01*
X157810551Y-79237798D01*
X157810552Y-79237797D01*
X157997083Y-79200695D01*
X158172793Y-79127913D01*
X158330928Y-79022251D01*
X158465410Y-78887769D01*
X158571072Y-78729634D01*
X158643854Y-78553924D01*
X158680957Y-78367391D01*
X158680957Y-78177205D01*
X158643854Y-77990672D01*
X158571072Y-77814962D01*
X158571070Y-77814959D01*
X158571068Y-77814955D01*
X158465410Y-77656827D01*
X158465407Y-77656823D01*
X158330931Y-77522347D01*
X158330927Y-77522344D01*
X158172799Y-77416686D01*
X158172789Y-77416681D01*
X157997083Y-77343901D01*
X157997075Y-77343899D01*
X157810554Y-77306798D01*
X157810550Y-77306798D01*
X157620364Y-77306798D01*
X157620359Y-77306798D01*
X157433838Y-77343899D01*
X157433830Y-77343901D01*
X157258124Y-77416681D01*
X157258114Y-77416686D01*
X157099986Y-77522344D01*
X157099982Y-77522347D01*
X156965506Y-77656823D01*
X156965503Y-77656827D01*
X156859845Y-77814955D01*
X156859840Y-77814965D01*
X156787060Y-77990671D01*
X156787058Y-77990679D01*
X156749957Y-78177200D01*
X152512957Y-78177200D01*
X152512957Y-77675550D01*
X152512957Y-77675547D01*
X152512956Y-77675545D01*
X152501325Y-77617068D01*
X152501324Y-77617066D01*
X152476015Y-77579190D01*
X152455136Y-77512513D01*
X152473620Y-77445133D01*
X152476015Y-77441406D01*
X152501324Y-77403529D01*
X152501325Y-77403527D01*
X152510843Y-77355672D01*
X152512957Y-77345046D01*
X152512957Y-76405550D01*
X152512957Y-76405547D01*
X152512956Y-76405545D01*
X152501325Y-76347068D01*
X152501324Y-76347066D01*
X152476015Y-76309190D01*
X152455136Y-76242513D01*
X152473620Y-76175133D01*
X152476015Y-76171406D01*
X152501324Y-76133529D01*
X152501325Y-76133527D01*
X152512956Y-76075050D01*
X152512957Y-76075048D01*
X152512957Y-75321854D01*
X152532642Y-75254815D01*
X152562646Y-75222588D01*
X152669644Y-75142488D01*
X152669647Y-75142485D01*
X152755807Y-75027391D01*
X152755811Y-75027384D01*
X152806053Y-74892677D01*
X152806055Y-74892670D01*
X152812456Y-74833142D01*
X152812457Y-74833125D01*
X152812457Y-74585298D01*
X150312457Y-74585298D01*
X150312457Y-74833142D01*
X150318858Y-74892670D01*
X150318860Y-74892677D01*
X150369102Y-75027384D01*
X150369106Y-75027391D01*
X150455266Y-75142485D01*
X150455269Y-75142488D01*
X150562268Y-75222588D01*
X150604139Y-75278521D01*
X150611957Y-75321854D01*
X150611957Y-76075050D01*
X150623588Y-76133527D01*
X150623589Y-76133528D01*
X150648899Y-76171407D01*
X150669777Y-76238085D01*
X150651292Y-76305465D01*
X150648899Y-76309189D01*
X150623589Y-76347067D01*
X150623588Y-76347068D01*
X150611957Y-76405545D01*
X150611957Y-77345050D01*
X150623588Y-77403527D01*
X150623589Y-77403528D01*
X150648899Y-77441407D01*
X150669777Y-77508085D01*
X150651292Y-77575465D01*
X150648899Y-77579189D01*
X150623589Y-77617067D01*
X150623588Y-77617068D01*
X150611957Y-77675545D01*
X150611957Y-78615050D01*
X150623588Y-78673527D01*
X150623589Y-78673528D01*
X150648899Y-78711407D01*
X150669777Y-78778085D01*
X150651292Y-78845465D01*
X150648899Y-78849189D01*
X150623589Y-78887067D01*
X150623588Y-78887068D01*
X150611957Y-78945545D01*
X150611957Y-79885050D01*
X150623588Y-79943527D01*
X150623589Y-79943528D01*
X150648899Y-79981407D01*
X150669777Y-80048085D01*
X150651292Y-80115465D01*
X150648899Y-80119189D01*
X150623589Y-80157067D01*
X150623588Y-80157068D01*
X150611957Y-80215545D01*
X150611957Y-81155050D01*
X150623588Y-81213527D01*
X150623589Y-81213528D01*
X150648899Y-81251407D01*
X150669777Y-81318085D01*
X150651292Y-81385465D01*
X150648899Y-81389189D01*
X150623589Y-81427067D01*
X150623588Y-81427068D01*
X150611957Y-81485545D01*
X150611957Y-82425050D01*
X150623588Y-82483527D01*
X150623589Y-82483528D01*
X150648899Y-82521407D01*
X150669777Y-82588085D01*
X150651292Y-82655465D01*
X150648899Y-82659189D01*
X150623589Y-82697067D01*
X150623588Y-82697068D01*
X150611957Y-82755545D01*
X150611957Y-83695050D01*
X150623588Y-83753527D01*
X150623589Y-83753528D01*
X150648899Y-83791407D01*
X150669777Y-83858085D01*
X150651292Y-83925465D01*
X150648899Y-83929189D01*
X150623589Y-83967067D01*
X150623588Y-83967068D01*
X150611957Y-84025545D01*
X150611957Y-84965050D01*
X150623588Y-85023527D01*
X150623589Y-85023528D01*
X150648899Y-85061407D01*
X150669777Y-85128085D01*
X150651292Y-85195465D01*
X150648899Y-85199189D01*
X150623589Y-85237067D01*
X150623588Y-85237068D01*
X150611957Y-85295545D01*
X150611957Y-86235050D01*
X150623588Y-86293527D01*
X150623589Y-86293528D01*
X150648899Y-86331407D01*
X150669777Y-86398085D01*
X150651292Y-86465465D01*
X150648899Y-86469189D01*
X150623589Y-86507067D01*
X150623588Y-86507068D01*
X150611957Y-86565545D01*
X150611957Y-87505050D01*
X150623588Y-87563527D01*
X150623589Y-87563528D01*
X150648899Y-87601407D01*
X150669777Y-87668085D01*
X150651292Y-87735465D01*
X150648899Y-87739189D01*
X150623589Y-87777067D01*
X150623588Y-87777068D01*
X150611957Y-87835545D01*
X150611957Y-88775050D01*
X150623588Y-88833527D01*
X150623589Y-88833528D01*
X150648899Y-88871407D01*
X150669777Y-88938085D01*
X150651292Y-89005465D01*
X150648899Y-89009189D01*
X150623589Y-89047067D01*
X150623588Y-89047068D01*
X150611957Y-89105545D01*
X150611957Y-90045050D01*
X150623588Y-90103527D01*
X150623589Y-90103528D01*
X150648899Y-90141407D01*
X150669777Y-90208085D01*
X150651292Y-90275465D01*
X150648899Y-90279189D01*
X150623589Y-90317067D01*
X150623588Y-90317068D01*
X150611957Y-90375545D01*
X150611957Y-90477236D01*
X150592272Y-90544275D01*
X150549959Y-90584622D01*
X150514949Y-90604835D01*
X150514944Y-90604839D01*
X150259998Y-90859785D01*
X150259992Y-90859793D01*
X150220439Y-90928302D01*
X150220436Y-90928307D01*
X150199957Y-91004737D01*
X150199957Y-91020798D01*
X150180272Y-91087837D01*
X150127468Y-91133592D01*
X150075957Y-91144798D01*
X149327704Y-91144798D01*
X149269227Y-91156429D01*
X149269226Y-91156430D01*
X149231348Y-91181740D01*
X149164670Y-91202618D01*
X149129603Y-91198206D01*
X149110248Y-91192887D01*
X149055688Y-91156431D01*
X148997205Y-91144798D01*
X148935233Y-91144798D01*
X148919103Y-91140366D01*
X148903038Y-91130433D01*
X148884918Y-91125113D01*
X148873938Y-91112441D01*
X148859675Y-91103623D01*
X148851530Y-91086581D01*
X148839163Y-91072309D01*
X148834529Y-91051010D01*
X148829546Y-91040583D01*
X148830541Y-91032679D01*
X148827957Y-91020798D01*
X148827957Y-89214588D01*
X148844571Y-89152587D01*
X148879846Y-89091489D01*
X148879845Y-89091489D01*
X148879849Y-89091484D01*
X148913957Y-88964190D01*
X148913957Y-88832406D01*
X148879849Y-88705112D01*
X148813957Y-88590984D01*
X148720771Y-88497798D01*
X148651425Y-88457761D01*
X148606644Y-88431906D01*
X148533154Y-88412215D01*
X148479349Y-88397798D01*
X148347565Y-88397798D01*
X148220269Y-88431906D01*
X148106143Y-88497798D01*
X148106140Y-88497800D01*
X148012959Y-88590981D01*
X148012957Y-88590984D01*
X147947065Y-88705110D01*
X147923191Y-88794213D01*
X147912957Y-88832406D01*
X147912957Y-88964190D01*
X147925014Y-89009189D01*
X147947065Y-89091485D01*
X147955183Y-89105545D01*
X148012957Y-89205612D01*
X148106143Y-89298798D01*
X148164957Y-89332754D01*
X148213172Y-89383321D01*
X148226957Y-89440141D01*
X148226957Y-91020798D01*
X148207272Y-91087837D01*
X148154468Y-91133592D01*
X148135811Y-91140366D01*
X148119681Y-91144798D01*
X148057709Y-91144798D01*
X147999226Y-91156431D01*
X147944665Y-91192887D01*
X147925311Y-91198206D01*
X147909633Y-91197932D01*
X147894670Y-91202618D01*
X147875416Y-91197336D01*
X147855452Y-91196988D01*
X147842409Y-91188280D01*
X147827290Y-91184133D01*
X147823566Y-91181740D01*
X147785687Y-91156430D01*
X147785686Y-91156429D01*
X147727209Y-91144798D01*
X147727205Y-91144798D01*
X146787709Y-91144798D01*
X146787704Y-91144798D01*
X146729227Y-91156429D01*
X146729226Y-91156430D01*
X146691348Y-91181740D01*
X146624670Y-91202618D01*
X146557290Y-91184133D01*
X146553566Y-91181740D01*
X146515687Y-91156430D01*
X146515686Y-91156429D01*
X146457209Y-91144798D01*
X146457205Y-91144798D01*
X146170957Y-91144798D01*
X146103918Y-91125113D01*
X146058163Y-91072309D01*
X146046957Y-91020798D01*
X146046957Y-90424737D01*
X146046957Y-90424736D01*
X146026478Y-90348309D01*
X145994423Y-90292787D01*
X145986921Y-90279793D01*
X145986915Y-90279785D01*
X140324109Y-84616979D01*
X140290624Y-84555656D01*
X140295608Y-84485964D01*
X140337480Y-84430031D01*
X140381103Y-84409155D01*
X140581770Y-84357901D01*
X140610319Y-84358915D01*
X140638815Y-84356878D01*
X140650637Y-84360348D01*
X140651596Y-84360383D01*
X140652213Y-84360811D01*
X140655791Y-84361862D01*
X140755080Y-84398895D01*
X140755084Y-84398896D01*
X140814612Y-84405297D01*
X140814629Y-84405298D01*
X141062457Y-84405298D01*
X141562457Y-84405298D01*
X141810285Y-84405298D01*
X141810301Y-84405297D01*
X141869829Y-84398896D01*
X141869833Y-84398895D01*
X141969123Y-84361862D01*
X142038815Y-84356878D01*
X142055791Y-84361862D01*
X142155080Y-84398895D01*
X142155084Y-84398896D01*
X142214612Y-84405297D01*
X142214629Y-84405298D01*
X142462457Y-84405298D01*
X142962457Y-84405298D01*
X143210285Y-84405298D01*
X143210301Y-84405297D01*
X143269829Y-84398896D01*
X143269836Y-84398894D01*
X143404543Y-84348652D01*
X143404550Y-84348648D01*
X143519644Y-84262488D01*
X143519647Y-84262485D01*
X143605807Y-84147391D01*
X143605811Y-84147384D01*
X143656053Y-84012677D01*
X143656055Y-84012670D01*
X143662456Y-83953142D01*
X143662457Y-83953125D01*
X143662457Y-83705298D01*
X142962457Y-83705298D01*
X142962457Y-84405298D01*
X142462457Y-84405298D01*
X142462457Y-83705298D01*
X141562457Y-83705298D01*
X141562457Y-84405298D01*
X141062457Y-84405298D01*
X141062457Y-83705298D01*
X140162457Y-83705298D01*
X140162457Y-84155965D01*
X140142772Y-84223004D01*
X140089968Y-84268759D01*
X140020810Y-84278703D01*
X139957254Y-84249678D01*
X139950776Y-84243646D01*
X139698776Y-83991646D01*
X139665291Y-83930323D01*
X139662457Y-83903965D01*
X139662457Y-83705298D01*
X139463790Y-83705298D01*
X139396751Y-83685613D01*
X139376109Y-83668979D01*
X139124109Y-83416979D01*
X139090624Y-83355656D01*
X139095608Y-83285964D01*
X139137480Y-83230031D01*
X139202944Y-83205614D01*
X139211790Y-83205298D01*
X139662457Y-83205298D01*
X140162457Y-83205298D01*
X141062457Y-83205298D01*
X141562457Y-83205298D01*
X142462457Y-83205298D01*
X142962457Y-83205298D01*
X143662457Y-83205298D01*
X143662457Y-82957470D01*
X143662456Y-82957453D01*
X143656055Y-82897925D01*
X143656054Y-82897921D01*
X143619021Y-82798632D01*
X143614037Y-82728940D01*
X143619021Y-82711964D01*
X143656054Y-82612674D01*
X143656055Y-82612670D01*
X143662456Y-82553142D01*
X143662457Y-82553125D01*
X143662457Y-82305298D01*
X142962457Y-82305298D01*
X142962457Y-83205298D01*
X142462457Y-83205298D01*
X142462457Y-82305298D01*
X141562457Y-82305298D01*
X141562457Y-83205298D01*
X141062457Y-83205298D01*
X141062457Y-82305298D01*
X140162457Y-82305298D01*
X140162457Y-83205298D01*
X139662457Y-83205298D01*
X139662457Y-82305298D01*
X138962457Y-82305298D01*
X138962457Y-82553142D01*
X138968858Y-82612670D01*
X138968860Y-82612681D01*
X139005891Y-82711966D01*
X139007317Y-82731912D01*
X139013631Y-82750892D01*
X139010191Y-82772104D01*
X139010875Y-82781658D01*
X139009852Y-82785984D01*
X138958600Y-82986651D01*
X138948400Y-83003834D01*
X138942772Y-83023004D01*
X138930934Y-83033260D01*
X138922938Y-83046734D01*
X138905066Y-83055676D01*
X138889968Y-83068759D01*
X138874463Y-83070988D01*
X138860454Y-83077998D01*
X138840589Y-83075859D01*
X138820810Y-83078703D01*
X138806559Y-83072194D01*
X138790986Y-83070518D01*
X138775431Y-83057979D01*
X138757254Y-83049678D01*
X138750776Y-83043646D01*
X136860272Y-81153142D01*
X138962457Y-81153142D01*
X138968858Y-81212670D01*
X138968860Y-81212681D01*
X139005891Y-81311966D01*
X139010875Y-81381658D01*
X139005891Y-81398630D01*
X138968860Y-81497914D01*
X138968858Y-81497925D01*
X138962457Y-81557453D01*
X138962457Y-81805298D01*
X139662457Y-81805298D01*
X140162457Y-81805298D01*
X141062457Y-81805298D01*
X141562457Y-81805298D01*
X142462457Y-81805298D01*
X142962457Y-81805298D01*
X143662457Y-81805298D01*
X143662457Y-81557470D01*
X143662456Y-81557453D01*
X143656055Y-81497925D01*
X143656054Y-81497921D01*
X143619021Y-81398632D01*
X143614037Y-81328940D01*
X143619021Y-81311964D01*
X143656054Y-81212674D01*
X143656055Y-81212670D01*
X143662456Y-81153142D01*
X143662457Y-81153125D01*
X143662457Y-80905298D01*
X142962457Y-80905298D01*
X142962457Y-81805298D01*
X142462457Y-81805298D01*
X142462457Y-80905298D01*
X141562457Y-80905298D01*
X141562457Y-81805298D01*
X141062457Y-81805298D01*
X141062457Y-80905298D01*
X140162457Y-80905298D01*
X140162457Y-81805298D01*
X139662457Y-81805298D01*
X139662457Y-80905298D01*
X138962457Y-80905298D01*
X138962457Y-81153142D01*
X136860272Y-81153142D01*
X136758276Y-81051146D01*
X136724791Y-80989823D01*
X136721957Y-80963465D01*
X136721957Y-80873407D01*
X136721957Y-80873406D01*
X136687849Y-80746112D01*
X136621957Y-80631984D01*
X136528771Y-80538798D01*
X136471707Y-80505852D01*
X136414644Y-80472906D01*
X136350996Y-80455852D01*
X136287349Y-80438798D01*
X136155565Y-80438798D01*
X136028269Y-80472906D01*
X135914143Y-80538798D01*
X135914140Y-80538800D01*
X135820959Y-80631981D01*
X135820957Y-80631984D01*
X135755065Y-80746110D01*
X135720957Y-80873406D01*
X135720957Y-81005190D01*
X135728769Y-81034346D01*
X135755065Y-81132485D01*
X135774241Y-81165698D01*
X135820957Y-81246612D01*
X135914143Y-81339798D01*
X136028271Y-81405690D01*
X136155565Y-81439798D01*
X136155567Y-81439798D01*
X136245624Y-81439798D01*
X136312663Y-81459483D01*
X136333305Y-81476117D01*
X138824638Y-83967450D01*
X138858123Y-84028773D01*
X138860957Y-84055131D01*
X138860957Y-84166736D01*
X138860957Y-84245860D01*
X138873266Y-84291798D01*
X138881436Y-84322288D01*
X138881439Y-84322293D01*
X138920992Y-84390802D01*
X138920996Y-84390807D01*
X138920997Y-84390809D01*
X138976946Y-84446758D01*
X138976948Y-84446759D01*
X138976952Y-84446762D01*
X139044853Y-84485964D01*
X139045468Y-84486319D01*
X139121895Y-84506798D01*
X139312624Y-84506798D01*
X139379663Y-84526483D01*
X139400305Y-84543117D01*
X144543979Y-89686791D01*
X144577464Y-89748114D01*
X144572480Y-89817806D01*
X144530608Y-89873739D01*
X144518299Y-89881859D01*
X144423143Y-89936798D01*
X144423140Y-89936800D01*
X144329959Y-90029981D01*
X144329957Y-90029984D01*
X144264065Y-90144110D01*
X144241552Y-90228131D01*
X144229957Y-90271406D01*
X144229957Y-90403190D01*
X144247011Y-90466837D01*
X144264065Y-90530485D01*
X144276747Y-90552450D01*
X144329957Y-90644612D01*
X144329959Y-90644614D01*
X144380638Y-90695293D01*
X144395341Y-90722220D01*
X144411934Y-90748039D01*
X144412825Y-90754239D01*
X144414123Y-90756616D01*
X144416957Y-90782974D01*
X144416957Y-91020798D01*
X144397272Y-91087837D01*
X144344468Y-91133592D01*
X144292957Y-91144798D01*
X144247704Y-91144798D01*
X144189227Y-91156429D01*
X144189226Y-91156430D01*
X144151348Y-91181740D01*
X144084670Y-91202618D01*
X144017290Y-91184133D01*
X144013566Y-91181740D01*
X143975687Y-91156430D01*
X143975686Y-91156429D01*
X143917209Y-91144798D01*
X143917205Y-91144798D01*
X142977709Y-91144798D01*
X142977704Y-91144798D01*
X142919227Y-91156429D01*
X142919226Y-91156430D01*
X142881348Y-91181740D01*
X142814670Y-91202618D01*
X142747290Y-91184133D01*
X142743566Y-91181740D01*
X142705687Y-91156430D01*
X142705686Y-91156429D01*
X142647209Y-91144798D01*
X142647205Y-91144798D01*
X141707709Y-91144798D01*
X141707704Y-91144798D01*
X141649227Y-91156429D01*
X141649226Y-91156430D01*
X141611348Y-91181740D01*
X141544670Y-91202618D01*
X141477290Y-91184133D01*
X141473566Y-91181740D01*
X141435687Y-91156430D01*
X141435686Y-91156429D01*
X141377209Y-91144798D01*
X141377205Y-91144798D01*
X140437709Y-91144798D01*
X140437704Y-91144798D01*
X140379227Y-91156429D01*
X140379226Y-91156430D01*
X140341348Y-91181740D01*
X140274670Y-91202618D01*
X140207290Y-91184133D01*
X140203566Y-91181740D01*
X140165687Y-91156430D01*
X140165686Y-91156429D01*
X140107209Y-91144798D01*
X140107205Y-91144798D01*
X139167709Y-91144798D01*
X139167704Y-91144798D01*
X139109227Y-91156429D01*
X139109226Y-91156430D01*
X139071348Y-91181740D01*
X139004670Y-91202618D01*
X138937290Y-91184133D01*
X138933566Y-91181740D01*
X138895687Y-91156430D01*
X138895686Y-91156429D01*
X138837209Y-91144798D01*
X138837205Y-91144798D01*
X137897709Y-91144798D01*
X137897704Y-91144798D01*
X137839227Y-91156429D01*
X137839226Y-91156430D01*
X137801348Y-91181740D01*
X137734670Y-91202618D01*
X137667290Y-91184133D01*
X137663566Y-91181740D01*
X137625687Y-91156430D01*
X137625686Y-91156429D01*
X137567209Y-91144798D01*
X137567205Y-91144798D01*
X136627709Y-91144798D01*
X136627704Y-91144798D01*
X136569227Y-91156429D01*
X136569226Y-91156430D01*
X136531348Y-91181740D01*
X136464670Y-91202618D01*
X136397290Y-91184133D01*
X136393566Y-91181740D01*
X136355687Y-91156430D01*
X136355686Y-91156429D01*
X136297209Y-91144798D01*
X136297205Y-91144798D01*
X135357709Y-91144798D01*
X135357704Y-91144798D01*
X135299227Y-91156429D01*
X135299226Y-91156430D01*
X135232903Y-91200746D01*
X135224638Y-91209012D01*
X135163315Y-91242497D01*
X135093623Y-91237513D01*
X135037690Y-91195641D01*
X135013273Y-91130177D01*
X135012957Y-91121331D01*
X135012957Y-90375547D01*
X135012956Y-90375545D01*
X135001325Y-90317068D01*
X135001324Y-90317066D01*
X134976015Y-90279190D01*
X134955136Y-90212513D01*
X134973620Y-90145133D01*
X134976015Y-90141406D01*
X135001324Y-90103529D01*
X135001325Y-90103527D01*
X135010122Y-90059298D01*
X135012957Y-90045046D01*
X135012957Y-89105550D01*
X135012957Y-89105547D01*
X135012956Y-89105545D01*
X135001325Y-89047068D01*
X135001324Y-89047066D01*
X134976015Y-89009190D01*
X134955136Y-88942513D01*
X134973620Y-88875133D01*
X134976015Y-88871406D01*
X135001324Y-88833529D01*
X135001325Y-88833527D01*
X135010009Y-88789866D01*
X135012957Y-88775046D01*
X135012957Y-87835550D01*
X135012957Y-87835547D01*
X135012956Y-87835545D01*
X135001325Y-87777068D01*
X135001324Y-87777066D01*
X134976015Y-87739190D01*
X134955136Y-87672513D01*
X134973620Y-87605133D01*
X134976015Y-87601406D01*
X135001324Y-87563529D01*
X135001325Y-87563527D01*
X135010843Y-87515672D01*
X135012957Y-87505046D01*
X135012957Y-86565550D01*
X135012957Y-86565547D01*
X135012956Y-86565545D01*
X135001325Y-86507068D01*
X135001324Y-86507066D01*
X134976015Y-86469190D01*
X134955136Y-86402513D01*
X134959548Y-86367443D01*
X134964865Y-86348092D01*
X135001324Y-86293529D01*
X135012957Y-86235046D01*
X135012957Y-86173072D01*
X135017389Y-86156943D01*
X135027321Y-86140878D01*
X135032642Y-86122759D01*
X135045312Y-86111780D01*
X135054132Y-86097515D01*
X135071175Y-86089369D01*
X135085446Y-86077004D01*
X135106744Y-86072370D01*
X135117172Y-86067387D01*
X135125074Y-86068382D01*
X135136957Y-86065798D01*
X138966624Y-86065798D01*
X139033663Y-86085483D01*
X139054305Y-86102117D01*
X139748638Y-86796450D01*
X139782123Y-86857773D01*
X139784957Y-86884131D01*
X139784957Y-86974190D01*
X139799482Y-87028397D01*
X139819065Y-87101485D01*
X139840416Y-87138465D01*
X139884957Y-87215612D01*
X139978143Y-87308798D01*
X140092271Y-87374690D01*
X140219565Y-87408798D01*
X140219567Y-87408798D01*
X140351347Y-87408798D01*
X140351349Y-87408798D01*
X140478643Y-87374690D01*
X140592771Y-87308798D01*
X140685957Y-87215612D01*
X140751849Y-87101484D01*
X140785957Y-86974190D01*
X140785957Y-86842406D01*
X140751849Y-86715112D01*
X140749583Y-86711188D01*
X140739522Y-86693761D01*
X140685957Y-86600984D01*
X140592771Y-86507798D01*
X140525900Y-86469190D01*
X140478644Y-86441906D01*
X140414996Y-86424852D01*
X140351349Y-86407798D01*
X140261290Y-86407798D01*
X140194251Y-86388113D01*
X140173609Y-86371479D01*
X139326969Y-85524839D01*
X139326961Y-85524833D01*
X139258452Y-85485280D01*
X139258447Y-85485277D01*
X139232970Y-85478450D01*
X139182019Y-85464798D01*
X139182017Y-85464798D01*
X138081584Y-85464798D01*
X138014545Y-85445113D01*
X137968790Y-85392309D01*
X137958846Y-85323151D01*
X137961809Y-85308705D01*
X137965334Y-85295550D01*
X137991957Y-85196190D01*
X137991957Y-85064406D01*
X137957849Y-84937112D01*
X137950612Y-84924578D01*
X137937761Y-84902319D01*
X137891957Y-84822984D01*
X137798771Y-84729798D01*
X137727213Y-84688484D01*
X137684644Y-84663906D01*
X137602227Y-84641823D01*
X137557349Y-84629798D01*
X137467290Y-84629798D01*
X137400251Y-84610113D01*
X137379609Y-84593479D01*
X135770969Y-82984839D01*
X135770961Y-82984833D01*
X135702452Y-82945280D01*
X135702447Y-82945277D01*
X135676970Y-82938450D01*
X135626019Y-82924798D01*
X135626017Y-82924798D01*
X135136957Y-82924798D01*
X135069918Y-82905113D01*
X135024163Y-82852309D01*
X135017389Y-82833653D01*
X135012957Y-82817523D01*
X135012957Y-82755550D01*
X135001324Y-82697067D01*
X134964865Y-82642503D01*
X134959548Y-82623153D01*
X134959821Y-82607475D01*
X134955136Y-82592513D01*
X134960417Y-82573258D01*
X134960766Y-82553294D01*
X134969472Y-82540252D01*
X134973620Y-82525133D01*
X134976015Y-82521406D01*
X135001324Y-82483529D01*
X135001325Y-82483527D01*
X135010843Y-82435672D01*
X135012957Y-82425046D01*
X135012957Y-81485550D01*
X135012957Y-81485547D01*
X135012956Y-81485545D01*
X135001325Y-81427068D01*
X135001324Y-81427066D01*
X134976015Y-81389190D01*
X134955136Y-81322513D01*
X134973620Y-81255133D01*
X134976015Y-81251406D01*
X135001324Y-81213529D01*
X135001325Y-81213527D01*
X135012956Y-81155050D01*
X135012957Y-81155048D01*
X135012957Y-80215547D01*
X135008437Y-80192824D01*
X135008436Y-80192822D01*
X135001401Y-80157453D01*
X138962457Y-80157453D01*
X138962457Y-80405298D01*
X139662457Y-80405298D01*
X140162457Y-80405298D01*
X141062457Y-80405298D01*
X141562457Y-80405298D01*
X142462457Y-80405298D01*
X142962457Y-80405298D01*
X143662457Y-80405298D01*
X143662457Y-80157470D01*
X143662456Y-80157453D01*
X143656055Y-80097925D01*
X143656053Y-80097918D01*
X143605811Y-79963211D01*
X143605807Y-79963204D01*
X143519647Y-79848110D01*
X143519644Y-79848107D01*
X143404550Y-79761947D01*
X143404543Y-79761943D01*
X143269836Y-79711701D01*
X143269829Y-79711699D01*
X143210301Y-79705298D01*
X142962457Y-79705298D01*
X142962457Y-80405298D01*
X142462457Y-80405298D01*
X142462457Y-79705298D01*
X142214612Y-79705298D01*
X142155084Y-79711699D01*
X142155073Y-79711701D01*
X142055789Y-79748732D01*
X141986097Y-79753716D01*
X141969125Y-79748732D01*
X141869840Y-79711701D01*
X141869829Y-79711699D01*
X141810301Y-79705298D01*
X141562457Y-79705298D01*
X141562457Y-80405298D01*
X141062457Y-80405298D01*
X141062457Y-79705298D01*
X140814612Y-79705298D01*
X140755084Y-79711699D01*
X140755073Y-79711701D01*
X140655789Y-79748732D01*
X140586097Y-79753716D01*
X140569125Y-79748732D01*
X140469840Y-79711701D01*
X140469829Y-79711699D01*
X140410301Y-79705298D01*
X140162457Y-79705298D01*
X140162457Y-80405298D01*
X139662457Y-80405298D01*
X139662457Y-79705298D01*
X139414612Y-79705298D01*
X139355084Y-79711699D01*
X139355077Y-79711701D01*
X139220370Y-79761943D01*
X139220363Y-79761947D01*
X139105269Y-79848107D01*
X139105266Y-79848110D01*
X139019106Y-79963204D01*
X139019102Y-79963211D01*
X138968860Y-80097918D01*
X138968858Y-80097925D01*
X138962457Y-80157453D01*
X135001401Y-80157453D01*
X135001324Y-80157067D01*
X134970640Y-80111146D01*
X134966581Y-80102374D01*
X134962802Y-80076994D01*
X134955136Y-80052513D01*
X134957742Y-80043012D01*
X134956291Y-80033266D01*
X134966833Y-80009872D01*
X134973620Y-79985133D01*
X134976015Y-79981406D01*
X135001324Y-79943529D01*
X135001325Y-79943527D01*
X135010843Y-79895672D01*
X135012957Y-79885046D01*
X135012957Y-78945550D01*
X135012957Y-78945547D01*
X135012956Y-78945545D01*
X135001325Y-78887068D01*
X135001324Y-78887066D01*
X134976015Y-78849190D01*
X134955136Y-78782513D01*
X134973620Y-78715133D01*
X134976015Y-78711406D01*
X135001324Y-78673529D01*
X135001325Y-78673527D01*
X135010009Y-78629866D01*
X135012957Y-78615046D01*
X135012957Y-77675550D01*
X135012957Y-77675547D01*
X135012956Y-77675545D01*
X135001325Y-77617068D01*
X135001324Y-77617066D01*
X134976015Y-77579190D01*
X134955136Y-77512513D01*
X134973620Y-77445133D01*
X134976015Y-77441406D01*
X135001324Y-77403529D01*
X135001325Y-77403527D01*
X135010843Y-77355672D01*
X135012957Y-77345046D01*
X135012957Y-76405550D01*
X135012957Y-76405547D01*
X135012956Y-76405545D01*
X135001325Y-76347068D01*
X135001324Y-76347066D01*
X134976015Y-76309190D01*
X134955136Y-76242513D01*
X134961401Y-76201322D01*
X134966681Y-76185374D01*
X135001324Y-76133529D01*
X135012957Y-76075046D01*
X135012957Y-76073736D01*
X141762957Y-76073736D01*
X141762957Y-76152860D01*
X141781471Y-76221951D01*
X141783436Y-76229285D01*
X141783436Y-76229286D01*
X141814625Y-76283309D01*
X141822997Y-76297809D01*
X141878946Y-76353758D01*
X141947469Y-76393319D01*
X142023895Y-76413798D01*
X142023897Y-76413798D01*
X142103017Y-76413798D01*
X142103019Y-76413798D01*
X142179445Y-76393319D01*
X142247968Y-76353758D01*
X142557917Y-76043809D01*
X142575171Y-76013924D01*
X142597478Y-75975287D01*
X142617957Y-75898860D01*
X142617957Y-75692736D01*
X142597478Y-75616309D01*
X142577880Y-75582364D01*
X142557921Y-75547793D01*
X142557915Y-75547785D01*
X142501969Y-75491839D01*
X142501961Y-75491833D01*
X142433452Y-75452280D01*
X142433447Y-75452277D01*
X142401321Y-75443669D01*
X142357019Y-75431798D01*
X142277895Y-75431798D01*
X142239681Y-75442037D01*
X142201466Y-75452277D01*
X142201461Y-75452280D01*
X142132952Y-75491833D01*
X142132944Y-75491839D01*
X142076998Y-75547785D01*
X142076992Y-75547793D01*
X142037439Y-75616302D01*
X142037436Y-75616307D01*
X142016955Y-75692743D01*
X142016068Y-75699482D01*
X141987799Y-75763377D01*
X141980812Y-75770972D01*
X141822995Y-75928788D01*
X141783436Y-75997309D01*
X141783436Y-75997310D01*
X141762957Y-76073736D01*
X135012957Y-76073736D01*
X135012957Y-75321854D01*
X135032642Y-75254815D01*
X135062646Y-75222588D01*
X135169644Y-75142488D01*
X135169647Y-75142485D01*
X135255807Y-75027391D01*
X135255811Y-75027384D01*
X135306053Y-74892677D01*
X135306055Y-74892670D01*
X135312456Y-74833142D01*
X135312457Y-74833125D01*
X135312457Y-74585298D01*
X132785247Y-74585298D01*
X132783833Y-74586070D01*
X132773060Y-74585298D01*
X132761095Y-74585298D01*
X132761095Y-74584440D01*
X132714142Y-74581076D01*
X132669811Y-74552581D01*
X132386636Y-74269406D01*
X154643957Y-74269406D01*
X154643957Y-74401190D01*
X154654973Y-74442302D01*
X154678065Y-74528485D01*
X154691977Y-74552581D01*
X154743957Y-74642612D01*
X154837143Y-74735798D01*
X154935978Y-74792861D01*
X154950290Y-74801124D01*
X154951271Y-74801690D01*
X155078565Y-74835798D01*
X155078567Y-74835798D01*
X155210347Y-74835798D01*
X155210349Y-74835798D01*
X155337643Y-74801690D01*
X155451771Y-74735798D01*
X155515452Y-74672117D01*
X155576775Y-74638632D01*
X155603133Y-74635798D01*
X156698832Y-74635798D01*
X156765871Y-74655483D01*
X156811626Y-74708287D01*
X156821570Y-74777445D01*
X156801934Y-74828687D01*
X156792088Y-74843425D01*
X156761588Y-74889069D01*
X156749957Y-74947545D01*
X156749957Y-76517050D01*
X156761588Y-76575527D01*
X156761589Y-76575528D01*
X156805904Y-76641850D01*
X156872226Y-76686165D01*
X156872227Y-76686166D01*
X156930704Y-76697797D01*
X156930707Y-76697798D01*
X156930709Y-76697798D01*
X158500207Y-76697798D01*
X158500208Y-76697797D01*
X158515025Y-76694850D01*
X158558686Y-76686166D01*
X158558686Y-76686165D01*
X158558688Y-76686165D01*
X158625009Y-76641850D01*
X158669324Y-76575529D01*
X158669324Y-76575527D01*
X158669325Y-76575527D01*
X158678915Y-76527311D01*
X158680957Y-76517046D01*
X158680957Y-75290131D01*
X158700642Y-75223092D01*
X158753446Y-75177337D01*
X158822604Y-75167393D01*
X158886160Y-75196418D01*
X158892638Y-75202450D01*
X163676946Y-79986758D01*
X163745469Y-80026320D01*
X163821895Y-80046798D01*
X163901019Y-80046798D01*
X169533762Y-80046798D01*
X169600801Y-80066483D01*
X169646556Y-80119287D01*
X169656500Y-80188445D01*
X169636864Y-80239689D01*
X169559845Y-80354955D01*
X169559840Y-80354965D01*
X169487060Y-80530671D01*
X169487058Y-80530679D01*
X169449957Y-80717200D01*
X169449957Y-80907395D01*
X169487058Y-81093916D01*
X169487060Y-81093924D01*
X169559840Y-81269630D01*
X169559845Y-81269640D01*
X169665503Y-81427768D01*
X169665506Y-81427772D01*
X169799982Y-81562248D01*
X169799986Y-81562251D01*
X169958114Y-81667909D01*
X169958118Y-81667911D01*
X169958121Y-81667913D01*
X170133831Y-81740695D01*
X170287686Y-81771298D01*
X170320359Y-81777797D01*
X170320363Y-81777798D01*
X170320364Y-81777798D01*
X170510551Y-81777798D01*
X170510552Y-81777797D01*
X170697083Y-81740695D01*
X170712481Y-81734317D01*
X170777370Y-81707438D01*
X170846839Y-81699968D01*
X170909319Y-81731242D01*
X170912505Y-81734317D01*
X178760638Y-89582450D01*
X178794123Y-89643773D01*
X178796957Y-89670131D01*
X178796957Y-96298693D01*
X178777272Y-96365732D01*
X178735963Y-96401526D01*
X178737380Y-96403646D01*
X178660904Y-96454745D01*
X178616589Y-96521067D01*
X178616588Y-96521068D01*
X178604957Y-96579545D01*
X178604957Y-98319050D01*
X178616588Y-98377527D01*
X178616589Y-98377528D01*
X178660904Y-98443850D01*
X178727226Y-98488165D01*
X178727227Y-98488166D01*
X178785704Y-98499797D01*
X178785707Y-98499798D01*
X178785709Y-98499798D01*
X180525207Y-98499798D01*
X180525208Y-98499797D01*
X180540025Y-98496850D01*
X180583686Y-98488166D01*
X180583686Y-98488165D01*
X180583688Y-98488165D01*
X180650009Y-98443850D01*
X180694324Y-98377529D01*
X180694324Y-98377527D01*
X180694325Y-98377527D01*
X180705956Y-98319050D01*
X180705957Y-98319048D01*
X180705957Y-96579547D01*
X180705956Y-96579545D01*
X180694325Y-96521068D01*
X180694324Y-96521067D01*
X180650009Y-96454745D01*
X180601840Y-96422560D01*
X180601839Y-96422559D01*
X180583688Y-96410430D01*
X180583686Y-96410429D01*
X180525209Y-96398798D01*
X180525205Y-96398798D01*
X179521957Y-96398798D01*
X179454918Y-96379113D01*
X179409163Y-96326309D01*
X179408997Y-96325545D01*
X186478957Y-96325545D01*
X186478957Y-98065050D01*
X186490588Y-98123527D01*
X186490589Y-98123528D01*
X186534904Y-98189850D01*
X186601226Y-98234165D01*
X186601227Y-98234166D01*
X186659704Y-98245797D01*
X186659707Y-98245798D01*
X186659709Y-98245798D01*
X188399207Y-98245798D01*
X188399208Y-98245797D01*
X188414025Y-98242850D01*
X188457686Y-98234166D01*
X188457686Y-98234165D01*
X188457688Y-98234165D01*
X188524009Y-98189850D01*
X188568324Y-98123529D01*
X188568324Y-98123527D01*
X188568325Y-98123527D01*
X188579956Y-98065050D01*
X188579957Y-98065048D01*
X188579957Y-96430131D01*
X188599642Y-96363092D01*
X188652446Y-96317337D01*
X188721604Y-96307393D01*
X188785160Y-96336418D01*
X188791638Y-96342450D01*
X189082381Y-96633193D01*
X189115866Y-96694516D01*
X189110882Y-96764208D01*
X189109261Y-96768327D01*
X189059327Y-96888877D01*
X189059325Y-96888885D01*
X189018957Y-97091828D01*
X189018957Y-97298767D01*
X189059325Y-97501710D01*
X189059327Y-97501718D01*
X189138515Y-97692894D01*
X189253481Y-97864955D01*
X189399799Y-98011273D01*
X189399802Y-98011275D01*
X189571859Y-98126239D01*
X189763037Y-98205428D01*
X189965987Y-98245797D01*
X189965991Y-98245798D01*
X189965992Y-98245798D01*
X190172923Y-98245798D01*
X190172924Y-98245797D01*
X190375877Y-98205428D01*
X190567055Y-98126239D01*
X190739112Y-98011275D01*
X190885434Y-97864953D01*
X191000398Y-97692896D01*
X191079587Y-97501718D01*
X191119957Y-97298763D01*
X191119957Y-97091833D01*
X191079587Y-96888878D01*
X191000398Y-96697700D01*
X190885434Y-96525643D01*
X190885432Y-96525640D01*
X190739114Y-96379322D01*
X190571112Y-96267068D01*
X190567055Y-96264357D01*
X190553704Y-96258827D01*
X190375877Y-96185168D01*
X190375869Y-96185166D01*
X190172926Y-96144798D01*
X190172922Y-96144798D01*
X189965992Y-96144798D01*
X189965987Y-96144798D01*
X189763044Y-96185166D01*
X189763036Y-96185168D01*
X189642486Y-96235102D01*
X189573016Y-96242571D01*
X189510537Y-96211296D01*
X189507352Y-96208222D01*
X189017276Y-95718146D01*
X188983791Y-95656823D01*
X188980957Y-95630465D01*
X188980957Y-88823736D01*
X191496957Y-88823736D01*
X191496957Y-96422860D01*
X191506593Y-96458821D01*
X191517436Y-96499287D01*
X191528445Y-96518356D01*
X191554132Y-96562846D01*
X191556997Y-96567809D01*
X191624312Y-96635124D01*
X191626142Y-96637122D01*
X191640377Y-96666150D01*
X191655866Y-96694516D01*
X191655665Y-96697325D01*
X191656905Y-96699854D01*
X191653188Y-96731959D01*
X191650882Y-96764208D01*
X191649261Y-96768327D01*
X191599327Y-96888877D01*
X191599325Y-96888885D01*
X191558957Y-97091828D01*
X191558957Y-97298767D01*
X191599325Y-97501710D01*
X191599327Y-97501718D01*
X191678515Y-97692894D01*
X191793481Y-97864955D01*
X191939799Y-98011273D01*
X191939802Y-98011275D01*
X192111859Y-98126239D01*
X192303037Y-98205428D01*
X192505987Y-98245797D01*
X192505991Y-98245798D01*
X192505992Y-98245798D01*
X192712923Y-98245798D01*
X192712924Y-98245797D01*
X192915877Y-98205428D01*
X193107055Y-98126239D01*
X193279112Y-98011275D01*
X193425434Y-97864953D01*
X193540398Y-97692896D01*
X193619587Y-97501718D01*
X193659957Y-97298763D01*
X193659957Y-97091833D01*
X193619587Y-96888878D01*
X193540398Y-96697700D01*
X193425434Y-96525643D01*
X193425432Y-96525640D01*
X193279114Y-96379322D01*
X193111112Y-96267068D01*
X193107055Y-96264357D01*
X193093704Y-96258827D01*
X192915877Y-96185168D01*
X192915869Y-96185166D01*
X192712926Y-96144798D01*
X192712922Y-96144798D01*
X192505992Y-96144798D01*
X192505987Y-96144798D01*
X192303044Y-96185166D01*
X192303032Y-96185169D01*
X192269407Y-96199097D01*
X192199938Y-96206564D01*
X192137459Y-96175288D01*
X192101808Y-96115199D01*
X192097957Y-96084535D01*
X192097957Y-94109349D01*
X192117642Y-94042310D01*
X192170446Y-93996555D01*
X192239604Y-93986611D01*
X192278252Y-93998865D01*
X192377856Y-94049616D01*
X192377858Y-94049617D01*
X192567234Y-94111150D01*
X192763894Y-94142298D01*
X192963020Y-94142298D01*
X193159679Y-94111150D01*
X193349055Y-94049617D01*
X193349057Y-94049616D01*
X193448662Y-93998865D01*
X193517331Y-93985968D01*
X193582071Y-94012244D01*
X193622329Y-94069350D01*
X193628957Y-94109349D01*
X193628957Y-96014860D01*
X193632129Y-96026696D01*
X193649436Y-96091288D01*
X193649437Y-96091289D01*
X193664968Y-96118190D01*
X193683679Y-96150598D01*
X193688997Y-96159809D01*
X193688999Y-96159811D01*
X194162381Y-96633193D01*
X194195866Y-96694516D01*
X194190882Y-96764208D01*
X194189261Y-96768327D01*
X194139327Y-96888877D01*
X194139325Y-96888885D01*
X194098957Y-97091828D01*
X194098957Y-97298767D01*
X194139325Y-97501710D01*
X194139327Y-97501718D01*
X194218515Y-97692894D01*
X194333481Y-97864955D01*
X194479799Y-98011273D01*
X194479802Y-98011275D01*
X194651859Y-98126239D01*
X194843037Y-98205428D01*
X195045987Y-98245797D01*
X195045991Y-98245798D01*
X195045992Y-98245798D01*
X195252923Y-98245798D01*
X195252924Y-98245797D01*
X195455877Y-98205428D01*
X195647055Y-98126239D01*
X195819112Y-98011275D01*
X195965434Y-97864953D01*
X196080398Y-97692896D01*
X196159587Y-97501718D01*
X196199957Y-97298763D01*
X196199957Y-97091833D01*
X196159587Y-96888878D01*
X196080398Y-96697700D01*
X195965434Y-96525643D01*
X195965432Y-96525640D01*
X195819114Y-96379322D01*
X195651112Y-96267068D01*
X195647055Y-96264357D01*
X195633704Y-96258827D01*
X195455877Y-96185168D01*
X195455869Y-96185166D01*
X195252926Y-96144798D01*
X195252922Y-96144798D01*
X195045992Y-96144798D01*
X195045987Y-96144798D01*
X194843044Y-96185166D01*
X194843036Y-96185168D01*
X194722486Y-96235102D01*
X194653016Y-96242571D01*
X194590537Y-96211296D01*
X194587352Y-96208222D01*
X194266276Y-95887146D01*
X194232791Y-95825823D01*
X194229957Y-95799465D01*
X194229957Y-86283739D01*
X194229957Y-86283736D01*
X194223916Y-86261190D01*
X194209479Y-86207310D01*
X194169917Y-86138787D01*
X193785476Y-85754346D01*
X193751991Y-85693023D01*
X193756975Y-85623331D01*
X193758597Y-85619211D01*
X193791852Y-85538929D01*
X193791852Y-85538928D01*
X193791854Y-85538924D01*
X193828957Y-85352391D01*
X193828957Y-85162205D01*
X193791854Y-84975672D01*
X193719072Y-84799962D01*
X193719070Y-84799959D01*
X193719068Y-84799955D01*
X193613410Y-84641827D01*
X193613407Y-84641823D01*
X193478931Y-84507347D01*
X193478927Y-84507344D01*
X193320799Y-84401686D01*
X193320789Y-84401681D01*
X193145083Y-84328901D01*
X193145075Y-84328899D01*
X192958554Y-84291798D01*
X192958550Y-84291798D01*
X192768364Y-84291798D01*
X192768359Y-84291798D01*
X192581838Y-84328899D01*
X192581830Y-84328901D01*
X192406124Y-84401681D01*
X192406114Y-84401686D01*
X192247986Y-84507344D01*
X192247982Y-84507347D01*
X192113506Y-84641823D01*
X192113503Y-84641827D01*
X192007845Y-84799955D01*
X192007840Y-84799965D01*
X191935060Y-84975671D01*
X191935058Y-84975679D01*
X191897957Y-85162200D01*
X191897957Y-85352395D01*
X191935058Y-85538916D01*
X191935060Y-85538924D01*
X192007840Y-85714630D01*
X192007845Y-85714640D01*
X192113503Y-85872768D01*
X192113506Y-85872772D01*
X192247982Y-86007248D01*
X192247986Y-86007251D01*
X192406114Y-86112909D01*
X192406118Y-86112911D01*
X192406121Y-86112913D01*
X192581831Y-86185695D01*
X192750195Y-86219184D01*
X192768359Y-86222797D01*
X192768363Y-86222798D01*
X192768364Y-86222798D01*
X192958551Y-86222798D01*
X192958552Y-86222797D01*
X193145083Y-86185695D01*
X193160481Y-86179317D01*
X193177307Y-86172346D01*
X193225370Y-86152437D01*
X193294839Y-86144968D01*
X193357319Y-86176242D01*
X193360505Y-86179317D01*
X193592638Y-86411450D01*
X193626123Y-86472773D01*
X193628957Y-86499131D01*
X193628957Y-86915603D01*
X193609272Y-86982642D01*
X193556468Y-87028397D01*
X193487310Y-87038341D01*
X193436066Y-87018705D01*
X193320799Y-86941686D01*
X193320789Y-86941681D01*
X193145083Y-86868901D01*
X193145075Y-86868899D01*
X192958554Y-86831798D01*
X192958550Y-86831798D01*
X192768364Y-86831798D01*
X192768359Y-86831798D01*
X192581838Y-86868899D01*
X192581830Y-86868901D01*
X192406124Y-86941681D01*
X192406114Y-86941686D01*
X192247986Y-87047344D01*
X192247982Y-87047347D01*
X192113506Y-87181823D01*
X192113503Y-87181827D01*
X192007845Y-87339955D01*
X192007840Y-87339965D01*
X191935060Y-87515671D01*
X191935058Y-87515679D01*
X191897957Y-87702200D01*
X191897957Y-87892395D01*
X191935058Y-88078916D01*
X191935061Y-88078928D01*
X191968316Y-88159213D01*
X191975785Y-88228682D01*
X191944509Y-88291161D01*
X191941437Y-88294346D01*
X191612946Y-88622838D01*
X191556998Y-88678785D01*
X191556992Y-88678793D01*
X191517439Y-88747302D01*
X191517436Y-88747307D01*
X191508636Y-88780151D01*
X191496957Y-88823736D01*
X188980957Y-88823736D01*
X188980957Y-87076130D01*
X189000642Y-87009091D01*
X189017271Y-86988454D01*
X192366409Y-83639315D01*
X192427730Y-83605832D01*
X192497422Y-83610816D01*
X192501537Y-83612435D01*
X192581831Y-83645695D01*
X192733107Y-83675785D01*
X192768359Y-83682797D01*
X192768363Y-83682798D01*
X192768364Y-83682798D01*
X192958551Y-83682798D01*
X192958552Y-83682797D01*
X193145083Y-83645695D01*
X193320793Y-83572913D01*
X193478928Y-83467251D01*
X193613410Y-83332769D01*
X193719072Y-83174634D01*
X193791854Y-82998924D01*
X193828957Y-82812391D01*
X193828957Y-82622205D01*
X193791854Y-82435672D01*
X193719072Y-82259962D01*
X193719070Y-82259959D01*
X193719068Y-82259955D01*
X193613410Y-82101827D01*
X193613407Y-82101823D01*
X193478931Y-81967347D01*
X193478927Y-81967344D01*
X193320799Y-81861686D01*
X193320789Y-81861681D01*
X193145083Y-81788901D01*
X193145075Y-81788899D01*
X192958554Y-81751798D01*
X192958550Y-81751798D01*
X192768364Y-81751798D01*
X192768359Y-81751798D01*
X192581838Y-81788899D01*
X192581830Y-81788901D01*
X192406124Y-81861681D01*
X192406114Y-81861686D01*
X192247986Y-81967344D01*
X192247982Y-81967347D01*
X192113506Y-82101823D01*
X192113503Y-82101827D01*
X192007845Y-82259955D01*
X192007840Y-82259965D01*
X191935060Y-82435671D01*
X191935058Y-82435679D01*
X191897957Y-82622200D01*
X191897957Y-82812395D01*
X191935058Y-82998916D01*
X191935061Y-82998928D01*
X191968316Y-83079213D01*
X191975785Y-83148682D01*
X191944509Y-83211161D01*
X191941436Y-83214346D01*
X188495946Y-86659838D01*
X188439998Y-86715785D01*
X188439992Y-86715793D01*
X188400439Y-86784302D01*
X188400436Y-86784307D01*
X188395461Y-86802875D01*
X188379957Y-86860736D01*
X188379957Y-95845860D01*
X188391020Y-95887146D01*
X188400436Y-95922288D01*
X188405333Y-95930769D01*
X188419769Y-95955773D01*
X188421515Y-95958796D01*
X188437989Y-96026696D01*
X188415138Y-96092723D01*
X188360217Y-96135915D01*
X188314129Y-96144798D01*
X187953957Y-96144798D01*
X187886918Y-96125113D01*
X187841163Y-96072309D01*
X187829957Y-96020798D01*
X187829957Y-85687130D01*
X187849642Y-85620091D01*
X187866271Y-85599454D01*
X192366409Y-81099315D01*
X192427730Y-81065832D01*
X192497422Y-81070816D01*
X192501537Y-81072435D01*
X192581831Y-81105695D01*
X192753920Y-81139925D01*
X192768359Y-81142797D01*
X192768363Y-81142798D01*
X192768364Y-81142798D01*
X192958551Y-81142798D01*
X192958552Y-81142797D01*
X193145083Y-81105695D01*
X193320793Y-81032913D01*
X193478928Y-80927251D01*
X193613410Y-80792769D01*
X193719072Y-80634634D01*
X193791854Y-80458924D01*
X193828957Y-80272391D01*
X193828957Y-80082205D01*
X193791854Y-79895672D01*
X193719072Y-79719962D01*
X193719070Y-79719959D01*
X193719068Y-79719955D01*
X193613410Y-79561827D01*
X193613407Y-79561823D01*
X193478931Y-79427347D01*
X193478927Y-79427344D01*
X193320799Y-79321686D01*
X193320789Y-79321681D01*
X193145083Y-79248901D01*
X193145075Y-79248899D01*
X192958554Y-79211798D01*
X192958550Y-79211798D01*
X192768364Y-79211798D01*
X192768359Y-79211798D01*
X192581838Y-79248899D01*
X192581830Y-79248901D01*
X192406124Y-79321681D01*
X192406114Y-79321686D01*
X192247986Y-79427344D01*
X192247982Y-79427347D01*
X192113506Y-79561823D01*
X192113503Y-79561827D01*
X192007845Y-79719955D01*
X192007840Y-79719965D01*
X191935060Y-79895671D01*
X191935058Y-79895679D01*
X191897957Y-80082200D01*
X191897957Y-80272395D01*
X191935058Y-80458916D01*
X191935061Y-80458928D01*
X191968316Y-80539213D01*
X191975785Y-80608682D01*
X191944509Y-80671161D01*
X191941436Y-80674346D01*
X187344946Y-85270838D01*
X187288998Y-85326785D01*
X187288992Y-85326793D01*
X187249439Y-85395302D01*
X187249436Y-85395307D01*
X187228957Y-85471737D01*
X187228957Y-96020798D01*
X187209272Y-96087837D01*
X187156468Y-96133592D01*
X187104957Y-96144798D01*
X186659704Y-96144798D01*
X186601227Y-96156429D01*
X186601226Y-96156430D01*
X186534904Y-96200745D01*
X186490589Y-96267067D01*
X186490588Y-96267068D01*
X186478957Y-96325545D01*
X179408997Y-96325545D01*
X179397957Y-96274798D01*
X179397957Y-93758992D01*
X179417642Y-93691953D01*
X179470446Y-93646198D01*
X179539604Y-93636254D01*
X179590846Y-93655889D01*
X179604799Y-93665212D01*
X179706114Y-93732909D01*
X179706118Y-93732911D01*
X179706121Y-93732913D01*
X179881831Y-93805695D01*
X180068359Y-93842797D01*
X180068363Y-93842798D01*
X180068364Y-93842798D01*
X180258551Y-93842798D01*
X180258552Y-93842797D01*
X180445083Y-93805695D01*
X180620793Y-93732913D01*
X180778928Y-93627251D01*
X180913410Y-93492769D01*
X181019072Y-93334634D01*
X181091854Y-93158924D01*
X181128957Y-92972391D01*
X181128957Y-92782205D01*
X181091854Y-92595672D01*
X181058595Y-92515381D01*
X181051127Y-92445913D01*
X181082402Y-92383434D01*
X181085444Y-92380280D01*
X181469917Y-91995809D01*
X181509479Y-91927286D01*
X181529957Y-91850860D01*
X181529957Y-91771736D01*
X181529957Y-89856184D01*
X181509478Y-89779757D01*
X181504132Y-89770497D01*
X181469921Y-89711241D01*
X181469915Y-89711233D01*
X181413968Y-89655286D01*
X180789522Y-89030839D01*
X180787891Y-89029897D01*
X180780603Y-89025690D01*
X180720998Y-88991277D01*
X180644571Y-88970798D01*
X180644569Y-88970798D01*
X180471861Y-88970798D01*
X180404822Y-88951113D01*
X180359067Y-88898309D01*
X180349123Y-88829151D01*
X180378148Y-88765595D01*
X180436926Y-88727821D01*
X180442975Y-88726334D01*
X180445073Y-88725696D01*
X180445083Y-88725695D01*
X180620793Y-88652913D01*
X180778928Y-88547251D01*
X180913410Y-88412769D01*
X181019072Y-88254634D01*
X181091854Y-88078924D01*
X181128957Y-87892391D01*
X181128957Y-87702205D01*
X181091854Y-87515672D01*
X181019072Y-87339962D01*
X181019070Y-87339959D01*
X181019068Y-87339955D01*
X180913410Y-87181827D01*
X180913407Y-87181823D01*
X180778931Y-87047347D01*
X180778927Y-87047344D01*
X180620799Y-86941686D01*
X180620789Y-86941681D01*
X180445083Y-86868901D01*
X180445075Y-86868899D01*
X180258554Y-86831798D01*
X180258550Y-86831798D01*
X180068364Y-86831798D01*
X180068359Y-86831798D01*
X179881838Y-86868899D01*
X179881830Y-86868901D01*
X179801542Y-86902158D01*
X179732072Y-86909627D01*
X179669593Y-86878352D01*
X179666408Y-86875278D01*
X177198276Y-84407146D01*
X177183572Y-84380218D01*
X177166980Y-84354400D01*
X177166088Y-84348199D01*
X177164791Y-84345823D01*
X177161957Y-84319465D01*
X177161957Y-84284798D01*
X177181642Y-84217759D01*
X177234446Y-84172004D01*
X177285957Y-84160798D01*
X178590624Y-84160798D01*
X178657663Y-84180483D01*
X178678305Y-84197117D01*
X179241437Y-84760249D01*
X179274922Y-84821572D01*
X179269938Y-84891264D01*
X179268317Y-84895383D01*
X179235060Y-84975671D01*
X179235058Y-84975679D01*
X179197957Y-85162200D01*
X179197957Y-85352395D01*
X179235058Y-85538916D01*
X179235060Y-85538924D01*
X179307840Y-85714630D01*
X179307845Y-85714640D01*
X179413503Y-85872768D01*
X179413506Y-85872772D01*
X179547982Y-86007248D01*
X179547986Y-86007251D01*
X179706114Y-86112909D01*
X179706118Y-86112911D01*
X179706121Y-86112913D01*
X179881831Y-86185695D01*
X180050195Y-86219184D01*
X180068359Y-86222797D01*
X180068363Y-86222798D01*
X180068364Y-86222798D01*
X180258551Y-86222798D01*
X180258552Y-86222797D01*
X180445083Y-86185695D01*
X180620793Y-86112913D01*
X180778928Y-86007251D01*
X180913410Y-85872769D01*
X181019072Y-85714634D01*
X181091854Y-85538924D01*
X181128957Y-85352391D01*
X181128957Y-85162205D01*
X181091854Y-84975672D01*
X181019072Y-84799962D01*
X181019070Y-84799959D01*
X181019068Y-84799955D01*
X180913410Y-84641827D01*
X180913407Y-84641823D01*
X180778931Y-84507347D01*
X180778927Y-84507344D01*
X180620799Y-84401686D01*
X180620789Y-84401681D01*
X180445083Y-84328901D01*
X180445075Y-84328899D01*
X180258554Y-84291798D01*
X180258550Y-84291798D01*
X180068364Y-84291798D01*
X180068359Y-84291798D01*
X179881838Y-84328899D01*
X179881830Y-84328901D01*
X179801542Y-84362158D01*
X179732072Y-84369627D01*
X179669593Y-84338352D01*
X179666408Y-84335278D01*
X178950967Y-83619837D01*
X178933161Y-83609557D01*
X178915355Y-83599277D01*
X178915354Y-83599276D01*
X178882451Y-83580279D01*
X178882450Y-83580278D01*
X178873417Y-83577857D01*
X178806019Y-83559798D01*
X176901019Y-83559798D01*
X176821895Y-83559798D01*
X176783681Y-83570037D01*
X176745466Y-83580277D01*
X176745461Y-83580280D01*
X176676952Y-83619833D01*
X176676944Y-83619839D01*
X176620998Y-83675785D01*
X176620992Y-83675793D01*
X176581439Y-83744302D01*
X176581436Y-83744307D01*
X176578965Y-83753529D01*
X176560957Y-83820736D01*
X176560957Y-84534860D01*
X176581436Y-84611287D01*
X176613359Y-84666579D01*
X176613360Y-84666580D01*
X176620999Y-84679812D01*
X176621000Y-84679813D01*
X179241437Y-87300249D01*
X179274922Y-87361572D01*
X179269938Y-87431264D01*
X179268317Y-87435383D01*
X179235060Y-87515671D01*
X179235058Y-87515679D01*
X179197957Y-87702200D01*
X179197957Y-87892395D01*
X179235058Y-88078916D01*
X179235060Y-88078924D01*
X179307840Y-88254630D01*
X179307845Y-88254640D01*
X179415117Y-88415184D01*
X179435995Y-88481862D01*
X179419165Y-88543207D01*
X179424119Y-88541359D01*
X179443873Y-88529157D01*
X179456243Y-88529377D01*
X179467833Y-88525055D01*
X179490516Y-88529989D01*
X179513732Y-88530404D01*
X179531499Y-88538904D01*
X179536106Y-88539907D01*
X179545570Y-88545637D01*
X179706114Y-88652909D01*
X179706118Y-88652911D01*
X179706121Y-88652913D01*
X179881831Y-88725695D01*
X179881837Y-88725696D01*
X179887663Y-88727464D01*
X179887108Y-88729293D01*
X179941157Y-88757568D01*
X179975730Y-88818284D01*
X179971989Y-88888054D01*
X179931121Y-88944725D01*
X179866102Y-88970305D01*
X179855053Y-88970798D01*
X179674738Y-88970798D01*
X179607699Y-88951113D01*
X179587057Y-88934479D01*
X179388998Y-88736420D01*
X179377872Y-88716045D01*
X179362983Y-88698229D01*
X179361441Y-88685953D01*
X179355513Y-88675097D01*
X179357169Y-88651939D01*
X179354276Y-88628904D01*
X179359614Y-88617745D01*
X179360497Y-88605405D01*
X179371812Y-88590289D01*
X179365531Y-88595932D01*
X179296561Y-88607108D01*
X179232498Y-88579222D01*
X179224334Y-88571756D01*
X173274778Y-82622200D01*
X179197957Y-82622200D01*
X179197957Y-82812395D01*
X179235058Y-82998916D01*
X179235060Y-82998924D01*
X179307840Y-83174630D01*
X179307845Y-83174640D01*
X179413503Y-83332768D01*
X179413506Y-83332772D01*
X179547982Y-83467248D01*
X179547986Y-83467251D01*
X179706114Y-83572909D01*
X179706118Y-83572911D01*
X179706121Y-83572913D01*
X179881831Y-83645695D01*
X180033107Y-83675785D01*
X180068359Y-83682797D01*
X180068363Y-83682798D01*
X180068364Y-83682798D01*
X180258551Y-83682798D01*
X180258552Y-83682797D01*
X180445083Y-83645695D01*
X180620793Y-83572913D01*
X180778928Y-83467251D01*
X180913410Y-83332769D01*
X181019072Y-83174634D01*
X181091854Y-82998924D01*
X181128957Y-82812391D01*
X181128957Y-82622205D01*
X181091854Y-82435672D01*
X181019072Y-82259962D01*
X181019070Y-82259959D01*
X181019068Y-82259955D01*
X180913410Y-82101827D01*
X180913407Y-82101823D01*
X180778931Y-81967347D01*
X180778927Y-81967344D01*
X180620799Y-81861686D01*
X180620789Y-81861681D01*
X180445083Y-81788901D01*
X180445075Y-81788899D01*
X180258554Y-81751798D01*
X180258550Y-81751798D01*
X180068364Y-81751798D01*
X180068359Y-81751798D01*
X179881838Y-81788899D01*
X179881830Y-81788901D01*
X179706124Y-81861681D01*
X179706114Y-81861686D01*
X179547986Y-81967344D01*
X179547982Y-81967347D01*
X179413506Y-82101823D01*
X179413503Y-82101827D01*
X179307845Y-82259955D01*
X179307840Y-82259965D01*
X179235060Y-82435671D01*
X179235058Y-82435679D01*
X179197957Y-82622200D01*
X173274778Y-82622200D01*
X171818276Y-81165698D01*
X171784791Y-81104375D01*
X171781957Y-81078017D01*
X171781957Y-80331185D01*
X171781957Y-80331184D01*
X171761478Y-80254757D01*
X171761474Y-80254750D01*
X171721921Y-80186241D01*
X171721915Y-80186233D01*
X171617882Y-80082200D01*
X179197957Y-80082200D01*
X179197957Y-80272395D01*
X179235058Y-80458916D01*
X179235060Y-80458924D01*
X179307840Y-80634630D01*
X179307845Y-80634640D01*
X179413503Y-80792768D01*
X179413506Y-80792772D01*
X179547982Y-80927248D01*
X179547986Y-80927251D01*
X179706114Y-81032909D01*
X179706118Y-81032911D01*
X179706121Y-81032913D01*
X179881831Y-81105695D01*
X180053920Y-81139925D01*
X180068359Y-81142797D01*
X180068363Y-81142798D01*
X180068364Y-81142798D01*
X180258551Y-81142798D01*
X180258552Y-81142797D01*
X180445083Y-81105695D01*
X180620793Y-81032913D01*
X180778928Y-80927251D01*
X180913410Y-80792769D01*
X181019072Y-80634634D01*
X181091854Y-80458924D01*
X181128957Y-80272391D01*
X181128957Y-80082205D01*
X181091854Y-79895672D01*
X181019072Y-79719962D01*
X181019070Y-79719959D01*
X181019068Y-79719955D01*
X180913410Y-79561827D01*
X180913407Y-79561823D01*
X180778931Y-79427347D01*
X180778927Y-79427344D01*
X180620799Y-79321686D01*
X180620789Y-79321681D01*
X180445083Y-79248901D01*
X180445075Y-79248899D01*
X180258554Y-79211798D01*
X180258550Y-79211798D01*
X180068364Y-79211798D01*
X180068359Y-79211798D01*
X179881838Y-79248899D01*
X179881830Y-79248901D01*
X179706124Y-79321681D01*
X179706114Y-79321686D01*
X179547986Y-79427344D01*
X179547982Y-79427347D01*
X179413506Y-79561823D01*
X179413503Y-79561827D01*
X179307845Y-79719955D01*
X179307840Y-79719965D01*
X179235060Y-79895671D01*
X179235058Y-79895679D01*
X179197957Y-80082200D01*
X171617882Y-80082200D01*
X171071912Y-79536230D01*
X171038427Y-79474907D01*
X171043411Y-79405215D01*
X171085283Y-79349282D01*
X171086707Y-79348231D01*
X171116320Y-79326715D01*
X170553031Y-78763426D01*
X170612310Y-78747543D01*
X170728604Y-78680400D01*
X170823559Y-78585445D01*
X170890702Y-78469151D01*
X170906585Y-78409872D01*
X171469874Y-78973161D01*
X171469875Y-78973161D01*
X171497381Y-78935303D01*
X171587777Y-78757892D01*
X171649309Y-78568520D01*
X171680457Y-78371861D01*
X171680457Y-78172734D01*
X171649309Y-77976075D01*
X171587777Y-77786703D01*
X171497381Y-77609292D01*
X171497172Y-77609004D01*
X171497171Y-77609002D01*
X171497168Y-77608999D01*
X171469874Y-77571433D01*
X171469874Y-77571432D01*
X170906585Y-78134722D01*
X170890702Y-78075445D01*
X170823559Y-77959151D01*
X170728604Y-77864196D01*
X170612310Y-77797053D01*
X170553031Y-77781169D01*
X170792000Y-77542200D01*
X179197957Y-77542200D01*
X179197957Y-77732395D01*
X179235058Y-77918916D01*
X179235060Y-77918924D01*
X179307840Y-78094630D01*
X179307845Y-78094640D01*
X179413503Y-78252768D01*
X179413506Y-78252772D01*
X179547982Y-78387248D01*
X179547986Y-78387251D01*
X179706114Y-78492909D01*
X179706118Y-78492911D01*
X179706121Y-78492913D01*
X179881831Y-78565695D01*
X180068359Y-78602797D01*
X180068363Y-78602798D01*
X180068364Y-78602798D01*
X180258551Y-78602798D01*
X180258552Y-78602797D01*
X180445083Y-78565695D01*
X180620793Y-78492913D01*
X180778928Y-78387251D01*
X180913410Y-78252769D01*
X181019072Y-78094634D01*
X181091854Y-77918924D01*
X181128957Y-77732391D01*
X181128957Y-77542205D01*
X181128067Y-77537734D01*
X191598457Y-77537734D01*
X191598457Y-77736861D01*
X191629604Y-77933520D01*
X191691136Y-78122892D01*
X191781534Y-78300306D01*
X191809037Y-78338161D01*
X191809038Y-78338162D01*
X192372328Y-77774872D01*
X192388212Y-77834151D01*
X192455355Y-77950445D01*
X192550310Y-78045400D01*
X192666604Y-78112543D01*
X192725882Y-78128426D01*
X192162591Y-78691715D01*
X192200451Y-78719222D01*
X192377862Y-78809618D01*
X192567234Y-78871150D01*
X192763894Y-78902298D01*
X192963020Y-78902298D01*
X193159679Y-78871150D01*
X193349051Y-78809618D01*
X193526462Y-78719222D01*
X193564320Y-78691716D01*
X193564320Y-78691715D01*
X193001031Y-78128426D01*
X193060310Y-78112543D01*
X193176604Y-78045400D01*
X193271559Y-77950445D01*
X193338702Y-77834151D01*
X193354585Y-77774872D01*
X193917874Y-78338161D01*
X193917875Y-78338161D01*
X193945381Y-78300303D01*
X194035777Y-78122892D01*
X194097309Y-77933520D01*
X194128457Y-77736861D01*
X194128457Y-77537734D01*
X194097309Y-77341075D01*
X194035777Y-77151703D01*
X193945381Y-76974292D01*
X193917874Y-76936433D01*
X193917874Y-76936432D01*
X193354585Y-77499722D01*
X193338702Y-77440445D01*
X193271559Y-77324151D01*
X193176604Y-77229196D01*
X193060310Y-77162053D01*
X193001031Y-77146169D01*
X193564321Y-76582879D01*
X193564320Y-76582878D01*
X193526465Y-76555375D01*
X193349051Y-76464977D01*
X193159679Y-76403445D01*
X192963020Y-76372298D01*
X192763894Y-76372298D01*
X192567234Y-76403445D01*
X192377862Y-76464977D01*
X192200447Y-76555375D01*
X192162592Y-76582878D01*
X192162592Y-76582879D01*
X192725882Y-77146169D01*
X192666604Y-77162053D01*
X192550310Y-77229196D01*
X192455355Y-77324151D01*
X192388212Y-77440445D01*
X192372328Y-77499723D01*
X191809038Y-76936433D01*
X191809037Y-76936433D01*
X191781534Y-76974288D01*
X191691136Y-77151703D01*
X191629604Y-77341075D01*
X191598457Y-77537734D01*
X181128067Y-77537734D01*
X181127932Y-77537054D01*
X181103990Y-77416686D01*
X181091854Y-77355672D01*
X181019072Y-77179962D01*
X181019070Y-77179959D01*
X181019068Y-77179955D01*
X180913410Y-77021827D01*
X180913407Y-77021823D01*
X180778931Y-76887347D01*
X180778927Y-76887344D01*
X180620799Y-76781686D01*
X180620790Y-76781681D01*
X180531506Y-76744699D01*
X180497946Y-76730798D01*
X180445083Y-76708901D01*
X180445075Y-76708899D01*
X180258554Y-76671798D01*
X180258550Y-76671798D01*
X180068364Y-76671798D01*
X180068359Y-76671798D01*
X179881838Y-76708899D01*
X179881830Y-76708901D01*
X179706124Y-76781681D01*
X179706114Y-76781686D01*
X179547986Y-76887344D01*
X179547982Y-76887347D01*
X179413506Y-77021823D01*
X179413503Y-77021827D01*
X179307845Y-77179955D01*
X179307840Y-77179965D01*
X179235060Y-77355671D01*
X179235058Y-77355679D01*
X179197957Y-77542200D01*
X170792000Y-77542200D01*
X171116321Y-77217879D01*
X171116320Y-77217878D01*
X171078465Y-77190375D01*
X170901051Y-77099977D01*
X170711679Y-77038445D01*
X170515020Y-77007298D01*
X170315894Y-77007298D01*
X170119234Y-77038445D01*
X169929862Y-77099977D01*
X169752447Y-77190375D01*
X169714592Y-77217878D01*
X169714592Y-77217879D01*
X170277882Y-77781169D01*
X170218604Y-77797053D01*
X170102310Y-77864196D01*
X170007355Y-77959151D01*
X169940212Y-78075445D01*
X169924328Y-78134723D01*
X169361038Y-77571433D01*
X169361037Y-77571433D01*
X169333534Y-77609288D01*
X169243136Y-77786703D01*
X169181604Y-77976075D01*
X169150457Y-78172734D01*
X169150457Y-78371861D01*
X169181604Y-78568520D01*
X169243136Y-78757892D01*
X169333534Y-78935306D01*
X169361037Y-78973161D01*
X169361038Y-78973162D01*
X169924328Y-78409872D01*
X169940212Y-78469151D01*
X170007355Y-78585445D01*
X170102310Y-78680400D01*
X170218604Y-78747543D01*
X170277882Y-78763426D01*
X169709237Y-79332069D01*
X169699074Y-79380447D01*
X169650022Y-79430204D01*
X169589821Y-79445798D01*
X164037290Y-79445798D01*
X163970251Y-79426113D01*
X163949609Y-79409479D01*
X160177330Y-75637200D01*
X169449957Y-75637200D01*
X169449957Y-75827395D01*
X169487058Y-76013916D01*
X169487060Y-76013924D01*
X169559840Y-76189630D01*
X169559845Y-76189640D01*
X169665503Y-76347768D01*
X169665506Y-76347772D01*
X169799982Y-76482248D01*
X169799986Y-76482251D01*
X169958114Y-76587909D01*
X169958118Y-76587911D01*
X169958121Y-76587913D01*
X170133831Y-76660695D01*
X170261880Y-76686165D01*
X170320359Y-76697797D01*
X170320363Y-76697798D01*
X170320364Y-76697798D01*
X170510551Y-76697798D01*
X170510552Y-76697797D01*
X170697083Y-76660695D01*
X170872793Y-76587913D01*
X171030928Y-76482251D01*
X171165410Y-76347769D01*
X171271072Y-76189634D01*
X171343854Y-76013924D01*
X171380957Y-75827391D01*
X171380957Y-75637205D01*
X171343854Y-75450672D01*
X171271072Y-75274962D01*
X171271070Y-75274959D01*
X171271068Y-75274955D01*
X171165410Y-75116827D01*
X171165407Y-75116823D01*
X171030931Y-74982347D01*
X171030927Y-74982344D01*
X170872799Y-74876686D01*
X170872787Y-74876680D01*
X170796226Y-74844966D01*
X170741824Y-74801124D01*
X170719760Y-74734830D01*
X170737040Y-74667131D01*
X170755996Y-74642729D01*
X171030609Y-74368117D01*
X171091932Y-74334632D01*
X171118290Y-74331798D01*
X179073957Y-74331798D01*
X179140996Y-74351483D01*
X179186751Y-74404287D01*
X179197957Y-74455798D01*
X179197957Y-75882050D01*
X179209588Y-75940527D01*
X179209589Y-75940528D01*
X179253904Y-76006850D01*
X179320226Y-76051165D01*
X179320227Y-76051166D01*
X179378704Y-76062797D01*
X179378707Y-76062798D01*
X179378709Y-76062798D01*
X180948207Y-76062798D01*
X180948208Y-76062797D01*
X180963025Y-76059850D01*
X181006686Y-76051166D01*
X181006686Y-76051165D01*
X181006688Y-76051165D01*
X181073009Y-76006850D01*
X181117324Y-75940529D01*
X181117324Y-75940527D01*
X181117325Y-75940527D01*
X181128956Y-75882050D01*
X181128957Y-75882048D01*
X181128957Y-74455798D01*
X181148642Y-74388759D01*
X181201446Y-74343004D01*
X181252957Y-74331798D01*
X191621624Y-74331798D01*
X191688663Y-74351483D01*
X191709305Y-74368117D01*
X191941437Y-74600249D01*
X191974922Y-74661572D01*
X191969938Y-74731264D01*
X191968317Y-74735383D01*
X191935060Y-74815671D01*
X191935058Y-74815679D01*
X191897957Y-75002200D01*
X191897957Y-75192395D01*
X191935058Y-75378916D01*
X191935060Y-75378924D01*
X192007840Y-75554630D01*
X192007845Y-75554640D01*
X192113503Y-75712768D01*
X192113506Y-75712772D01*
X192247982Y-75847248D01*
X192247986Y-75847251D01*
X192406114Y-75952909D01*
X192406118Y-75952911D01*
X192406121Y-75952913D01*
X192581831Y-76025695D01*
X192768359Y-76062797D01*
X192768363Y-76062798D01*
X192768364Y-76062798D01*
X192958551Y-76062798D01*
X192958552Y-76062797D01*
X193145083Y-76025695D01*
X193320793Y-75952913D01*
X193478928Y-75847251D01*
X193613410Y-75712769D01*
X193719072Y-75554634D01*
X193791854Y-75378924D01*
X193828957Y-75192391D01*
X193828957Y-75002205D01*
X193791854Y-74815672D01*
X193719072Y-74639962D01*
X193719070Y-74639959D01*
X193719068Y-74639955D01*
X193613410Y-74481827D01*
X193613407Y-74481823D01*
X193478931Y-74347347D01*
X193478927Y-74347344D01*
X193320799Y-74241686D01*
X193320789Y-74241681D01*
X193145083Y-74168901D01*
X193145075Y-74168899D01*
X192958554Y-74131798D01*
X192958550Y-74131798D01*
X192768364Y-74131798D01*
X192768359Y-74131798D01*
X192581838Y-74168899D01*
X192581830Y-74168901D01*
X192501542Y-74202158D01*
X192432072Y-74209627D01*
X192369593Y-74178352D01*
X192366408Y-74175278D01*
X191981967Y-73790837D01*
X191959160Y-73777670D01*
X191939929Y-73766567D01*
X191930100Y-73760892D01*
X191913447Y-73751277D01*
X191913448Y-73751277D01*
X191875232Y-73741037D01*
X191837019Y-73730798D01*
X170982019Y-73730798D01*
X170902895Y-73730798D01*
X170826467Y-73751276D01*
X170757946Y-73790838D01*
X170757943Y-73790840D01*
X170174998Y-74373785D01*
X170174992Y-74373793D01*
X170135439Y-74442302D01*
X170135436Y-74442307D01*
X170114957Y-74518737D01*
X170114957Y-74728864D01*
X170095272Y-74795903D01*
X170042468Y-74841658D01*
X170038411Y-74843425D01*
X169958121Y-74876683D01*
X169958114Y-74876686D01*
X169799986Y-74982344D01*
X169799982Y-74982347D01*
X169665506Y-75116823D01*
X169665503Y-75116827D01*
X169559845Y-75274955D01*
X169559840Y-75274965D01*
X169487060Y-75450671D01*
X169487058Y-75450679D01*
X169449957Y-75637200D01*
X160177330Y-75637200D01*
X158634969Y-74094839D01*
X158634964Y-74094835D01*
X158625522Y-74089384D01*
X158625521Y-74089384D01*
X158566448Y-74055278D01*
X158566447Y-74055277D01*
X158519643Y-74042736D01*
X158490019Y-74034798D01*
X158490017Y-74034798D01*
X155603133Y-74034798D01*
X155536094Y-74015113D01*
X155515452Y-73998479D01*
X155451773Y-73934800D01*
X155451771Y-73934798D01*
X155394707Y-73901852D01*
X155337644Y-73868906D01*
X155273996Y-73851852D01*
X155210349Y-73834798D01*
X155078565Y-73834798D01*
X154951269Y-73868906D01*
X154837143Y-73934798D01*
X154837140Y-73934800D01*
X154743959Y-74027981D01*
X154743957Y-74027984D01*
X154678065Y-74142110D01*
X154653480Y-74233865D01*
X154643957Y-74269406D01*
X132386636Y-74269406D01*
X131640709Y-73523479D01*
X131607224Y-73462156D01*
X131612208Y-73392464D01*
X131654080Y-73336531D01*
X131719544Y-73312114D01*
X131728390Y-73311798D01*
X132872217Y-73311798D01*
X132939256Y-73331483D01*
X132985011Y-73384287D01*
X132994955Y-73453445D01*
X132965930Y-73517001D01*
X132959898Y-73523479D01*
X132955266Y-73528110D01*
X132869106Y-73643204D01*
X132869102Y-73643211D01*
X132818860Y-73777918D01*
X132818858Y-73777925D01*
X132812457Y-73837453D01*
X132812457Y-74085298D01*
X135312457Y-74085298D01*
X135312457Y-73837470D01*
X135312456Y-73837453D01*
X135306055Y-73777925D01*
X135306053Y-73777918D01*
X135255811Y-73643211D01*
X135255807Y-73643204D01*
X135169647Y-73528110D01*
X135165016Y-73523479D01*
X135131531Y-73462156D01*
X135136515Y-73392464D01*
X135178387Y-73336531D01*
X135243851Y-73312114D01*
X135252697Y-73311798D01*
X150372217Y-73311798D01*
X150439256Y-73331483D01*
X150485011Y-73384287D01*
X150494955Y-73453445D01*
X150465930Y-73517001D01*
X150459898Y-73523479D01*
X150455266Y-73528110D01*
X150369106Y-73643204D01*
X150369102Y-73643211D01*
X150318860Y-73777918D01*
X150318858Y-73777925D01*
X150312457Y-73837453D01*
X150312457Y-74085298D01*
X152812457Y-74085298D01*
X152812457Y-73837470D01*
X152812456Y-73837453D01*
X152806055Y-73777925D01*
X152806053Y-73777918D01*
X152755811Y-73643211D01*
X152755807Y-73643204D01*
X152669647Y-73528110D01*
X152665016Y-73523479D01*
X152631531Y-73462156D01*
X152636515Y-73392464D01*
X152678387Y-73336531D01*
X152743851Y-73312114D01*
X152752697Y-73311798D01*
X198602817Y-73311798D01*
X198669856Y-73331483D01*
X198715611Y-73384287D01*
X198725555Y-73453445D01*
X198696530Y-73517001D01*
X198659112Y-73546283D01*
X198513335Y-73620559D01*
X198312371Y-73766569D01*
X198136728Y-73942212D01*
X198136728Y-73942213D01*
X198136726Y-73942215D01*
X198134015Y-73945947D01*
X197990718Y-74143176D01*
X197877947Y-74364503D01*
X197877946Y-74364505D01*
X197877946Y-74364506D01*
X197848283Y-74455798D01*
X197801184Y-74600754D01*
X197774677Y-74768117D01*
X197762326Y-74846096D01*
X197762326Y-74894967D01*
X197762326Y-75094500D01*
X197766351Y-75119915D01*
X197798891Y-75325365D01*
X197801185Y-75339845D01*
X197877946Y-75576090D01*
X197990718Y-75797419D01*
X198136726Y-75998381D01*
X198312374Y-76174029D01*
X198513336Y-76320037D01*
X198734665Y-76432809D01*
X198970910Y-76509570D01*
X199216255Y-76548429D01*
X199216256Y-76548429D01*
X199464658Y-76548429D01*
X199464659Y-76548429D01*
X199710004Y-76509570D01*
X199946249Y-76432809D01*
X200167578Y-76320037D01*
X200368540Y-76174029D01*
X200544188Y-75998381D01*
X200690196Y-75797419D01*
X200768108Y-75644506D01*
X200816082Y-75593710D01*
X200883903Y-75576915D01*
X200950038Y-75599452D01*
X200993490Y-75654167D01*
X201002593Y-75700817D01*
X200999036Y-102934828D01*
X200979343Y-103001865D01*
X200926533Y-103047613D01*
X200857373Y-103057548D01*
X200793821Y-103028514D01*
X200764551Y-102991107D01*
X200720385Y-102904427D01*
X200690196Y-102845177D01*
X200544188Y-102644215D01*
X200368540Y-102468567D01*
X200167578Y-102322559D01*
X199946249Y-102209787D01*
X199710004Y-102133026D01*
X199710002Y-102133025D01*
X199710001Y-102133025D01*
X199521532Y-102103174D01*
X199464659Y-102094167D01*
X199216255Y-102094167D01*
X199159381Y-102103174D01*
X198970913Y-102133025D01*
X198734662Y-102209788D01*
X198513335Y-102322559D01*
X198451283Y-102367643D01*
X198312374Y-102468567D01*
X198312372Y-102468569D01*
X198312371Y-102468569D01*
X198136728Y-102644212D01*
X198136728Y-102644213D01*
X198136726Y-102644215D01*
X198082316Y-102719104D01*
X197990718Y-102845176D01*
X197877947Y-103066503D01*
X197801184Y-103302754D01*
X197764416Y-103534898D01*
X197762326Y-103548096D01*
X197762326Y-103596967D01*
X197762326Y-103796500D01*
X197767468Y-103828965D01*
X197798417Y-104024373D01*
X197801185Y-104041845D01*
X197877946Y-104278090D01*
X197990718Y-104499419D01*
X198136726Y-104700381D01*
X198312374Y-104876029D01*
X198436000Y-104965849D01*
X198513337Y-105022038D01*
X198622433Y-105077624D01*
X198657037Y-105095256D01*
X198659646Y-105096585D01*
X198710442Y-105144559D01*
X198727238Y-105212380D01*
X198704701Y-105278515D01*
X198649986Y-105321967D01*
X198602771Y-105331069D01*
X117775973Y-104952621D01*
X117709027Y-104932622D01*
X117663520Y-104879605D01*
X117653900Y-104810400D01*
X117683222Y-104746981D01*
X117720260Y-104718137D01*
X117871576Y-104641038D01*
X117871575Y-104641038D01*
X117871578Y-104641037D01*
X118072540Y-104495029D01*
X118248188Y-104319381D01*
X118394196Y-104118419D01*
X118506968Y-103897090D01*
X118583729Y-103660845D01*
X118622588Y-103415500D01*
X118622588Y-103167096D01*
X118583729Y-102921751D01*
X118506968Y-102685506D01*
X118394196Y-102464177D01*
X118248188Y-102263215D01*
X118072540Y-102087567D01*
X117871578Y-101941559D01*
X117650249Y-101828787D01*
X117414004Y-101752026D01*
X117414002Y-101752025D01*
X117414001Y-101752025D01*
X117225532Y-101722174D01*
X117168659Y-101713167D01*
X116920255Y-101713167D01*
X116863381Y-101722174D01*
X116674913Y-101752025D01*
X116556787Y-101790406D01*
X116439635Y-101828472D01*
X116438662Y-101828788D01*
X116217335Y-101941559D01*
X116119584Y-102012580D01*
X116016374Y-102087567D01*
X116016372Y-102087569D01*
X116016371Y-102087569D01*
X115840728Y-102263212D01*
X115840728Y-102263213D01*
X115840726Y-102263215D01*
X115818071Y-102294397D01*
X115694718Y-102464176D01*
X115627010Y-102597062D01*
X115579036Y-102647858D01*
X115511215Y-102664653D01*
X115445080Y-102642116D01*
X115401628Y-102587401D01*
X115392537Y-102539075D01*
X115393219Y-102489132D01*
X115427802Y-99955142D01*
X125539457Y-99955142D01*
X125545858Y-100014670D01*
X125545860Y-100014677D01*
X125596102Y-100149384D01*
X125596106Y-100149391D01*
X125682266Y-100264485D01*
X125682269Y-100264488D01*
X125797363Y-100350648D01*
X125797370Y-100350652D01*
X125932077Y-100400894D01*
X125932084Y-100400896D01*
X125991612Y-100407297D01*
X125991629Y-100407298D01*
X126404457Y-100407298D01*
X126904457Y-100407298D01*
X127317285Y-100407298D01*
X127317301Y-100407297D01*
X127376829Y-100400896D01*
X127376836Y-100400894D01*
X127511543Y-100350652D01*
X127511550Y-100350648D01*
X127626644Y-100264488D01*
X127626647Y-100264485D01*
X127712807Y-100149391D01*
X127712811Y-100149384D01*
X127763053Y-100014677D01*
X127763055Y-100014670D01*
X127769456Y-99955142D01*
X127769457Y-99955125D01*
X127769457Y-99477298D01*
X126904457Y-99477298D01*
X126904457Y-100407298D01*
X126404457Y-100407298D01*
X126404457Y-99477298D01*
X125539457Y-99477298D01*
X125539457Y-99955142D01*
X115427802Y-99955142D01*
X115447668Y-98499453D01*
X125539457Y-98499453D01*
X125539457Y-98977298D01*
X126404457Y-98977298D01*
X126904457Y-98977298D01*
X127769457Y-98977298D01*
X127769457Y-98499470D01*
X127769456Y-98499453D01*
X127763055Y-98439925D01*
X127763053Y-98439918D01*
X127712811Y-98305211D01*
X127712807Y-98305204D01*
X127626647Y-98190110D01*
X127626644Y-98190107D01*
X127511550Y-98103947D01*
X127511543Y-98103943D01*
X127376836Y-98053701D01*
X127376829Y-98053699D01*
X127317301Y-98047298D01*
X126904457Y-98047298D01*
X126904457Y-98977298D01*
X126404457Y-98977298D01*
X126404457Y-98047298D01*
X125991612Y-98047298D01*
X125932084Y-98053699D01*
X125932077Y-98053701D01*
X125797370Y-98103943D01*
X125797363Y-98103947D01*
X125682269Y-98190107D01*
X125682266Y-98190110D01*
X125596106Y-98305204D01*
X125596102Y-98305211D01*
X125545860Y-98439918D01*
X125545858Y-98439925D01*
X125539457Y-98499453D01*
X115447668Y-98499453D01*
X115447901Y-98482413D01*
X115454805Y-97976620D01*
X133343458Y-97976620D01*
X133353601Y-98075905D01*
X133406909Y-98236779D01*
X133406914Y-98236790D01*
X133495881Y-98381026D01*
X133495884Y-98381030D01*
X133615724Y-98500870D01*
X133615728Y-98500873D01*
X133759964Y-98589840D01*
X133759975Y-98589845D01*
X133920850Y-98643153D01*
X134020140Y-98653297D01*
X134568457Y-98653297D01*
X134616765Y-98653297D01*
X134616779Y-98653296D01*
X134716064Y-98643153D01*
X134876938Y-98589845D01*
X134876949Y-98589840D01*
X135021185Y-98500873D01*
X135021189Y-98500870D01*
X135030776Y-98491284D01*
X135092099Y-98457799D01*
X135161791Y-98462783D01*
X135206138Y-98491284D01*
X135215724Y-98500870D01*
X135215728Y-98500873D01*
X135359964Y-98589840D01*
X135359975Y-98589845D01*
X135520850Y-98643153D01*
X135620140Y-98653297D01*
X136168457Y-98653297D01*
X136216765Y-98653297D01*
X136216779Y-98653296D01*
X136316064Y-98643153D01*
X136476938Y-98589845D01*
X136476949Y-98589840D01*
X136621185Y-98500873D01*
X136621189Y-98500870D01*
X136680776Y-98441284D01*
X136742099Y-98407799D01*
X136811791Y-98412783D01*
X136856138Y-98441284D01*
X136915724Y-98500870D01*
X136915728Y-98500873D01*
X137059964Y-98589840D01*
X137059975Y-98589845D01*
X137220850Y-98643153D01*
X137320140Y-98653297D01*
X137368456Y-98653296D01*
X137368457Y-98653296D01*
X137368457Y-97953298D01*
X136168457Y-97953298D01*
X136168457Y-98653297D01*
X135620140Y-98653297D01*
X135668456Y-98653296D01*
X135668457Y-98653296D01*
X135668457Y-97953298D01*
X134568457Y-97953298D01*
X134568457Y-98653297D01*
X134020140Y-98653297D01*
X134068456Y-98653296D01*
X134068457Y-98653296D01*
X134068457Y-97953298D01*
X133343458Y-97953298D01*
X133343458Y-97976620D01*
X115454805Y-97976620D01*
X115455847Y-97900244D01*
X115487863Y-95554302D01*
X115503564Y-94403880D01*
X119879458Y-94403880D01*
X119885865Y-94474400D01*
X119885866Y-94474405D01*
X119936438Y-94636694D01*
X120024384Y-94782175D01*
X120144579Y-94902370D01*
X120290061Y-94990317D01*
X120290060Y-94990317D01*
X120452351Y-95040888D01*
X120452349Y-95040888D01*
X120522875Y-95047297D01*
X121104457Y-95047297D01*
X121186038Y-95047297D01*
X121256559Y-95040889D01*
X121256564Y-95040888D01*
X121418853Y-94990316D01*
X121564334Y-94902370D01*
X121684529Y-94782175D01*
X121772476Y-94636693D01*
X121823047Y-94474404D01*
X121829457Y-94403870D01*
X121829457Y-94397298D01*
X121104457Y-94397298D01*
X121104457Y-95047297D01*
X120522875Y-95047297D01*
X120604456Y-95047296D01*
X120604457Y-95047296D01*
X120604457Y-94397298D01*
X119879458Y-94397298D01*
X119879458Y-94403880D01*
X115503564Y-94403880D01*
X115539087Y-91800975D01*
X117571457Y-91800975D01*
X117571457Y-91824298D01*
X118296457Y-91824298D01*
X118296457Y-91124298D01*
X118296456Y-91124297D01*
X118248150Y-91124298D01*
X118248132Y-91124299D01*
X118148849Y-91134442D01*
X117987975Y-91187750D01*
X117987964Y-91187755D01*
X117843728Y-91276722D01*
X117843724Y-91276725D01*
X117723884Y-91396565D01*
X117723881Y-91396569D01*
X117634914Y-91540805D01*
X117634909Y-91540816D01*
X117581601Y-91701691D01*
X117571457Y-91800975D01*
X115539087Y-91800975D01*
X115696455Y-80270298D01*
X116261614Y-80270298D01*
X117115469Y-80270298D01*
X117098252Y-80280238D01*
X117042397Y-80336093D01*
X117002901Y-80404502D01*
X116982457Y-80480802D01*
X116982457Y-80559794D01*
X117002901Y-80636094D01*
X117042397Y-80704503D01*
X117098252Y-80760358D01*
X117115469Y-80770298D01*
X116261614Y-80770298D01*
X116272807Y-80826572D01*
X116272808Y-80826574D01*
X116351957Y-81017656D01*
X116351962Y-81017666D01*
X116466867Y-81189633D01*
X116466870Y-81189637D01*
X116613117Y-81335884D01*
X116613121Y-81335887D01*
X116785088Y-81450792D01*
X116785098Y-81450797D01*
X116976182Y-81529947D01*
X116976190Y-81529949D01*
X117179036Y-81570297D01*
X117179040Y-81570298D01*
X117432457Y-81570298D01*
X117432457Y-80820298D01*
X117932457Y-80820298D01*
X117932457Y-81570298D01*
X118185874Y-81570298D01*
X118185877Y-81570297D01*
X118388723Y-81529949D01*
X118388731Y-81529947D01*
X118579815Y-81450797D01*
X118579825Y-81450792D01*
X118751792Y-81335887D01*
X118751796Y-81335884D01*
X118898043Y-81189637D01*
X118898046Y-81189633D01*
X119012951Y-81017666D01*
X119012956Y-81017656D01*
X119092105Y-80826574D01*
X119092106Y-80826572D01*
X119103300Y-80770298D01*
X118249445Y-80770298D01*
X118266662Y-80760358D01*
X118322517Y-80704503D01*
X118362013Y-80636094D01*
X118382457Y-80559794D01*
X118382457Y-80480802D01*
X118362013Y-80404502D01*
X118322517Y-80336093D01*
X118266662Y-80280238D01*
X118249445Y-80270298D01*
X119103300Y-80270298D01*
X119092106Y-80214023D01*
X119092105Y-80214021D01*
X119012956Y-80022939D01*
X119012951Y-80022929D01*
X118898046Y-79850962D01*
X118898043Y-79850958D01*
X118751796Y-79704711D01*
X118751792Y-79704708D01*
X118579825Y-79589803D01*
X118579815Y-79589798D01*
X118388731Y-79510648D01*
X118388723Y-79510646D01*
X118185877Y-79470298D01*
X117932457Y-79470298D01*
X117932457Y-80220298D01*
X117432457Y-80220298D01*
X117432457Y-79470298D01*
X117179036Y-79470298D01*
X116976190Y-79510646D01*
X116976182Y-79510648D01*
X116785098Y-79589798D01*
X116785088Y-79589803D01*
X116613121Y-79704708D01*
X116613117Y-79704711D01*
X116466870Y-79850958D01*
X116466867Y-79850962D01*
X116351962Y-80022929D01*
X116351957Y-80022939D01*
X116272808Y-80214021D01*
X116272807Y-80214023D01*
X116261614Y-80270298D01*
X115696455Y-80270298D01*
X115724189Y-78238142D01*
X116691457Y-78238142D01*
X116697858Y-78297670D01*
X116697860Y-78297677D01*
X116748102Y-78432384D01*
X116748106Y-78432391D01*
X116834266Y-78547485D01*
X116834269Y-78547488D01*
X116949363Y-78633648D01*
X116949370Y-78633652D01*
X117084077Y-78683894D01*
X117084084Y-78683896D01*
X117143612Y-78690297D01*
X117143629Y-78690298D01*
X117556457Y-78690298D01*
X118056457Y-78690298D01*
X118469285Y-78690298D01*
X118469301Y-78690297D01*
X118528829Y-78683896D01*
X118528836Y-78683894D01*
X118663543Y-78633652D01*
X118663550Y-78633648D01*
X118778644Y-78547488D01*
X118778647Y-78547485D01*
X118864807Y-78432391D01*
X118864811Y-78432384D01*
X118866764Y-78427147D01*
X124556457Y-78427147D01*
X124556457Y-78481298D01*
X125243957Y-78481298D01*
X125243957Y-77690160D01*
X125256457Y-77647590D01*
X125256457Y-77281298D01*
X124568958Y-77281298D01*
X124568958Y-77335450D01*
X124579013Y-77433881D01*
X124631863Y-77593370D01*
X124631865Y-77593375D01*
X124720071Y-77736378D01*
X124771059Y-77787366D01*
X124804544Y-77848689D01*
X124799560Y-77918381D01*
X124771061Y-77962727D01*
X124707569Y-78026219D01*
X124619365Y-78169220D01*
X124619363Y-78169225D01*
X124566514Y-78328714D01*
X124556457Y-78427147D01*
X118866764Y-78427147D01*
X118915053Y-78297677D01*
X118915055Y-78297670D01*
X118921456Y-78238142D01*
X118921457Y-78238125D01*
X118921457Y-77760298D01*
X118056457Y-77760298D01*
X118056457Y-78690298D01*
X117556457Y-78690298D01*
X117556457Y-77760298D01*
X116691457Y-77760298D01*
X116691457Y-78238142D01*
X115724189Y-78238142D01*
X115758909Y-75694155D01*
X115779505Y-75627394D01*
X115832929Y-75582364D01*
X115902216Y-75573365D01*
X115965370Y-75603255D01*
X115993381Y-75639556D01*
X116041924Y-75734827D01*
X116075718Y-75801151D01*
X116221726Y-76002113D01*
X116397374Y-76177761D01*
X116495313Y-76248918D01*
X116598337Y-76323770D01*
X116718802Y-76385149D01*
X116769598Y-76433123D01*
X116786394Y-76500944D01*
X116763857Y-76567079D01*
X116761777Y-76569941D01*
X116748107Y-76588202D01*
X116748102Y-76588211D01*
X116697860Y-76722918D01*
X116697858Y-76722925D01*
X116691457Y-76782453D01*
X116691457Y-77260298D01*
X118921457Y-77260298D01*
X118921457Y-76782470D01*
X118921456Y-76782453D01*
X118915055Y-76722925D01*
X118915053Y-76722918D01*
X118864811Y-76588211D01*
X118864807Y-76588204D01*
X118778647Y-76473110D01*
X118778644Y-76473107D01*
X118663550Y-76386947D01*
X118663543Y-76386943D01*
X118539014Y-76340497D01*
X118483080Y-76298626D01*
X118458663Y-76233161D01*
X118473515Y-76164888D01*
X118494660Y-76136640D01*
X118629188Y-76002113D01*
X118775196Y-75801151D01*
X118887968Y-75579822D01*
X118964729Y-75343577D01*
X119003588Y-75098232D01*
X119003588Y-74849828D01*
X118964729Y-74604483D01*
X118887968Y-74368238D01*
X118775196Y-74146909D01*
X118629188Y-73945947D01*
X118453540Y-73770299D01*
X118252578Y-73624291D01*
X118099478Y-73546283D01*
X118048682Y-73498309D01*
X118031887Y-73430488D01*
X118054424Y-73364353D01*
X118109139Y-73320901D01*
X118155773Y-73311798D01*
X130251624Y-73311798D01*
X130318663Y-73331483D01*
G37*
%TD.AperFunction*%
%TA.AperFunction,Conductor*%
G36*
X150568457Y-99434298D02*
G01*
X151216285Y-99434298D01*
X151216301Y-99434297D01*
X151275829Y-99427896D01*
X151275836Y-99427894D01*
X151410543Y-99377652D01*
X151410546Y-99377650D01*
X151470645Y-99332660D01*
X151536109Y-99308242D01*
X151604382Y-99323093D01*
X151653788Y-99372497D01*
X151668957Y-99431926D01*
X151668957Y-101941861D01*
X151649272Y-102008900D01*
X151596468Y-102054655D01*
X151592410Y-102056422D01*
X151471861Y-102106355D01*
X151299799Y-102221322D01*
X151153479Y-102367642D01*
X151108059Y-102435620D01*
X151054447Y-102480425D01*
X150985122Y-102489132D01*
X150922095Y-102458978D01*
X150885375Y-102399535D01*
X150880957Y-102366729D01*
X150880957Y-100608737D01*
X150865406Y-100550701D01*
X150860478Y-100532309D01*
X150860474Y-100532302D01*
X150820921Y-100463793D01*
X150820915Y-100463785D01*
X150003109Y-99645979D01*
X149969624Y-99584656D01*
X149974608Y-99514964D01*
X150016480Y-99459031D01*
X150059930Y-99442824D01*
X150068457Y-99434298D01*
X150068457Y-98517310D01*
X150125464Y-98550223D01*
X150252631Y-98584298D01*
X150384283Y-98584298D01*
X150511450Y-98550223D01*
X150568457Y-98517310D01*
X150568457Y-99434298D01*
G37*
%TD.AperFunction*%
%TA.AperFunction,Conductor*%
G36*
X152296555Y-94891748D02*
G01*
X152317197Y-94908382D01*
X152380878Y-94972063D01*
X152495006Y-95037955D01*
X152622300Y-95072063D01*
X152622302Y-95072063D01*
X152762192Y-95072063D01*
X152770877Y-95074613D01*
X152779839Y-95073325D01*
X152803879Y-95084303D01*
X152829231Y-95091748D01*
X152835158Y-95098588D01*
X152843395Y-95102350D01*
X152857684Y-95124584D01*
X152874986Y-95144552D01*
X152877273Y-95155066D01*
X152881169Y-95161128D01*
X152886192Y-95196063D01*
X152886192Y-95294229D01*
X152866507Y-95361268D01*
X152849873Y-95381910D01*
X151784946Y-96446838D01*
X151728998Y-96502785D01*
X151728992Y-96502793D01*
X151689439Y-96571302D01*
X151689436Y-96571307D01*
X151668957Y-96647737D01*
X151668957Y-96736669D01*
X151649272Y-96803708D01*
X151596468Y-96849463D01*
X151527310Y-96859407D01*
X151470646Y-96835936D01*
X151410545Y-96790944D01*
X151410543Y-96790943D01*
X151275836Y-96740701D01*
X151275829Y-96740699D01*
X151216301Y-96734298D01*
X150568457Y-96734298D01*
X150568457Y-97651286D01*
X150511450Y-97618373D01*
X150384283Y-97584298D01*
X150252631Y-97584298D01*
X150125464Y-97618373D01*
X150068457Y-97651286D01*
X150068457Y-96734298D01*
X149653790Y-96734298D01*
X149586751Y-96714613D01*
X149540996Y-96661809D01*
X149531052Y-96592651D01*
X149560077Y-96529095D01*
X149566109Y-96522617D01*
X151180344Y-94908382D01*
X151241667Y-94874897D01*
X151268025Y-94872063D01*
X152229516Y-94872063D01*
X152296555Y-94891748D01*
G37*
%TD.AperFunction*%
%TA.AperFunction,Conductor*%
G36*
X130727496Y-88578983D02*
G01*
X130773251Y-88631787D01*
X130784457Y-88683298D01*
X130784457Y-90059298D01*
X130985554Y-90059298D01*
X131028281Y-90056400D01*
X131212980Y-90010466D01*
X131383479Y-89925907D01*
X131383482Y-89925905D01*
X131531823Y-89806665D01*
X131531824Y-89806664D01*
X131651064Y-89658323D01*
X131651066Y-89658320D01*
X131728869Y-89501445D01*
X131776290Y-89450132D01*
X131843925Y-89432603D01*
X131910300Y-89454422D01*
X131954342Y-89508663D01*
X131963957Y-89556539D01*
X131963957Y-89618860D01*
X131966510Y-89628388D01*
X131984436Y-89695289D01*
X131984438Y-89695292D01*
X132020546Y-89757831D01*
X132020548Y-89757839D01*
X132020550Y-89757839D01*
X132023994Y-89763805D01*
X132023997Y-89763809D01*
X133075638Y-90815450D01*
X133109123Y-90876773D01*
X133111957Y-90903131D01*
X133111957Y-91315050D01*
X133123588Y-91373527D01*
X133123589Y-91373528D01*
X133167904Y-91439850D01*
X133234226Y-91484165D01*
X133234227Y-91484166D01*
X133292704Y-91495797D01*
X133292707Y-91495798D01*
X133292709Y-91495798D01*
X134832207Y-91495798D01*
X134832208Y-91495797D01*
X134847025Y-91492850D01*
X134890686Y-91484166D01*
X134890686Y-91484165D01*
X134890688Y-91484165D01*
X134957009Y-91439850D01*
X134957010Y-91439849D01*
X134965276Y-91431584D01*
X135026599Y-91398099D01*
X135096291Y-91403083D01*
X135152224Y-91444955D01*
X135176641Y-91510419D01*
X135176957Y-91519265D01*
X135176957Y-92865050D01*
X135188588Y-92923527D01*
X135188589Y-92923528D01*
X135232904Y-92989850D01*
X135299226Y-93034165D01*
X135299227Y-93034166D01*
X135357704Y-93045797D01*
X135357707Y-93045798D01*
X135357709Y-93045798D01*
X136297207Y-93045798D01*
X136297208Y-93045797D01*
X136312025Y-93042850D01*
X136355686Y-93034166D01*
X136355688Y-93034165D01*
X136393565Y-93008856D01*
X136460242Y-92987977D01*
X136527622Y-93006461D01*
X136531349Y-93008856D01*
X136569225Y-93034165D01*
X136569227Y-93034166D01*
X136627704Y-93045797D01*
X136627707Y-93045798D01*
X136627709Y-93045798D01*
X137567207Y-93045798D01*
X137567208Y-93045797D01*
X137582025Y-93042850D01*
X137625686Y-93034166D01*
X137625688Y-93034165D01*
X137663565Y-93008856D01*
X137730242Y-92987977D01*
X137797622Y-93006461D01*
X137801349Y-93008856D01*
X137839225Y-93034165D01*
X137839227Y-93034166D01*
X137897704Y-93045797D01*
X137897707Y-93045798D01*
X137897709Y-93045798D01*
X138837207Y-93045798D01*
X138837208Y-93045797D01*
X138852025Y-93042850D01*
X138895686Y-93034166D01*
X138895688Y-93034165D01*
X138933565Y-93008856D01*
X139000242Y-92987977D01*
X139067622Y-93006461D01*
X139071349Y-93008856D01*
X139109225Y-93034165D01*
X139109227Y-93034166D01*
X139167704Y-93045797D01*
X139167707Y-93045798D01*
X139167709Y-93045798D01*
X140107207Y-93045798D01*
X140107208Y-93045797D01*
X140122025Y-93042850D01*
X140165686Y-93034166D01*
X140165688Y-93034165D01*
X140203565Y-93008856D01*
X140270242Y-92987977D01*
X140337622Y-93006461D01*
X140341349Y-93008856D01*
X140379225Y-93034165D01*
X140379227Y-93034166D01*
X140437704Y-93045797D01*
X140437707Y-93045798D01*
X140437709Y-93045798D01*
X140916624Y-93045798D01*
X140983663Y-93065483D01*
X141029418Y-93118287D01*
X141039362Y-93187445D01*
X141010337Y-93251001D01*
X141004305Y-93257479D01*
X138462463Y-95799320D01*
X138401140Y-95832805D01*
X138331448Y-95827821D01*
X138275515Y-95785949D01*
X138264299Y-95767938D01*
X138216985Y-95675078D01*
X138216981Y-95675074D01*
X138216980Y-95675072D01*
X138121682Y-95579774D01*
X138121678Y-95579771D01*
X138121677Y-95579770D01*
X138001583Y-95518579D01*
X138001581Y-95518578D01*
X138001578Y-95518577D01*
X137901950Y-95502798D01*
X137901945Y-95502798D01*
X137334969Y-95502798D01*
X137334964Y-95502798D01*
X137235335Y-95518577D01*
X137115235Y-95579771D01*
X137115231Y-95579774D01*
X137019933Y-95675072D01*
X137019930Y-95675077D01*
X137019929Y-95675078D01*
X136971277Y-95770563D01*
X136963874Y-95785093D01*
X136953424Y-95796157D01*
X136947102Y-95810001D01*
X136929921Y-95821042D01*
X136915899Y-95835889D01*
X136900219Y-95840130D01*
X136888324Y-95847775D01*
X136853389Y-95852798D01*
X136683525Y-95852798D01*
X136616486Y-95833113D01*
X136573040Y-95785093D01*
X136516985Y-95675078D01*
X136516981Y-95675074D01*
X136516980Y-95675072D01*
X136421682Y-95579774D01*
X136421678Y-95579771D01*
X136421677Y-95579770D01*
X136301583Y-95518579D01*
X136301581Y-95518578D01*
X136301578Y-95518577D01*
X136201950Y-95502798D01*
X136201945Y-95502798D01*
X135634969Y-95502798D01*
X135634964Y-95502798D01*
X135535335Y-95518577D01*
X135415235Y-95579771D01*
X135415231Y-95579774D01*
X135319933Y-95675072D01*
X135319930Y-95675077D01*
X135319929Y-95675078D01*
X135271277Y-95770563D01*
X135263874Y-95785093D01*
X135253424Y-95796157D01*
X135247102Y-95810001D01*
X135229921Y-95821042D01*
X135215899Y-95835889D01*
X135200219Y-95840130D01*
X135188324Y-95847775D01*
X135153389Y-95852798D01*
X135083525Y-95852798D01*
X135016486Y-95833113D01*
X134973040Y-95785093D01*
X134916985Y-95675078D01*
X134916981Y-95675074D01*
X134916980Y-95675072D01*
X134821682Y-95579774D01*
X134821678Y-95579771D01*
X134821677Y-95579770D01*
X134701583Y-95518579D01*
X134701581Y-95518578D01*
X134701578Y-95518577D01*
X134601950Y-95502798D01*
X134601945Y-95502798D01*
X134034969Y-95502798D01*
X134034964Y-95502798D01*
X133935335Y-95518577D01*
X133815235Y-95579771D01*
X133815231Y-95579774D01*
X133719933Y-95675072D01*
X133719930Y-95675077D01*
X133719929Y-95675078D01*
X133671277Y-95770563D01*
X133663874Y-95785093D01*
X133615899Y-95835889D01*
X133553389Y-95852798D01*
X132942290Y-95852798D01*
X132875251Y-95833113D01*
X132854609Y-95816479D01*
X131656969Y-94618839D01*
X131656961Y-94618833D01*
X131588452Y-94579280D01*
X131588447Y-94579277D01*
X131562970Y-94572450D01*
X131512019Y-94558798D01*
X131512017Y-94558798D01*
X130458957Y-94558798D01*
X130391918Y-94539113D01*
X130346163Y-94486309D01*
X130334957Y-94434798D01*
X130334957Y-94302684D01*
X130334957Y-94302682D01*
X130328543Y-94232102D01*
X130277935Y-94069692D01*
X130189929Y-93924113D01*
X130189927Y-93924111D01*
X130189926Y-93924109D01*
X130069645Y-93803828D01*
X129952331Y-93732909D01*
X129924063Y-93715820D01*
X129761653Y-93665212D01*
X129761651Y-93665211D01*
X129761649Y-93665211D01*
X129712235Y-93660721D01*
X129691073Y-93658798D01*
X129691070Y-93658798D01*
X128658957Y-93658798D01*
X128591918Y-93639113D01*
X128546163Y-93586309D01*
X128534957Y-93534798D01*
X128534957Y-89883291D01*
X128554642Y-89816252D01*
X128607446Y-89770497D01*
X128643307Y-89761505D01*
X128643152Y-89760328D01*
X128647177Y-89759798D01*
X128759693Y-89744985D01*
X128899690Y-89686996D01*
X129019908Y-89594749D01*
X129112155Y-89474531D01*
X129112157Y-89474527D01*
X129117102Y-89468083D01*
X129118233Y-89468951D01*
X129162437Y-89426794D01*
X129231043Y-89413564D01*
X129295910Y-89439526D01*
X129330356Y-89481909D01*
X129417849Y-89658323D01*
X129537089Y-89806664D01*
X129537090Y-89806665D01*
X129685431Y-89925905D01*
X129685434Y-89925907D01*
X129855933Y-90010466D01*
X130040632Y-90056400D01*
X130083360Y-90059298D01*
X130284457Y-90059298D01*
X130284457Y-88683298D01*
X130304142Y-88616259D01*
X130356946Y-88570504D01*
X130408457Y-88559298D01*
X130660457Y-88559298D01*
X130727496Y-88578983D01*
G37*
%TD.AperFunction*%
%TA.AperFunction,Conductor*%
G36*
X123637404Y-88400825D02*
G01*
X123664383Y-88406694D01*
X123669904Y-88412215D01*
X123677276Y-88414799D01*
X123694263Y-88436573D01*
X123713789Y-88456099D01*
X123715876Y-88464278D01*
X123720253Y-88469888D01*
X123721900Y-88487878D01*
X123728957Y-88515526D01*
X123728957Y-89146464D01*
X123709272Y-89213503D01*
X123692638Y-89234145D01*
X123542804Y-89383979D01*
X123481481Y-89417464D01*
X123455123Y-89420298D01*
X122569445Y-89420298D01*
X122586662Y-89410358D01*
X122642517Y-89354503D01*
X122682013Y-89286094D01*
X122702457Y-89209794D01*
X122702457Y-89130802D01*
X122682013Y-89054502D01*
X122642517Y-88986093D01*
X122586662Y-88930238D01*
X122569445Y-88920298D01*
X123423300Y-88920298D01*
X123412106Y-88864023D01*
X123412105Y-88864021D01*
X123377365Y-88780151D01*
X123369896Y-88710682D01*
X123381932Y-88675450D01*
X123494963Y-88458278D01*
X123514095Y-88438367D01*
X123530646Y-88416259D01*
X123537964Y-88413529D01*
X123543375Y-88407899D01*
X123570234Y-88401493D01*
X123596110Y-88391842D01*
X123603741Y-88393502D01*
X123611339Y-88391690D01*
X123637404Y-88400825D01*
G37*
%TD.AperFunction*%
%TA.AperFunction,Conductor*%
G36*
X131713160Y-74446318D02*
G01*
X131719638Y-74452350D01*
X132674638Y-75407350D01*
X132708123Y-75468673D01*
X132710957Y-75495031D01*
X132710957Y-76813860D01*
X132712455Y-76819450D01*
X132731437Y-76890291D01*
X132731438Y-76890292D01*
X132745882Y-76915309D01*
X132745883Y-76915310D01*
X132770997Y-76958809D01*
X132927946Y-77115758D01*
X132996469Y-77155320D01*
X133020051Y-77161638D01*
X133079711Y-77198003D01*
X133108178Y-77251033D01*
X133111957Y-77265987D01*
X133111957Y-77345046D01*
X133123590Y-77403529D01*
X133160778Y-77459184D01*
X133166018Y-77479918D01*
X133165469Y-77494326D01*
X133169777Y-77508085D01*
X133164165Y-77528539D01*
X133163358Y-77549737D01*
X133155106Y-77561561D01*
X133151292Y-77575465D01*
X133148899Y-77579189D01*
X133123589Y-77617067D01*
X133123588Y-77617068D01*
X133111957Y-77675545D01*
X133111957Y-78615050D01*
X133123588Y-78673527D01*
X133123589Y-78673528D01*
X133148899Y-78711407D01*
X133169777Y-78778085D01*
X133151292Y-78845465D01*
X133148899Y-78849189D01*
X133123589Y-78887067D01*
X133123588Y-78887068D01*
X133111957Y-78945545D01*
X133111957Y-79885050D01*
X133123588Y-79943527D01*
X133123589Y-79943528D01*
X133148899Y-79981407D01*
X133169777Y-80048085D01*
X133151292Y-80115465D01*
X133148899Y-80119189D01*
X133123589Y-80157067D01*
X133123588Y-80157068D01*
X133111957Y-80215545D01*
X133111957Y-81155050D01*
X133123588Y-81213527D01*
X133123589Y-81213528D01*
X133148899Y-81251407D01*
X133169777Y-81318085D01*
X133151292Y-81385465D01*
X133148899Y-81389189D01*
X133123589Y-81427067D01*
X133123588Y-81427068D01*
X133111957Y-81485545D01*
X133111957Y-82425050D01*
X133123588Y-82483527D01*
X133123589Y-82483528D01*
X133148899Y-82521407D01*
X133169777Y-82588085D01*
X133151292Y-82655465D01*
X133148899Y-82659189D01*
X133123589Y-82697067D01*
X133123588Y-82697068D01*
X133111957Y-82755545D01*
X133111957Y-83695050D01*
X133123588Y-83753527D01*
X133123589Y-83753528D01*
X133148899Y-83791407D01*
X133169777Y-83858085D01*
X133151292Y-83925465D01*
X133148899Y-83929189D01*
X133123589Y-83967067D01*
X133123588Y-83967068D01*
X133111957Y-84025545D01*
X133111957Y-84965050D01*
X133123588Y-85023527D01*
X133123589Y-85023528D01*
X133148899Y-85061407D01*
X133169777Y-85128085D01*
X133151292Y-85195465D01*
X133148899Y-85199189D01*
X133123589Y-85237067D01*
X133123588Y-85237068D01*
X133111957Y-85295545D01*
X133111957Y-86235050D01*
X133123588Y-86293527D01*
X133123589Y-86293528D01*
X133148899Y-86331407D01*
X133169777Y-86398085D01*
X133151292Y-86465465D01*
X133148899Y-86469189D01*
X133123589Y-86507067D01*
X133123588Y-86507068D01*
X133111957Y-86565545D01*
X133111957Y-87138465D01*
X133092272Y-87205504D01*
X133039468Y-87251259D01*
X132970310Y-87261203D01*
X132906754Y-87232178D01*
X132900276Y-87226146D01*
X132849969Y-87175839D01*
X132849961Y-87175833D01*
X132781452Y-87136280D01*
X132781447Y-87136277D01*
X132755970Y-87129450D01*
X132705019Y-87115798D01*
X132705017Y-87115798D01*
X132414226Y-87115798D01*
X132347187Y-87096113D01*
X132326545Y-87079479D01*
X131353223Y-86106157D01*
X131319738Y-86044834D01*
X131324722Y-85975142D01*
X131366594Y-85919209D01*
X131410538Y-85899616D01*
X131410297Y-85898842D01*
X131578853Y-85846316D01*
X131724334Y-85758370D01*
X131844529Y-85638175D01*
X131932476Y-85492693D01*
X131983047Y-85330404D01*
X131989457Y-85259870D01*
X131989457Y-85253298D01*
X131138457Y-85253298D01*
X131071418Y-85233613D01*
X131025663Y-85180809D01*
X131014457Y-85129298D01*
X131014457Y-84877298D01*
X131034142Y-84810259D01*
X131086946Y-84764504D01*
X131138457Y-84753298D01*
X131989456Y-84753298D01*
X131989456Y-84746715D01*
X131983048Y-84676195D01*
X131983047Y-84676190D01*
X131932475Y-84513901D01*
X131844529Y-84368420D01*
X131724334Y-84248225D01*
X131578852Y-84160278D01*
X131578853Y-84160278D01*
X131498248Y-84135161D01*
X131440100Y-84096424D01*
X131412126Y-84032398D01*
X131423208Y-83963413D01*
X131469826Y-83911370D01*
X131478826Y-83906300D01*
X131527799Y-83881348D01*
X131617507Y-83791640D01*
X131675103Y-83678602D01*
X131675103Y-83678600D01*
X131675104Y-83678599D01*
X131689956Y-83584822D01*
X131689957Y-83584817D01*
X131689956Y-83121780D01*
X131675103Y-83027994D01*
X131617507Y-82914956D01*
X131617503Y-82914952D01*
X131617502Y-82914950D01*
X131527804Y-82825252D01*
X131527801Y-82825250D01*
X131527799Y-82825248D01*
X131423499Y-82772104D01*
X131414758Y-82767650D01*
X131320981Y-82752798D01*
X130707939Y-82752798D01*
X130630608Y-82765046D01*
X130614153Y-82767652D01*
X130501115Y-82825248D01*
X130501114Y-82825249D01*
X130501109Y-82825252D01*
X130411411Y-82914950D01*
X130411408Y-82914955D01*
X130411407Y-82914956D01*
X130406012Y-82925545D01*
X130353809Y-83027996D01*
X130338957Y-83121773D01*
X130338957Y-83170798D01*
X130319272Y-83237837D01*
X130266468Y-83283592D01*
X130214957Y-83294798D01*
X123326957Y-83294798D01*
X123259918Y-83275113D01*
X123214163Y-83222309D01*
X123202957Y-83170798D01*
X123202957Y-82925547D01*
X123202956Y-82925545D01*
X123196680Y-82893989D01*
X123202907Y-82824397D01*
X123245771Y-82769220D01*
X123311661Y-82745976D01*
X123318297Y-82745798D01*
X129007017Y-82745798D01*
X129007019Y-82745798D01*
X129083446Y-82725319D01*
X129151968Y-82685758D01*
X129207917Y-82629809D01*
X130701113Y-81136611D01*
X130762434Y-81103128D01*
X130769374Y-81101824D01*
X130831761Y-81091944D01*
X130944799Y-81034348D01*
X131034507Y-80944640D01*
X131092103Y-80831602D01*
X131092103Y-80831600D01*
X131092104Y-80831599D01*
X131103474Y-80759805D01*
X131106957Y-80737817D01*
X131106956Y-80124780D01*
X131092103Y-80030994D01*
X131034507Y-79917956D01*
X131034503Y-79917952D01*
X131034502Y-79917950D01*
X130944804Y-79828252D01*
X130944801Y-79828250D01*
X130944799Y-79828248D01*
X130867974Y-79789103D01*
X130831758Y-79770650D01*
X130737981Y-79755798D01*
X130347710Y-79755798D01*
X130326464Y-79749559D01*
X130304376Y-79747980D01*
X130293592Y-79739907D01*
X130280671Y-79736113D01*
X130266171Y-79719379D01*
X130248443Y-79706108D01*
X130243735Y-79693487D01*
X130234916Y-79683309D01*
X130231764Y-79661390D01*
X130224026Y-79640643D01*
X130226888Y-79627482D01*
X130224972Y-79614151D01*
X130234171Y-79594007D01*
X130238878Y-79572371D01*
X130252147Y-79554644D01*
X130253997Y-79550595D01*
X130259995Y-79544151D01*
X130361033Y-79443113D01*
X130422355Y-79409631D01*
X130448712Y-79406797D01*
X130737974Y-79406797D01*
X130737975Y-79406797D01*
X130831761Y-79391944D01*
X130944799Y-79334348D01*
X131034507Y-79244640D01*
X131092103Y-79131602D01*
X131092103Y-79131600D01*
X131092104Y-79131599D01*
X131104426Y-79053795D01*
X131106957Y-79037817D01*
X131106956Y-78424780D01*
X131106956Y-78424779D01*
X131106956Y-78424774D01*
X131095049Y-78349593D01*
X131099089Y-78318324D01*
X131101340Y-78286862D01*
X131103534Y-78283930D01*
X131104004Y-78280300D01*
X131124309Y-78256178D01*
X131143212Y-78230929D01*
X131146642Y-78229649D01*
X131149001Y-78226848D01*
X131179128Y-78217532D01*
X131208676Y-78206512D01*
X131212254Y-78207290D01*
X131215752Y-78206209D01*
X131246135Y-78214660D01*
X131276949Y-78221364D01*
X131280920Y-78224337D01*
X131283066Y-78224934D01*
X131305203Y-78242515D01*
X131362638Y-78299950D01*
X131396123Y-78361273D01*
X131398957Y-78387631D01*
X131398957Y-78488861D01*
X131405560Y-78513504D01*
X131405561Y-78577686D01*
X131402957Y-78587403D01*
X131402957Y-78587406D01*
X131402957Y-78719190D01*
X131405757Y-78729640D01*
X131437065Y-78846485D01*
X131460496Y-78887068D01*
X131502957Y-78960612D01*
X131596143Y-79053798D01*
X131710271Y-79119690D01*
X131837565Y-79153798D01*
X131837567Y-79153798D01*
X131969347Y-79153798D01*
X131969349Y-79153798D01*
X132096643Y-79119690D01*
X132210771Y-79053798D01*
X132303957Y-78960612D01*
X132369849Y-78846484D01*
X132403957Y-78719190D01*
X132403957Y-78587406D01*
X132369849Y-78460112D01*
X132303957Y-78345984D01*
X132210771Y-78252798D01*
X132140384Y-78212160D01*
X132096642Y-78186905D01*
X132065863Y-78178658D01*
X132006203Y-78142293D01*
X131984489Y-78102527D01*
X131982587Y-78103316D01*
X131979480Y-78095816D01*
X131979478Y-78095809D01*
X131964954Y-78070652D01*
X131939921Y-78027293D01*
X131939915Y-78027285D01*
X131155775Y-77243145D01*
X131141071Y-77216217D01*
X131124479Y-77190399D01*
X131123587Y-77184198D01*
X131122290Y-77181822D01*
X131119456Y-77155464D01*
X131119456Y-76907131D01*
X131139141Y-76840092D01*
X131155775Y-76819450D01*
X131277428Y-76697797D01*
X131447917Y-76527309D01*
X131456004Y-76513302D01*
X131487478Y-76458787D01*
X131507957Y-76382360D01*
X131507957Y-74540031D01*
X131527642Y-74472992D01*
X131580446Y-74427237D01*
X131649604Y-74417293D01*
X131713160Y-74446318D01*
G37*
%TD.AperFunction*%
%TD*%
M02*
