%TF.GenerationSoftware,KiCad,Pcbnew,9.0.7-9.0.7~ubuntu24.04.1*%
%TF.CreationDate,2026-01-19T19:18:33+05:30*%
%TF.ProjectId,controller,636f6e74-726f-46c6-9c65-722e6b696361,rev?*%
%TF.SameCoordinates,Original*%
%TF.FileFunction,Soldermask,Bot*%
%TF.FilePolarity,Negative*%
%FSLAX46Y46*%
G04 Gerber Fmt 4.6, Leading zero omitted, Abs format (unit mm)*
G04 Created by KiCad (PCBNEW 9.0.7-9.0.7~ubuntu24.04.1) date 2026-01-19 19:18:33*
%MOMM*%
%LPD*%
G01*
G04 APERTURE LIST*
G04 Aperture macros list*
%AMRoundRect*
0 Rectangle with rounded corners*
0 $1 Rounding radius*
0 $2 $3 $4 $5 $6 $7 $8 $9 X,Y pos of 4 corners*
0 Add a 4 corners polygon primitive as box body*
4,1,4,$2,$3,$4,$5,$6,$7,$8,$9,$2,$3,0*
0 Add four circle primitives for the rounded corners*
1,1,$1+$1,$2,$3*
1,1,$1+$1,$4,$5*
1,1,$1+$1,$6,$7*
1,1,$1+$1,$8,$9*
0 Add four rect primitives between the rounded corners*
20,1,$1+$1,$2,$3,$4,$5,0*
20,1,$1+$1,$4,$5,$6,$7,0*
20,1,$1+$1,$6,$7,$8,$9,0*
20,1,$1+$1,$8,$9,$2,$3,0*%
G04 Aperture macros list end*
%ADD10R,1.700000X1.700000*%
%ADD11C,1.700000*%
%ADD12RoundRect,0.102000X-0.765000X-0.765000X0.765000X-0.765000X0.765000X0.765000X-0.765000X0.765000X0*%
%ADD13C,1.734000*%
%ADD14C,0.600000*%
%ADD15O,2.200000X1.100000*%
%ADD16O,1.900000X1.100000*%
G04 APERTURE END LIST*
D10*
%TO.C,J7*%
X150318457Y-98084298D03*
D11*
X147778457Y-98084298D03*
X145238457Y-98084298D03*
X142698457Y-98084298D03*
%TD*%
D10*
%TO.C,J6*%
X165939457Y-101894298D03*
D11*
X168479457Y-101894298D03*
%TD*%
D10*
%TO.C,J5*%
X162129457Y-98084298D03*
D11*
X159589457Y-98084298D03*
X157049457Y-98084298D03*
X154509457Y-98084298D03*
%TD*%
D10*
%TO.C,J4*%
X154509457Y-103037298D03*
D11*
X151969457Y-103037298D03*
X149429457Y-103037298D03*
X146889457Y-103037298D03*
%TD*%
D10*
%TO.C,J3*%
X187529457Y-97195298D03*
D11*
X190069457Y-97195298D03*
X192609457Y-97195298D03*
X195149457Y-97195298D03*
%TD*%
D10*
%TO.C,J2*%
X179655457Y-97449298D03*
D11*
X177115457Y-97449298D03*
X174575457Y-97449298D03*
X172035457Y-97449298D03*
%TD*%
D12*
%TO.C,U4*%
X180163457Y-75097298D03*
D13*
X180163457Y-77637298D03*
X180163457Y-80177298D03*
X180163457Y-82717298D03*
X180163457Y-85257298D03*
X180163457Y-87797298D03*
X180163457Y-90337298D03*
X180163457Y-92877298D03*
X192863457Y-92877298D03*
X192863457Y-90337298D03*
X192863457Y-87797298D03*
X192863457Y-85257298D03*
X192863457Y-82717298D03*
X192863457Y-80177298D03*
X192863457Y-77637298D03*
X192863457Y-75097298D03*
%TD*%
D12*
%TO.C,U1*%
X157715457Y-75732298D03*
D13*
X157715457Y-78272298D03*
X157715457Y-80812298D03*
X157715457Y-83352298D03*
X157715457Y-85892298D03*
X157715457Y-88432298D03*
X157715457Y-90972298D03*
X157715457Y-93512298D03*
X170415457Y-93512298D03*
X170415457Y-90972298D03*
X170415457Y-88432298D03*
X170415457Y-85892298D03*
X170415457Y-83352298D03*
X170415457Y-80812298D03*
X170415457Y-78272298D03*
X170415457Y-75732298D03*
%TD*%
D14*
%TO.C,J1*%
X121362457Y-81955298D03*
X121362457Y-87735298D03*
D15*
X121852457Y-80520298D03*
X121852457Y-89170298D03*
D16*
X117682457Y-80520298D03*
X117682457Y-89170298D03*
%TD*%
M02*
